G04 #@! TF.GenerationSoftware,KiCad,Pcbnew,(5.1.4)-1*
G04 #@! TF.CreationDate,2019-10-22T17:15:33+13:00*
G04 #@! TF.ProjectId,SprinklerPCB,53707269-6e6b-46c6-9572-5043422e6b69,rev?*
G04 #@! TF.SameCoordinates,Original*
G04 #@! TF.FileFunction,Copper,L1,Top*
G04 #@! TF.FilePolarity,Positive*
%FSLAX46Y46*%
G04 Gerber Fmt 4.6, Leading zero omitted, Abs format (unit mm)*
G04 Created by KiCad (PCBNEW (5.1.4)-1) date 2019-10-22 17:15:33*
%MOMM*%
%LPD*%
G04 APERTURE LIST*
%ADD10C,0.025400*%
%ADD11C,1.778000*%
%ADD12R,1.778000X1.778000*%
%ADD13O,1.600000X1.600000*%
%ADD14R,1.600000X1.600000*%
%ADD15O,1.400000X1.400000*%
%ADD16C,1.400000*%
%ADD17O,1.700000X1.700000*%
%ADD18R,1.700000X1.700000*%
%ADD19C,2.500000*%
%ADD20R,2.500000X2.500000*%
%ADD21R,1.524000X1.778000*%
%ADD22O,2.400000X2.400000*%
%ADD23R,2.400000X2.400000*%
%ADD24C,1.600000*%
%ADD25C,3.810000*%
%ADD26C,0.800000*%
%ADD27C,0.203200*%
%ADD28C,2.032000*%
%ADD29C,0.254000*%
G04 APERTURE END LIST*
D10*
X44450000Y-66040000D02*
X44450000Y-123190000D01*
X184150000Y-66040000D02*
X44450000Y-66040000D01*
X184150000Y-123190000D02*
X184150000Y-66040000D01*
X44450000Y-123190000D02*
X184150000Y-123190000D01*
D11*
X111760000Y-86360000D03*
X114300000Y-86360000D03*
X116840000Y-86360000D03*
D12*
X119380000Y-86360000D03*
D13*
X67310000Y-74930000D03*
X59690000Y-90170000D03*
X67310000Y-77470000D03*
X59690000Y-87630000D03*
X67310000Y-80010000D03*
X59690000Y-85090000D03*
X67310000Y-82550000D03*
X59690000Y-82550000D03*
X67310000Y-85090000D03*
X59690000Y-80010000D03*
X67310000Y-87630000D03*
X59690000Y-77470000D03*
X67310000Y-90170000D03*
D14*
X59690000Y-74930000D03*
D15*
X110490000Y-72390000D03*
D16*
X110490000Y-80010000D03*
D17*
X100330000Y-68580000D03*
X97790000Y-68580000D03*
X95250000Y-68580000D03*
X92710000Y-68580000D03*
X90170000Y-68580000D03*
X87630000Y-68580000D03*
X85090000Y-68580000D03*
X82550000Y-68580000D03*
X80010000Y-68580000D03*
X77470000Y-68580000D03*
X74930000Y-68580000D03*
D18*
X72390000Y-68580000D03*
D17*
X54610000Y-120650000D03*
X57150000Y-120650000D03*
X59690000Y-120650000D03*
X62230000Y-120650000D03*
X64770000Y-120650000D03*
X67310000Y-120650000D03*
D18*
X69850000Y-120650000D03*
D17*
X120650000Y-68580000D03*
X123190000Y-68580000D03*
X125730000Y-68580000D03*
D18*
X128270000Y-68580000D03*
D17*
X120650000Y-73660000D03*
X123190000Y-73660000D03*
X125730000Y-73660000D03*
D18*
X128270000Y-73660000D03*
D17*
X105410000Y-68580000D03*
X107950000Y-68580000D03*
X110490000Y-68580000D03*
X113030000Y-68580000D03*
D18*
X115570000Y-68580000D03*
D17*
X104140000Y-76200000D03*
D18*
X104140000Y-78740000D03*
D17*
X54610000Y-92710000D03*
X54610000Y-95250000D03*
X54610000Y-97790000D03*
X54610000Y-100330000D03*
X54610000Y-102870000D03*
X54610000Y-105410000D03*
X54610000Y-107950000D03*
X54610000Y-110490000D03*
X54610000Y-113030000D03*
D18*
X54610000Y-115570000D03*
D19*
X162560000Y-110490000D03*
X167640000Y-110490000D03*
X172720000Y-110490000D03*
D20*
X177800000Y-110490000D03*
D21*
X133350000Y-68640001D03*
X133350000Y-119440001D03*
X156210000Y-119440001D03*
X156210000Y-68640001D03*
D22*
X161290000Y-101600000D03*
D23*
X176530000Y-101600000D03*
D22*
X176530000Y-76200000D03*
D23*
X161290000Y-76200000D03*
D22*
X161290000Y-92710000D03*
D23*
X176530000Y-92710000D03*
D22*
X176530000Y-85090000D03*
D23*
X161290000Y-85090000D03*
D11*
X100330000Y-78740000D03*
X100330000Y-81280000D03*
X100330000Y-83820000D03*
X100330000Y-86360000D03*
X100330000Y-88900000D03*
X100330000Y-91440000D03*
X100330000Y-93980000D03*
X100330000Y-96520000D03*
X100330000Y-99060000D03*
X100330000Y-101600000D03*
X100330000Y-104140000D03*
X100330000Y-106680000D03*
X100330000Y-109220000D03*
X100330000Y-111760000D03*
X100330000Y-114300000D03*
X74930000Y-114300000D03*
X74930000Y-111760000D03*
X74930000Y-109220000D03*
X74930000Y-106680000D03*
X74930000Y-104140000D03*
X74930000Y-101600000D03*
X74930000Y-99060000D03*
X74930000Y-96520000D03*
X74930000Y-93980000D03*
X74930000Y-91440000D03*
X74930000Y-88900000D03*
X74930000Y-86360000D03*
X74930000Y-83820000D03*
X74930000Y-81280000D03*
X74930000Y-78740000D03*
D13*
X67310000Y-96520000D03*
X59690000Y-114300000D03*
X67310000Y-99060000D03*
X59690000Y-111760000D03*
X67310000Y-101600000D03*
X59690000Y-109220000D03*
X67310000Y-104140000D03*
X59690000Y-106680000D03*
X67310000Y-106680000D03*
X59690000Y-104140000D03*
X67310000Y-109220000D03*
X59690000Y-101600000D03*
X67310000Y-111760000D03*
X59690000Y-99060000D03*
X67310000Y-114300000D03*
D14*
X59690000Y-96520000D03*
D15*
X115570000Y-72390000D03*
D16*
X115570000Y-80010000D03*
D15*
X113030000Y-72390000D03*
D16*
X113030000Y-80010000D03*
D15*
X71120000Y-96520000D03*
D16*
X71120000Y-104140000D03*
D24*
X54650000Y-85090000D03*
X57150000Y-85090000D03*
X54650000Y-80010000D03*
X57150000Y-80010000D03*
X54650000Y-74930000D03*
X57150000Y-74930000D03*
D25*
X48260000Y-69850000D03*
X48260000Y-119380000D03*
X180340000Y-119380000D03*
X180340000Y-69850000D03*
D26*
X66040000Y-116840000D03*
D27*
X100330000Y-78740000D02*
X104140000Y-78740000D01*
X102870000Y-83820000D02*
X100330000Y-81280000D01*
X117932200Y-83820000D02*
X102870000Y-83820000D01*
X119380000Y-86360000D02*
X119380000Y-85267800D01*
X119380000Y-85267800D02*
X117932200Y-83820000D01*
X101218999Y-88011001D02*
X100330000Y-88900000D01*
X104038401Y-85191599D02*
X101218999Y-88011001D01*
X115671599Y-85191599D02*
X104038401Y-85191599D01*
X116840000Y-86360000D02*
X115671599Y-85191599D01*
X133350000Y-119440001D02*
X133350000Y-119567001D01*
X62230000Y-114300000D02*
X67310000Y-109220000D01*
X62230000Y-120650000D02*
X62230000Y-114300000D01*
X67310000Y-120650000D02*
X67310000Y-118110000D01*
X67310000Y-118110000D02*
X66040000Y-116840000D01*
X74930000Y-101600000D02*
X72390000Y-104140000D01*
X72390000Y-104140000D02*
X72390000Y-105410000D01*
X72390000Y-105410000D02*
X71120000Y-106680000D01*
X71120000Y-106680000D02*
X67310000Y-106680000D01*
X60539999Y-119800001D02*
X59690000Y-120650000D01*
X61848990Y-118491010D02*
X60539999Y-119800001D01*
X61848990Y-109601010D02*
X61848990Y-118491010D01*
X67310000Y-104140000D02*
X61848990Y-109601010D01*
X71120000Y-102870000D02*
X71120000Y-104140000D01*
X74930000Y-99060000D02*
X71120000Y-102870000D01*
X59690000Y-87630000D02*
X60960000Y-87630000D01*
X74041001Y-95631001D02*
X74930000Y-96520000D01*
X72771010Y-94361010D02*
X74041001Y-95631001D01*
X67691010Y-94361010D02*
X72771010Y-94361010D01*
X60960000Y-87630000D02*
X67691010Y-94361010D01*
X59690000Y-82550000D02*
X60960000Y-82550000D01*
X60960000Y-82550000D02*
X63500000Y-85090000D01*
X63500000Y-85090000D02*
X63500000Y-89438829D01*
X68041171Y-93980000D02*
X74930000Y-93980000D01*
X63500000Y-89438829D02*
X68041171Y-93980000D01*
X64770000Y-90170000D02*
X66040000Y-91440000D01*
X59690000Y-77470000D02*
X64770000Y-82550000D01*
X64770000Y-82550000D02*
X64770000Y-90170000D01*
X74930000Y-91440000D02*
X72771010Y-93598990D01*
X72771010Y-93598990D02*
X68580000Y-93598990D01*
X68580000Y-93598990D02*
X68198990Y-93598990D01*
X68198990Y-93598990D02*
X66040000Y-91440000D01*
X58420000Y-97790000D02*
X59690000Y-96520000D01*
X54610000Y-97790000D02*
X58420000Y-97790000D01*
X58420000Y-100330000D02*
X59690000Y-99060000D01*
X54610000Y-100330000D02*
X58420000Y-100330000D01*
X58420000Y-102870000D02*
X59690000Y-101600000D01*
X54610000Y-102870000D02*
X58420000Y-102870000D01*
X58420000Y-105410000D02*
X59690000Y-104140000D01*
X54610000Y-105410000D02*
X58420000Y-105410000D01*
X58420000Y-107950000D02*
X59690000Y-106680000D01*
X54610000Y-107950000D02*
X58420000Y-107950000D01*
X58420000Y-110490000D02*
X59690000Y-109220000D01*
X54610000Y-110490000D02*
X58420000Y-110490000D01*
X58420000Y-113030000D02*
X59690000Y-111760000D01*
X54610000Y-113030000D02*
X58420000Y-113030000D01*
X67310000Y-114300000D02*
X66040000Y-114300000D01*
X64770000Y-115570000D02*
X64770000Y-120650000D01*
X66040000Y-114300000D02*
X64770000Y-115570000D01*
X63500000Y-95250000D02*
X67310000Y-99060000D01*
X54610000Y-95250000D02*
X63500000Y-95250000D01*
X57150000Y-74930000D02*
X59690000Y-74930000D01*
X57150000Y-80010000D02*
X59690000Y-80010000D01*
X57150000Y-85090000D02*
X59690000Y-85090000D01*
D28*
X176530000Y-76200000D02*
X173990000Y-76200000D01*
X176530000Y-92710000D02*
X173990000Y-92710000D01*
X173990000Y-92710000D02*
X172720000Y-91440000D01*
X173990000Y-76200000D02*
X172720000Y-77470000D01*
X172720000Y-85090000D02*
X172720000Y-77470000D01*
X172720000Y-91440000D02*
X172720000Y-85090000D01*
D27*
X100330000Y-68580000D02*
X100330000Y-74930000D01*
X99441001Y-90551001D02*
X100330000Y-91440000D01*
X99161599Y-90271599D02*
X99441001Y-90551001D01*
X99161599Y-76098401D02*
X99161599Y-90271599D01*
X100330000Y-74930000D02*
X99161599Y-76098401D01*
X97790000Y-91440000D02*
X100330000Y-93980000D01*
X97790000Y-68580000D02*
X97790000Y-91440000D01*
X85090000Y-96520000D02*
X74930000Y-106680000D01*
X85090000Y-68580000D02*
X85090000Y-96520000D01*
X82550000Y-81280000D02*
X74930000Y-88900000D01*
X82550000Y-68580000D02*
X82550000Y-81280000D01*
X80010000Y-81280000D02*
X74930000Y-86360000D01*
X80010000Y-68580000D02*
X80010000Y-81280000D01*
X95250000Y-91440000D02*
X100330000Y-96520000D01*
X95250000Y-68580000D02*
X95250000Y-91440000D01*
X92710000Y-96520000D02*
X100330000Y-104140000D01*
X92710000Y-68580000D02*
X92710000Y-96520000D01*
X90170000Y-96520000D02*
X100330000Y-106680000D01*
X90170000Y-68580000D02*
X90170000Y-96520000D01*
X87630000Y-96520000D02*
X100330000Y-109220000D01*
X87630000Y-68580000D02*
X87630000Y-96520000D01*
D29*
G36*
X130683000Y-122542300D02*
G01*
X52197000Y-122542300D01*
X52197000Y-120650000D01*
X53117815Y-120650000D01*
X53146487Y-120941111D01*
X53231401Y-121221034D01*
X53369294Y-121479014D01*
X53554866Y-121705134D01*
X53780986Y-121890706D01*
X54038966Y-122028599D01*
X54318889Y-122113513D01*
X54537050Y-122135000D01*
X54682950Y-122135000D01*
X54901111Y-122113513D01*
X55181034Y-122028599D01*
X55439014Y-121890706D01*
X55665134Y-121705134D01*
X55850706Y-121479014D01*
X55885201Y-121414477D01*
X55954822Y-121531355D01*
X56149731Y-121747588D01*
X56383080Y-121921641D01*
X56645901Y-122046825D01*
X56793110Y-122091476D01*
X57023000Y-121970155D01*
X57023000Y-120777000D01*
X57003000Y-120777000D01*
X57003000Y-120523000D01*
X57023000Y-120523000D01*
X57023000Y-119329845D01*
X56793110Y-119208524D01*
X56645901Y-119253175D01*
X56383080Y-119378359D01*
X56149731Y-119552412D01*
X55954822Y-119768645D01*
X55885201Y-119885523D01*
X55850706Y-119820986D01*
X55665134Y-119594866D01*
X55439014Y-119409294D01*
X55181034Y-119271401D01*
X54901111Y-119186487D01*
X54682950Y-119165000D01*
X54537050Y-119165000D01*
X54318889Y-119186487D01*
X54038966Y-119271401D01*
X53780986Y-119409294D01*
X53554866Y-119594866D01*
X53369294Y-119820986D01*
X53231401Y-120078966D01*
X53146487Y-120358889D01*
X53117815Y-120650000D01*
X52197000Y-120650000D01*
X52197000Y-92710000D01*
X53117815Y-92710000D01*
X53146487Y-93001111D01*
X53231401Y-93281034D01*
X53369294Y-93539014D01*
X53554866Y-93765134D01*
X53780986Y-93950706D01*
X53835791Y-93980000D01*
X53780986Y-94009294D01*
X53554866Y-94194866D01*
X53369294Y-94420986D01*
X53231401Y-94678966D01*
X53146487Y-94958889D01*
X53117815Y-95250000D01*
X53146487Y-95541111D01*
X53231401Y-95821034D01*
X53369294Y-96079014D01*
X53554866Y-96305134D01*
X53780986Y-96490706D01*
X53835791Y-96520000D01*
X53780986Y-96549294D01*
X53554866Y-96734866D01*
X53369294Y-96960986D01*
X53231401Y-97218966D01*
X53146487Y-97498889D01*
X53117815Y-97790000D01*
X53146487Y-98081111D01*
X53231401Y-98361034D01*
X53369294Y-98619014D01*
X53554866Y-98845134D01*
X53780986Y-99030706D01*
X53835791Y-99060000D01*
X53780986Y-99089294D01*
X53554866Y-99274866D01*
X53369294Y-99500986D01*
X53231401Y-99758966D01*
X53146487Y-100038889D01*
X53117815Y-100330000D01*
X53146487Y-100621111D01*
X53231401Y-100901034D01*
X53369294Y-101159014D01*
X53554866Y-101385134D01*
X53780986Y-101570706D01*
X53835791Y-101600000D01*
X53780986Y-101629294D01*
X53554866Y-101814866D01*
X53369294Y-102040986D01*
X53231401Y-102298966D01*
X53146487Y-102578889D01*
X53117815Y-102870000D01*
X53146487Y-103161111D01*
X53231401Y-103441034D01*
X53369294Y-103699014D01*
X53554866Y-103925134D01*
X53780986Y-104110706D01*
X53835791Y-104140000D01*
X53780986Y-104169294D01*
X53554866Y-104354866D01*
X53369294Y-104580986D01*
X53231401Y-104838966D01*
X53146487Y-105118889D01*
X53117815Y-105410000D01*
X53146487Y-105701111D01*
X53231401Y-105981034D01*
X53369294Y-106239014D01*
X53554866Y-106465134D01*
X53780986Y-106650706D01*
X53835791Y-106680000D01*
X53780986Y-106709294D01*
X53554866Y-106894866D01*
X53369294Y-107120986D01*
X53231401Y-107378966D01*
X53146487Y-107658889D01*
X53117815Y-107950000D01*
X53146487Y-108241111D01*
X53231401Y-108521034D01*
X53369294Y-108779014D01*
X53554866Y-109005134D01*
X53780986Y-109190706D01*
X53835791Y-109220000D01*
X53780986Y-109249294D01*
X53554866Y-109434866D01*
X53369294Y-109660986D01*
X53231401Y-109918966D01*
X53146487Y-110198889D01*
X53117815Y-110490000D01*
X53146487Y-110781111D01*
X53231401Y-111061034D01*
X53369294Y-111319014D01*
X53554866Y-111545134D01*
X53780986Y-111730706D01*
X53835791Y-111760000D01*
X53780986Y-111789294D01*
X53554866Y-111974866D01*
X53369294Y-112200986D01*
X53231401Y-112458966D01*
X53146487Y-112738889D01*
X53117815Y-113030000D01*
X53146487Y-113321111D01*
X53231401Y-113601034D01*
X53369294Y-113859014D01*
X53554866Y-114085134D01*
X53584687Y-114109607D01*
X53515820Y-114130498D01*
X53405506Y-114189463D01*
X53308815Y-114268815D01*
X53229463Y-114365506D01*
X53170498Y-114475820D01*
X53134188Y-114595518D01*
X53121928Y-114720000D01*
X53121928Y-116420000D01*
X53134188Y-116544482D01*
X53170498Y-116664180D01*
X53229463Y-116774494D01*
X53308815Y-116871185D01*
X53405506Y-116950537D01*
X53515820Y-117009502D01*
X53635518Y-117045812D01*
X53760000Y-117058072D01*
X55460000Y-117058072D01*
X55584482Y-117045812D01*
X55704180Y-117009502D01*
X55814494Y-116950537D01*
X55911185Y-116871185D01*
X55990537Y-116774494D01*
X56049502Y-116664180D01*
X56085812Y-116544482D01*
X56098072Y-116420000D01*
X56098072Y-114720000D01*
X56085812Y-114595518D01*
X56049502Y-114475820D01*
X55990537Y-114365506D01*
X55911185Y-114268815D01*
X55814494Y-114189463D01*
X55704180Y-114130498D01*
X55635313Y-114109607D01*
X55665134Y-114085134D01*
X55850706Y-113859014D01*
X55900102Y-113766600D01*
X58352234Y-113766600D01*
X58275764Y-114018691D01*
X58248057Y-114300000D01*
X58275764Y-114581309D01*
X58357818Y-114851808D01*
X58491068Y-115101101D01*
X58670392Y-115319608D01*
X58888899Y-115498932D01*
X59138192Y-115632182D01*
X59408691Y-115714236D01*
X59619508Y-115735000D01*
X59760492Y-115735000D01*
X59971309Y-115714236D01*
X60241808Y-115632182D01*
X60491101Y-115498932D01*
X60709608Y-115319608D01*
X60888932Y-115101101D01*
X61022182Y-114851808D01*
X61104236Y-114581309D01*
X61112391Y-114498516D01*
X61112391Y-118185899D01*
X60081386Y-119216905D01*
X59981111Y-119186487D01*
X59762950Y-119165000D01*
X59617050Y-119165000D01*
X59398889Y-119186487D01*
X59118966Y-119271401D01*
X58860986Y-119409294D01*
X58634866Y-119594866D01*
X58449294Y-119820986D01*
X58414799Y-119885523D01*
X58345178Y-119768645D01*
X58150269Y-119552412D01*
X57916920Y-119378359D01*
X57654099Y-119253175D01*
X57506890Y-119208524D01*
X57277000Y-119329845D01*
X57277000Y-120523000D01*
X57297000Y-120523000D01*
X57297000Y-120777000D01*
X57277000Y-120777000D01*
X57277000Y-121970155D01*
X57506890Y-122091476D01*
X57654099Y-122046825D01*
X57916920Y-121921641D01*
X58150269Y-121747588D01*
X58345178Y-121531355D01*
X58414799Y-121414477D01*
X58449294Y-121479014D01*
X58634866Y-121705134D01*
X58860986Y-121890706D01*
X59118966Y-122028599D01*
X59398889Y-122113513D01*
X59617050Y-122135000D01*
X59762950Y-122135000D01*
X59981111Y-122113513D01*
X60261034Y-122028599D01*
X60519014Y-121890706D01*
X60745134Y-121705134D01*
X60930706Y-121479014D01*
X60960000Y-121424209D01*
X60989294Y-121479014D01*
X61174866Y-121705134D01*
X61400986Y-121890706D01*
X61658966Y-122028599D01*
X61938889Y-122113513D01*
X62157050Y-122135000D01*
X62302950Y-122135000D01*
X62521111Y-122113513D01*
X62801034Y-122028599D01*
X63059014Y-121890706D01*
X63285134Y-121705134D01*
X63470706Y-121479014D01*
X63500000Y-121424209D01*
X63529294Y-121479014D01*
X63714866Y-121705134D01*
X63940986Y-121890706D01*
X64198966Y-122028599D01*
X64478889Y-122113513D01*
X64697050Y-122135000D01*
X64842950Y-122135000D01*
X65061111Y-122113513D01*
X65341034Y-122028599D01*
X65599014Y-121890706D01*
X65825134Y-121705134D01*
X66010706Y-121479014D01*
X66040000Y-121424209D01*
X66069294Y-121479014D01*
X66254866Y-121705134D01*
X66480986Y-121890706D01*
X66738966Y-122028599D01*
X67018889Y-122113513D01*
X67237050Y-122135000D01*
X67382950Y-122135000D01*
X67601111Y-122113513D01*
X67881034Y-122028599D01*
X68139014Y-121890706D01*
X68365134Y-121705134D01*
X68389607Y-121675313D01*
X68410498Y-121744180D01*
X68469463Y-121854494D01*
X68548815Y-121951185D01*
X68645506Y-122030537D01*
X68755820Y-122089502D01*
X68875518Y-122125812D01*
X69000000Y-122138072D01*
X70700000Y-122138072D01*
X70824482Y-122125812D01*
X70944180Y-122089502D01*
X71054494Y-122030537D01*
X71151185Y-121951185D01*
X71230537Y-121854494D01*
X71289502Y-121744180D01*
X71325812Y-121624482D01*
X71338072Y-121500000D01*
X71338072Y-119800000D01*
X71325812Y-119675518D01*
X71289502Y-119555820D01*
X71230537Y-119445506D01*
X71151185Y-119348815D01*
X71054494Y-119269463D01*
X70944180Y-119210498D01*
X70824482Y-119174188D01*
X70700000Y-119161928D01*
X69000000Y-119161928D01*
X68875518Y-119174188D01*
X68755820Y-119210498D01*
X68645506Y-119269463D01*
X68548815Y-119348815D01*
X68469463Y-119445506D01*
X68410498Y-119555820D01*
X68389607Y-119624687D01*
X68365134Y-119594866D01*
X68139014Y-119409294D01*
X68046600Y-119359898D01*
X68046600Y-118146175D01*
X68050163Y-118109999D01*
X68046600Y-118073823D01*
X68046600Y-118073814D01*
X68035942Y-117965601D01*
X67993822Y-117826751D01*
X67925424Y-117698787D01*
X67833375Y-117586625D01*
X67805269Y-117563559D01*
X67075000Y-116833291D01*
X67075000Y-116738061D01*
X67035226Y-116538102D01*
X66957205Y-116349744D01*
X66843937Y-116180226D01*
X66699774Y-116036063D01*
X66530256Y-115922795D01*
X66341898Y-115844774D01*
X66141939Y-115805000D01*
X65938061Y-115805000D01*
X65738102Y-115844774D01*
X65549744Y-115922795D01*
X65506600Y-115951623D01*
X65506600Y-115875109D01*
X66187489Y-115194221D01*
X66290392Y-115319608D01*
X66508899Y-115498932D01*
X66758192Y-115632182D01*
X67028691Y-115714236D01*
X67239508Y-115735000D01*
X67380492Y-115735000D01*
X67591309Y-115714236D01*
X67861808Y-115632182D01*
X68111101Y-115498932D01*
X68329608Y-115319608D01*
X68508932Y-115101101D01*
X68642182Y-114851808D01*
X68724236Y-114581309D01*
X68751943Y-114300000D01*
X68724236Y-114018691D01*
X68642182Y-113748192D01*
X68508932Y-113498899D01*
X68329608Y-113280392D01*
X68111101Y-113101068D01*
X67973318Y-113027421D01*
X68165131Y-112912385D01*
X68373519Y-112723414D01*
X68541037Y-112497420D01*
X68661246Y-112243087D01*
X68701904Y-112109039D01*
X68579915Y-111887000D01*
X67437000Y-111887000D01*
X67437000Y-111907000D01*
X67183000Y-111907000D01*
X67183000Y-111887000D01*
X66040085Y-111887000D01*
X65918096Y-112109039D01*
X65958754Y-112243087D01*
X66078963Y-112497420D01*
X66246481Y-112723414D01*
X66454869Y-112912385D01*
X66646682Y-113027421D01*
X66508899Y-113101068D01*
X66290392Y-113280392D01*
X66111068Y-113498899D01*
X66076591Y-113563400D01*
X66076175Y-113563400D01*
X66039999Y-113559837D01*
X66003823Y-113563400D01*
X66003814Y-113563400D01*
X65895601Y-113574058D01*
X65756751Y-113616178D01*
X65628787Y-113684576D01*
X65516625Y-113776625D01*
X65493559Y-113804731D01*
X64274732Y-115023559D01*
X64246625Y-115046626D01*
X64223559Y-115074732D01*
X64223558Y-115074733D01*
X64154577Y-115158787D01*
X64154576Y-115158788D01*
X64086178Y-115286752D01*
X64044058Y-115425602D01*
X64036836Y-115498932D01*
X64029836Y-115570000D01*
X64033400Y-115606183D01*
X64033401Y-119359897D01*
X63940986Y-119409294D01*
X63714866Y-119594866D01*
X63529294Y-119820986D01*
X63500000Y-119875791D01*
X63470706Y-119820986D01*
X63285134Y-119594866D01*
X63059014Y-119409294D01*
X62966600Y-119359898D01*
X62966600Y-114605109D01*
X66004138Y-111567571D01*
X66040085Y-111633000D01*
X67183000Y-111633000D01*
X67183000Y-111613000D01*
X67437000Y-111613000D01*
X67437000Y-111633000D01*
X68579915Y-111633000D01*
X68701904Y-111410961D01*
X68661246Y-111276913D01*
X68541037Y-111022580D01*
X68373519Y-110796586D01*
X68165131Y-110607615D01*
X67973318Y-110492579D01*
X68111101Y-110418932D01*
X68329608Y-110239608D01*
X68508932Y-110021101D01*
X68642182Y-109771808D01*
X68724236Y-109501309D01*
X68751943Y-109220000D01*
X68724236Y-108938691D01*
X68642182Y-108668192D01*
X68508932Y-108418899D01*
X68329608Y-108200392D01*
X68111101Y-108021068D01*
X67978142Y-107950000D01*
X68111101Y-107878932D01*
X68329608Y-107699608D01*
X68508932Y-107481101D01*
X68543409Y-107416600D01*
X71083817Y-107416600D01*
X71120000Y-107420164D01*
X71156183Y-107416600D01*
X71156186Y-107416600D01*
X71264399Y-107405942D01*
X71403249Y-107363822D01*
X71531213Y-107295424D01*
X71643375Y-107203375D01*
X71666445Y-107175264D01*
X72885269Y-105956441D01*
X72913375Y-105933375D01*
X73005424Y-105821213D01*
X73073822Y-105693249D01*
X73115942Y-105554399D01*
X73126600Y-105446186D01*
X73126600Y-105446177D01*
X73130163Y-105410001D01*
X73126600Y-105373825D01*
X73126600Y-104445109D01*
X73406000Y-104165709D01*
X73406000Y-104290101D01*
X73464566Y-104584534D01*
X73579449Y-104861885D01*
X73746232Y-105111493D01*
X73958507Y-105323768D01*
X74087562Y-105410000D01*
X73958507Y-105496232D01*
X73746232Y-105708507D01*
X73579449Y-105958115D01*
X73464566Y-106235466D01*
X73406000Y-106529899D01*
X73406000Y-106830101D01*
X73464566Y-107124534D01*
X73579449Y-107401885D01*
X73746232Y-107651493D01*
X73958507Y-107863768D01*
X74087562Y-107950000D01*
X73958507Y-108036232D01*
X73746232Y-108248507D01*
X73579449Y-108498115D01*
X73464566Y-108775466D01*
X73406000Y-109069899D01*
X73406000Y-109370101D01*
X73464566Y-109664534D01*
X73579449Y-109941885D01*
X73746232Y-110191493D01*
X73958507Y-110403768D01*
X74087562Y-110490000D01*
X73958507Y-110576232D01*
X73746232Y-110788507D01*
X73579449Y-111038115D01*
X73464566Y-111315466D01*
X73406000Y-111609899D01*
X73406000Y-111910101D01*
X73464566Y-112204534D01*
X73579449Y-112481885D01*
X73746232Y-112731493D01*
X73958507Y-112943768D01*
X74087562Y-113030000D01*
X73958507Y-113116232D01*
X73746232Y-113328507D01*
X73579449Y-113578115D01*
X73464566Y-113855466D01*
X73406000Y-114149899D01*
X73406000Y-114450101D01*
X73464566Y-114744534D01*
X73579449Y-115021885D01*
X73746232Y-115271493D01*
X73958507Y-115483768D01*
X74208115Y-115650551D01*
X74485466Y-115765434D01*
X74779899Y-115824000D01*
X75080101Y-115824000D01*
X75374534Y-115765434D01*
X75651885Y-115650551D01*
X75901493Y-115483768D01*
X76029030Y-115356231D01*
X99453374Y-115356231D01*
X99535727Y-115609289D01*
X99806418Y-115739086D01*
X100097230Y-115813580D01*
X100396988Y-115829908D01*
X100694171Y-115787443D01*
X100977359Y-115687816D01*
X101124273Y-115609289D01*
X101206626Y-115356231D01*
X100330000Y-114479605D01*
X99453374Y-115356231D01*
X76029030Y-115356231D01*
X76113768Y-115271493D01*
X76280551Y-115021885D01*
X76395434Y-114744534D01*
X76454000Y-114450101D01*
X76454000Y-114366988D01*
X98800092Y-114366988D01*
X98842557Y-114664171D01*
X98942184Y-114947359D01*
X99020711Y-115094273D01*
X99273769Y-115176626D01*
X100150395Y-114300000D01*
X100509605Y-114300000D01*
X101386231Y-115176626D01*
X101639289Y-115094273D01*
X101769086Y-114823582D01*
X101843580Y-114532770D01*
X101859908Y-114233012D01*
X101817443Y-113935829D01*
X101717816Y-113652641D01*
X101639289Y-113505727D01*
X101386231Y-113423374D01*
X100509605Y-114300000D01*
X100150395Y-114300000D01*
X99273769Y-113423374D01*
X99020711Y-113505727D01*
X98890914Y-113776418D01*
X98816420Y-114067230D01*
X98800092Y-114366988D01*
X76454000Y-114366988D01*
X76454000Y-114149899D01*
X76395434Y-113855466D01*
X76280551Y-113578115D01*
X76113768Y-113328507D01*
X75901493Y-113116232D01*
X75772438Y-113030000D01*
X75901493Y-112943768D01*
X76113768Y-112731493D01*
X76280551Y-112481885D01*
X76395434Y-112204534D01*
X76454000Y-111910101D01*
X76454000Y-111609899D01*
X76395434Y-111315466D01*
X76280551Y-111038115D01*
X76113768Y-110788507D01*
X75901493Y-110576232D01*
X75772438Y-110490000D01*
X75901493Y-110403768D01*
X76113768Y-110191493D01*
X76280551Y-109941885D01*
X76395434Y-109664534D01*
X76454000Y-109370101D01*
X76454000Y-109069899D01*
X76395434Y-108775466D01*
X76280551Y-108498115D01*
X76113768Y-108248507D01*
X75901493Y-108036232D01*
X75772438Y-107950000D01*
X75901493Y-107863768D01*
X76113768Y-107651493D01*
X76280551Y-107401885D01*
X76395434Y-107124534D01*
X76454000Y-106830101D01*
X76454000Y-106529899D01*
X76398886Y-106252823D01*
X85585269Y-97066441D01*
X85613375Y-97043375D01*
X85705424Y-96931213D01*
X85773822Y-96803249D01*
X85815942Y-96664399D01*
X85826600Y-96556186D01*
X85830164Y-96520000D01*
X85826600Y-96483814D01*
X85826600Y-69870102D01*
X85919014Y-69820706D01*
X86145134Y-69635134D01*
X86330706Y-69409014D01*
X86360000Y-69354209D01*
X86389294Y-69409014D01*
X86574866Y-69635134D01*
X86800986Y-69820706D01*
X86893400Y-69870102D01*
X86893401Y-96483807D01*
X86889836Y-96520000D01*
X86900533Y-96628599D01*
X86904059Y-96664399D01*
X86946179Y-96803249D01*
X87014577Y-96931213D01*
X87106626Y-97043375D01*
X87134732Y-97066441D01*
X98861113Y-108792823D01*
X98806000Y-109069899D01*
X98806000Y-109370101D01*
X98864566Y-109664534D01*
X98979449Y-109941885D01*
X99146232Y-110191493D01*
X99358507Y-110403768D01*
X99487562Y-110490000D01*
X99358507Y-110576232D01*
X99146232Y-110788507D01*
X98979449Y-111038115D01*
X98864566Y-111315466D01*
X98806000Y-111609899D01*
X98806000Y-111910101D01*
X98864566Y-112204534D01*
X98979449Y-112481885D01*
X99146232Y-112731493D01*
X99358507Y-112943768D01*
X99516622Y-113049417D01*
X99453374Y-113243769D01*
X100330000Y-114120395D01*
X101206626Y-113243769D01*
X101143378Y-113049417D01*
X101301493Y-112943768D01*
X101513768Y-112731493D01*
X101680551Y-112481885D01*
X101795434Y-112204534D01*
X101854000Y-111910101D01*
X101854000Y-111609899D01*
X101795434Y-111315466D01*
X101680551Y-111038115D01*
X101513768Y-110788507D01*
X101301493Y-110576232D01*
X101172438Y-110490000D01*
X101301493Y-110403768D01*
X101513768Y-110191493D01*
X101680551Y-109941885D01*
X101795434Y-109664534D01*
X101854000Y-109370101D01*
X101854000Y-109069899D01*
X101795434Y-108775466D01*
X101680551Y-108498115D01*
X101513768Y-108248507D01*
X101301493Y-108036232D01*
X101172438Y-107950000D01*
X101301493Y-107863768D01*
X101513768Y-107651493D01*
X101680551Y-107401885D01*
X101795434Y-107124534D01*
X101854000Y-106830101D01*
X101854000Y-106529899D01*
X101795434Y-106235466D01*
X101680551Y-105958115D01*
X101513768Y-105708507D01*
X101301493Y-105496232D01*
X101172438Y-105410000D01*
X101301493Y-105323768D01*
X101513768Y-105111493D01*
X101680551Y-104861885D01*
X101795434Y-104584534D01*
X101854000Y-104290101D01*
X101854000Y-103989899D01*
X101795434Y-103695466D01*
X101680551Y-103418115D01*
X101513768Y-103168507D01*
X101301493Y-102956232D01*
X101172438Y-102870000D01*
X101301493Y-102783768D01*
X101513768Y-102571493D01*
X101680551Y-102321885D01*
X101795434Y-102044534D01*
X101854000Y-101750101D01*
X101854000Y-101449899D01*
X101795434Y-101155466D01*
X101680551Y-100878115D01*
X101513768Y-100628507D01*
X101301493Y-100416232D01*
X101172438Y-100330000D01*
X101301493Y-100243768D01*
X101513768Y-100031493D01*
X101680551Y-99781885D01*
X101795434Y-99504534D01*
X101854000Y-99210101D01*
X101854000Y-98909899D01*
X101795434Y-98615466D01*
X101680551Y-98338115D01*
X101513768Y-98088507D01*
X101301493Y-97876232D01*
X101172438Y-97790000D01*
X101301493Y-97703768D01*
X101513768Y-97491493D01*
X101680551Y-97241885D01*
X101795434Y-96964534D01*
X101854000Y-96670101D01*
X101854000Y-96369899D01*
X101795434Y-96075466D01*
X101680551Y-95798115D01*
X101513768Y-95548507D01*
X101301493Y-95336232D01*
X101172438Y-95250000D01*
X101301493Y-95163768D01*
X101513768Y-94951493D01*
X101680551Y-94701885D01*
X101795434Y-94424534D01*
X101854000Y-94130101D01*
X101854000Y-93829899D01*
X101795434Y-93535466D01*
X101680551Y-93258115D01*
X101513768Y-93008507D01*
X101301493Y-92796232D01*
X101172438Y-92710000D01*
X101301493Y-92623768D01*
X101513768Y-92411493D01*
X101680551Y-92161885D01*
X101795434Y-91884534D01*
X101854000Y-91590101D01*
X101854000Y-91289899D01*
X101795434Y-90995466D01*
X101680551Y-90718115D01*
X101513768Y-90468507D01*
X101301493Y-90256232D01*
X101172438Y-90170000D01*
X101301493Y-90083768D01*
X101513768Y-89871493D01*
X101680551Y-89621885D01*
X101795434Y-89344534D01*
X101854000Y-89050101D01*
X101854000Y-88749899D01*
X101798886Y-88472823D01*
X104343511Y-85928199D01*
X110292033Y-85928199D01*
X110236000Y-86209899D01*
X110236000Y-86510101D01*
X110294566Y-86804534D01*
X110409449Y-87081885D01*
X110576232Y-87331493D01*
X110788507Y-87543768D01*
X111038115Y-87710551D01*
X111315466Y-87825434D01*
X111609899Y-87884000D01*
X111910101Y-87884000D01*
X112204534Y-87825434D01*
X112481885Y-87710551D01*
X112731493Y-87543768D01*
X112859030Y-87416231D01*
X113423374Y-87416231D01*
X113505727Y-87669289D01*
X113776418Y-87799086D01*
X114067230Y-87873580D01*
X114366988Y-87889908D01*
X114664171Y-87847443D01*
X114947359Y-87747816D01*
X115094273Y-87669289D01*
X115176626Y-87416231D01*
X114300000Y-86539605D01*
X113423374Y-87416231D01*
X112859030Y-87416231D01*
X112943768Y-87331493D01*
X113049417Y-87173378D01*
X113243769Y-87236626D01*
X114120395Y-86360000D01*
X114106253Y-86345858D01*
X114285858Y-86166253D01*
X114300000Y-86180395D01*
X114314143Y-86166253D01*
X114493748Y-86345858D01*
X114479605Y-86360000D01*
X115356231Y-87236626D01*
X115550583Y-87173378D01*
X115656232Y-87331493D01*
X115868507Y-87543768D01*
X116118115Y-87710551D01*
X116395466Y-87825434D01*
X116689899Y-87884000D01*
X116990101Y-87884000D01*
X117284534Y-87825434D01*
X117561885Y-87710551D01*
X117811493Y-87543768D01*
X117892324Y-87462937D01*
X117901498Y-87493180D01*
X117960463Y-87603494D01*
X118039815Y-87700185D01*
X118136506Y-87779537D01*
X118246820Y-87838502D01*
X118366518Y-87874812D01*
X118491000Y-87887072D01*
X120269000Y-87887072D01*
X120393482Y-87874812D01*
X120513180Y-87838502D01*
X120623494Y-87779537D01*
X120720185Y-87700185D01*
X120799537Y-87603494D01*
X120858502Y-87493180D01*
X120894812Y-87373482D01*
X120907072Y-87249000D01*
X120907072Y-85471000D01*
X120894812Y-85346518D01*
X120858502Y-85226820D01*
X120799537Y-85116506D01*
X120720185Y-85019815D01*
X120623494Y-84940463D01*
X120513180Y-84881498D01*
X120393482Y-84845188D01*
X120269000Y-84832928D01*
X119976008Y-84832928D01*
X119903375Y-84744425D01*
X119875263Y-84721354D01*
X118478646Y-83324737D01*
X118455575Y-83296625D01*
X118343413Y-83204576D01*
X118215449Y-83136178D01*
X118076599Y-83094058D01*
X117968386Y-83083400D01*
X117968383Y-83083400D01*
X117932200Y-83079836D01*
X117896017Y-83083400D01*
X103175109Y-83083400D01*
X101798886Y-81707177D01*
X101854000Y-81430101D01*
X101854000Y-81129899D01*
X101795434Y-80835466D01*
X101680551Y-80558115D01*
X101513768Y-80308507D01*
X101301493Y-80096232D01*
X101172438Y-80010000D01*
X101301493Y-79923768D01*
X101513768Y-79711493D01*
X101670719Y-79476600D01*
X102651928Y-79476600D01*
X102651928Y-79590000D01*
X102664188Y-79714482D01*
X102700498Y-79834180D01*
X102759463Y-79944494D01*
X102838815Y-80041185D01*
X102935506Y-80120537D01*
X103045820Y-80179502D01*
X103165518Y-80215812D01*
X103290000Y-80228072D01*
X104990000Y-80228072D01*
X105114482Y-80215812D01*
X105234180Y-80179502D01*
X105344494Y-80120537D01*
X105441185Y-80041185D01*
X105520537Y-79944494D01*
X105555804Y-79878514D01*
X109155000Y-79878514D01*
X109155000Y-80141486D01*
X109206304Y-80399405D01*
X109306939Y-80642359D01*
X109453038Y-80861013D01*
X109638987Y-81046962D01*
X109857641Y-81193061D01*
X110100595Y-81293696D01*
X110358514Y-81345000D01*
X110621486Y-81345000D01*
X110879405Y-81293696D01*
X111122359Y-81193061D01*
X111341013Y-81046962D01*
X111526962Y-80861013D01*
X111673061Y-80642359D01*
X111760000Y-80432470D01*
X111846939Y-80642359D01*
X111993038Y-80861013D01*
X112178987Y-81046962D01*
X112397641Y-81193061D01*
X112640595Y-81293696D01*
X112898514Y-81345000D01*
X113161486Y-81345000D01*
X113419405Y-81293696D01*
X113662359Y-81193061D01*
X113881013Y-81046962D01*
X114066962Y-80861013D01*
X114213061Y-80642359D01*
X114300000Y-80432470D01*
X114386939Y-80642359D01*
X114533038Y-80861013D01*
X114718987Y-81046962D01*
X114937641Y-81193061D01*
X115180595Y-81293696D01*
X115438514Y-81345000D01*
X115701486Y-81345000D01*
X115959405Y-81293696D01*
X116202359Y-81193061D01*
X116421013Y-81046962D01*
X116606962Y-80861013D01*
X116753061Y-80642359D01*
X116853696Y-80399405D01*
X116905000Y-80141486D01*
X116905000Y-79878514D01*
X116853696Y-79620595D01*
X116753061Y-79377641D01*
X116606962Y-79158987D01*
X116421013Y-78973038D01*
X116202359Y-78826939D01*
X115959405Y-78726304D01*
X115701486Y-78675000D01*
X115438514Y-78675000D01*
X115180595Y-78726304D01*
X114937641Y-78826939D01*
X114718987Y-78973038D01*
X114533038Y-79158987D01*
X114386939Y-79377641D01*
X114300000Y-79587530D01*
X114213061Y-79377641D01*
X114066962Y-79158987D01*
X113881013Y-78973038D01*
X113662359Y-78826939D01*
X113419405Y-78726304D01*
X113161486Y-78675000D01*
X112898514Y-78675000D01*
X112640595Y-78726304D01*
X112397641Y-78826939D01*
X112178987Y-78973038D01*
X111993038Y-79158987D01*
X111846939Y-79377641D01*
X111760000Y-79587530D01*
X111673061Y-79377641D01*
X111526962Y-79158987D01*
X111341013Y-78973038D01*
X111122359Y-78826939D01*
X110879405Y-78726304D01*
X110621486Y-78675000D01*
X110358514Y-78675000D01*
X110100595Y-78726304D01*
X109857641Y-78826939D01*
X109638987Y-78973038D01*
X109453038Y-79158987D01*
X109306939Y-79377641D01*
X109206304Y-79620595D01*
X109155000Y-79878514D01*
X105555804Y-79878514D01*
X105579502Y-79834180D01*
X105615812Y-79714482D01*
X105628072Y-79590000D01*
X105628072Y-77890000D01*
X105615812Y-77765518D01*
X105579502Y-77645820D01*
X105520537Y-77535506D01*
X105441185Y-77438815D01*
X105344494Y-77359463D01*
X105234180Y-77300498D01*
X105165313Y-77279607D01*
X105195134Y-77255134D01*
X105380706Y-77029014D01*
X105518599Y-76771034D01*
X105603513Y-76491111D01*
X105632185Y-76200000D01*
X105603513Y-75908889D01*
X105518599Y-75628966D01*
X105380706Y-75370986D01*
X105195134Y-75144866D01*
X104969014Y-74959294D01*
X104711034Y-74821401D01*
X104431111Y-74736487D01*
X104212950Y-74715000D01*
X104067050Y-74715000D01*
X103848889Y-74736487D01*
X103568966Y-74821401D01*
X103310986Y-74959294D01*
X103084866Y-75144866D01*
X102899294Y-75370986D01*
X102761401Y-75628966D01*
X102676487Y-75908889D01*
X102647815Y-76200000D01*
X102676487Y-76491111D01*
X102761401Y-76771034D01*
X102899294Y-77029014D01*
X103084866Y-77255134D01*
X103114687Y-77279607D01*
X103045820Y-77300498D01*
X102935506Y-77359463D01*
X102838815Y-77438815D01*
X102759463Y-77535506D01*
X102700498Y-77645820D01*
X102664188Y-77765518D01*
X102651928Y-77890000D01*
X102651928Y-78003400D01*
X101670719Y-78003400D01*
X101513768Y-77768507D01*
X101301493Y-77556232D01*
X101051885Y-77389449D01*
X100774534Y-77274566D01*
X100480101Y-77216000D01*
X100179899Y-77216000D01*
X99898199Y-77272033D01*
X99898199Y-76403510D01*
X100825269Y-75476441D01*
X100853375Y-75453375D01*
X100945424Y-75341213D01*
X101013822Y-75213249D01*
X101055942Y-75074399D01*
X101066600Y-74966186D01*
X101070164Y-74930000D01*
X101066600Y-74893814D01*
X101066600Y-72390000D01*
X109148541Y-72390000D01*
X109174317Y-72651706D01*
X109250653Y-72903354D01*
X109374618Y-73135275D01*
X109541445Y-73338555D01*
X109744725Y-73505382D01*
X109976646Y-73629347D01*
X110228294Y-73705683D01*
X110424421Y-73725000D01*
X110555579Y-73725000D01*
X110751706Y-73705683D01*
X111003354Y-73629347D01*
X111235275Y-73505382D01*
X111438555Y-73338555D01*
X111605382Y-73135275D01*
X111729347Y-72903354D01*
X111760000Y-72802304D01*
X111790653Y-72903354D01*
X111914618Y-73135275D01*
X112081445Y-73338555D01*
X112284725Y-73505382D01*
X112516646Y-73629347D01*
X112768294Y-73705683D01*
X112964421Y-73725000D01*
X113095579Y-73725000D01*
X113291706Y-73705683D01*
X113543354Y-73629347D01*
X113775275Y-73505382D01*
X113978555Y-73338555D01*
X114145382Y-73135275D01*
X114269347Y-72903354D01*
X114300000Y-72802304D01*
X114330653Y-72903354D01*
X114454618Y-73135275D01*
X114621445Y-73338555D01*
X114824725Y-73505382D01*
X115056646Y-73629347D01*
X115308294Y-73705683D01*
X115504421Y-73725000D01*
X115635579Y-73725000D01*
X115831706Y-73705683D01*
X115982303Y-73660000D01*
X119157815Y-73660000D01*
X119186487Y-73951111D01*
X119271401Y-74231034D01*
X119409294Y-74489014D01*
X119594866Y-74715134D01*
X119820986Y-74900706D01*
X120078966Y-75038599D01*
X120358889Y-75123513D01*
X120577050Y-75145000D01*
X120722950Y-75145000D01*
X120941111Y-75123513D01*
X121221034Y-75038599D01*
X121479014Y-74900706D01*
X121705134Y-74715134D01*
X121890706Y-74489014D01*
X121920000Y-74434209D01*
X121949294Y-74489014D01*
X122134866Y-74715134D01*
X122360986Y-74900706D01*
X122618966Y-75038599D01*
X122898889Y-75123513D01*
X123117050Y-75145000D01*
X123262950Y-75145000D01*
X123481111Y-75123513D01*
X123761034Y-75038599D01*
X124019014Y-74900706D01*
X124245134Y-74715134D01*
X124430706Y-74489014D01*
X124460000Y-74434209D01*
X124489294Y-74489014D01*
X124674866Y-74715134D01*
X124900986Y-74900706D01*
X125158966Y-75038599D01*
X125438889Y-75123513D01*
X125657050Y-75145000D01*
X125802950Y-75145000D01*
X126021111Y-75123513D01*
X126301034Y-75038599D01*
X126559014Y-74900706D01*
X126785134Y-74715134D01*
X126809607Y-74685313D01*
X126830498Y-74754180D01*
X126889463Y-74864494D01*
X126968815Y-74961185D01*
X127065506Y-75040537D01*
X127175820Y-75099502D01*
X127295518Y-75135812D01*
X127420000Y-75148072D01*
X127984250Y-75145000D01*
X128143000Y-74986250D01*
X128143000Y-73787000D01*
X128397000Y-73787000D01*
X128397000Y-74986250D01*
X128555750Y-75145000D01*
X129120000Y-75148072D01*
X129244482Y-75135812D01*
X129364180Y-75099502D01*
X129474494Y-75040537D01*
X129571185Y-74961185D01*
X129650537Y-74864494D01*
X129709502Y-74754180D01*
X129745812Y-74634482D01*
X129758072Y-74510000D01*
X129755000Y-73945750D01*
X129596250Y-73787000D01*
X128397000Y-73787000D01*
X128143000Y-73787000D01*
X128123000Y-73787000D01*
X128123000Y-73533000D01*
X128143000Y-73533000D01*
X128143000Y-72333750D01*
X128397000Y-72333750D01*
X128397000Y-73533000D01*
X129596250Y-73533000D01*
X129755000Y-73374250D01*
X129758072Y-72810000D01*
X129745812Y-72685518D01*
X129709502Y-72565820D01*
X129650537Y-72455506D01*
X129571185Y-72358815D01*
X129474494Y-72279463D01*
X129364180Y-72220498D01*
X129244482Y-72184188D01*
X129120000Y-72171928D01*
X128555750Y-72175000D01*
X128397000Y-72333750D01*
X128143000Y-72333750D01*
X127984250Y-72175000D01*
X127420000Y-72171928D01*
X127295518Y-72184188D01*
X127175820Y-72220498D01*
X127065506Y-72279463D01*
X126968815Y-72358815D01*
X126889463Y-72455506D01*
X126830498Y-72565820D01*
X126809607Y-72634687D01*
X126785134Y-72604866D01*
X126559014Y-72419294D01*
X126301034Y-72281401D01*
X126021111Y-72196487D01*
X125802950Y-72175000D01*
X125657050Y-72175000D01*
X125438889Y-72196487D01*
X125158966Y-72281401D01*
X124900986Y-72419294D01*
X124674866Y-72604866D01*
X124489294Y-72830986D01*
X124460000Y-72885791D01*
X124430706Y-72830986D01*
X124245134Y-72604866D01*
X124019014Y-72419294D01*
X123761034Y-72281401D01*
X123481111Y-72196487D01*
X123262950Y-72175000D01*
X123117050Y-72175000D01*
X122898889Y-72196487D01*
X122618966Y-72281401D01*
X122360986Y-72419294D01*
X122134866Y-72604866D01*
X121949294Y-72830986D01*
X121920000Y-72885791D01*
X121890706Y-72830986D01*
X121705134Y-72604866D01*
X121479014Y-72419294D01*
X121221034Y-72281401D01*
X120941111Y-72196487D01*
X120722950Y-72175000D01*
X120577050Y-72175000D01*
X120358889Y-72196487D01*
X120078966Y-72281401D01*
X119820986Y-72419294D01*
X119594866Y-72604866D01*
X119409294Y-72830986D01*
X119271401Y-73088966D01*
X119186487Y-73368889D01*
X119157815Y-73660000D01*
X115982303Y-73660000D01*
X116083354Y-73629347D01*
X116315275Y-73505382D01*
X116518555Y-73338555D01*
X116685382Y-73135275D01*
X116809347Y-72903354D01*
X116885683Y-72651706D01*
X116911459Y-72390000D01*
X116885683Y-72128294D01*
X116809347Y-71876646D01*
X116685382Y-71644725D01*
X116518555Y-71441445D01*
X116315275Y-71274618D01*
X116083354Y-71150653D01*
X115831706Y-71074317D01*
X115635579Y-71055000D01*
X115504421Y-71055000D01*
X115308294Y-71074317D01*
X115056646Y-71150653D01*
X114824725Y-71274618D01*
X114621445Y-71441445D01*
X114454618Y-71644725D01*
X114330653Y-71876646D01*
X114300000Y-71977696D01*
X114269347Y-71876646D01*
X114145382Y-71644725D01*
X113978555Y-71441445D01*
X113775275Y-71274618D01*
X113543354Y-71150653D01*
X113291706Y-71074317D01*
X113095579Y-71055000D01*
X112964421Y-71055000D01*
X112768294Y-71074317D01*
X112516646Y-71150653D01*
X112284725Y-71274618D01*
X112081445Y-71441445D01*
X111914618Y-71644725D01*
X111790653Y-71876646D01*
X111760000Y-71977696D01*
X111729347Y-71876646D01*
X111605382Y-71644725D01*
X111438555Y-71441445D01*
X111235275Y-71274618D01*
X111003354Y-71150653D01*
X110751706Y-71074317D01*
X110555579Y-71055000D01*
X110424421Y-71055000D01*
X110228294Y-71074317D01*
X109976646Y-71150653D01*
X109744725Y-71274618D01*
X109541445Y-71441445D01*
X109374618Y-71644725D01*
X109250653Y-71876646D01*
X109174317Y-72128294D01*
X109148541Y-72390000D01*
X101066600Y-72390000D01*
X101066600Y-69870102D01*
X101159014Y-69820706D01*
X101385134Y-69635134D01*
X101570706Y-69409014D01*
X101708599Y-69151034D01*
X101793513Y-68871111D01*
X101822185Y-68580000D01*
X103917815Y-68580000D01*
X103946487Y-68871111D01*
X104031401Y-69151034D01*
X104169294Y-69409014D01*
X104354866Y-69635134D01*
X104580986Y-69820706D01*
X104838966Y-69958599D01*
X105118889Y-70043513D01*
X105337050Y-70065000D01*
X105482950Y-70065000D01*
X105701111Y-70043513D01*
X105981034Y-69958599D01*
X106239014Y-69820706D01*
X106465134Y-69635134D01*
X106650706Y-69409014D01*
X106685201Y-69344477D01*
X106754822Y-69461355D01*
X106949731Y-69677588D01*
X107183080Y-69851641D01*
X107445901Y-69976825D01*
X107593110Y-70021476D01*
X107823000Y-69900155D01*
X107823000Y-68707000D01*
X107803000Y-68707000D01*
X107803000Y-68453000D01*
X107823000Y-68453000D01*
X107823000Y-67259845D01*
X108077000Y-67259845D01*
X108077000Y-68453000D01*
X108097000Y-68453000D01*
X108097000Y-68707000D01*
X108077000Y-68707000D01*
X108077000Y-69900155D01*
X108306890Y-70021476D01*
X108454099Y-69976825D01*
X108716920Y-69851641D01*
X108950269Y-69677588D01*
X109145178Y-69461355D01*
X109214799Y-69344477D01*
X109249294Y-69409014D01*
X109434866Y-69635134D01*
X109660986Y-69820706D01*
X109918966Y-69958599D01*
X110198889Y-70043513D01*
X110417050Y-70065000D01*
X110562950Y-70065000D01*
X110781111Y-70043513D01*
X111061034Y-69958599D01*
X111319014Y-69820706D01*
X111545134Y-69635134D01*
X111730706Y-69409014D01*
X111760000Y-69354209D01*
X111789294Y-69409014D01*
X111974866Y-69635134D01*
X112200986Y-69820706D01*
X112458966Y-69958599D01*
X112738889Y-70043513D01*
X112957050Y-70065000D01*
X113102950Y-70065000D01*
X113321111Y-70043513D01*
X113601034Y-69958599D01*
X113859014Y-69820706D01*
X114085134Y-69635134D01*
X114109607Y-69605313D01*
X114130498Y-69674180D01*
X114189463Y-69784494D01*
X114268815Y-69881185D01*
X114365506Y-69960537D01*
X114475820Y-70019502D01*
X114595518Y-70055812D01*
X114720000Y-70068072D01*
X116420000Y-70068072D01*
X116544482Y-70055812D01*
X116664180Y-70019502D01*
X116774494Y-69960537D01*
X116871185Y-69881185D01*
X116950537Y-69784494D01*
X117009502Y-69674180D01*
X117045812Y-69554482D01*
X117058072Y-69430000D01*
X117058072Y-68580000D01*
X119157815Y-68580000D01*
X119186487Y-68871111D01*
X119271401Y-69151034D01*
X119409294Y-69409014D01*
X119594866Y-69635134D01*
X119820986Y-69820706D01*
X120078966Y-69958599D01*
X120358889Y-70043513D01*
X120577050Y-70065000D01*
X120722950Y-70065000D01*
X120941111Y-70043513D01*
X121221034Y-69958599D01*
X121479014Y-69820706D01*
X121705134Y-69635134D01*
X121890706Y-69409014D01*
X121920000Y-69354209D01*
X121949294Y-69409014D01*
X122134866Y-69635134D01*
X122360986Y-69820706D01*
X122618966Y-69958599D01*
X122898889Y-70043513D01*
X123117050Y-70065000D01*
X123262950Y-70065000D01*
X123481111Y-70043513D01*
X123761034Y-69958599D01*
X124019014Y-69820706D01*
X124245134Y-69635134D01*
X124430706Y-69409014D01*
X124460000Y-69354209D01*
X124489294Y-69409014D01*
X124674866Y-69635134D01*
X124900986Y-69820706D01*
X125158966Y-69958599D01*
X125438889Y-70043513D01*
X125657050Y-70065000D01*
X125802950Y-70065000D01*
X126021111Y-70043513D01*
X126301034Y-69958599D01*
X126559014Y-69820706D01*
X126785134Y-69635134D01*
X126809607Y-69605313D01*
X126830498Y-69674180D01*
X126889463Y-69784494D01*
X126968815Y-69881185D01*
X127065506Y-69960537D01*
X127175820Y-70019502D01*
X127295518Y-70055812D01*
X127420000Y-70068072D01*
X127984250Y-70065000D01*
X128143000Y-69906250D01*
X128143000Y-68707000D01*
X128397000Y-68707000D01*
X128397000Y-69906250D01*
X128555750Y-70065000D01*
X129120000Y-70068072D01*
X129244482Y-70055812D01*
X129364180Y-70019502D01*
X129474494Y-69960537D01*
X129571185Y-69881185D01*
X129650537Y-69784494D01*
X129709502Y-69674180D01*
X129745812Y-69554482D01*
X129758072Y-69430000D01*
X129755000Y-68865750D01*
X129596250Y-68707000D01*
X128397000Y-68707000D01*
X128143000Y-68707000D01*
X128123000Y-68707000D01*
X128123000Y-68453000D01*
X128143000Y-68453000D01*
X128143000Y-67253750D01*
X128397000Y-67253750D01*
X128397000Y-68453000D01*
X129596250Y-68453000D01*
X129755000Y-68294250D01*
X129758072Y-67730000D01*
X129745812Y-67605518D01*
X129709502Y-67485820D01*
X129650537Y-67375506D01*
X129571185Y-67278815D01*
X129474494Y-67199463D01*
X129364180Y-67140498D01*
X129244482Y-67104188D01*
X129120000Y-67091928D01*
X128555750Y-67095000D01*
X128397000Y-67253750D01*
X128143000Y-67253750D01*
X127984250Y-67095000D01*
X127420000Y-67091928D01*
X127295518Y-67104188D01*
X127175820Y-67140498D01*
X127065506Y-67199463D01*
X126968815Y-67278815D01*
X126889463Y-67375506D01*
X126830498Y-67485820D01*
X126809607Y-67554687D01*
X126785134Y-67524866D01*
X126559014Y-67339294D01*
X126301034Y-67201401D01*
X126021111Y-67116487D01*
X125802950Y-67095000D01*
X125657050Y-67095000D01*
X125438889Y-67116487D01*
X125158966Y-67201401D01*
X124900986Y-67339294D01*
X124674866Y-67524866D01*
X124489294Y-67750986D01*
X124460000Y-67805791D01*
X124430706Y-67750986D01*
X124245134Y-67524866D01*
X124019014Y-67339294D01*
X123761034Y-67201401D01*
X123481111Y-67116487D01*
X123262950Y-67095000D01*
X123117050Y-67095000D01*
X122898889Y-67116487D01*
X122618966Y-67201401D01*
X122360986Y-67339294D01*
X122134866Y-67524866D01*
X121949294Y-67750986D01*
X121920000Y-67805791D01*
X121890706Y-67750986D01*
X121705134Y-67524866D01*
X121479014Y-67339294D01*
X121221034Y-67201401D01*
X120941111Y-67116487D01*
X120722950Y-67095000D01*
X120577050Y-67095000D01*
X120358889Y-67116487D01*
X120078966Y-67201401D01*
X119820986Y-67339294D01*
X119594866Y-67524866D01*
X119409294Y-67750986D01*
X119271401Y-68008966D01*
X119186487Y-68288889D01*
X119157815Y-68580000D01*
X117058072Y-68580000D01*
X117058072Y-67730000D01*
X117045812Y-67605518D01*
X117009502Y-67485820D01*
X116950537Y-67375506D01*
X116871185Y-67278815D01*
X116774494Y-67199463D01*
X116664180Y-67140498D01*
X116544482Y-67104188D01*
X116420000Y-67091928D01*
X114720000Y-67091928D01*
X114595518Y-67104188D01*
X114475820Y-67140498D01*
X114365506Y-67199463D01*
X114268815Y-67278815D01*
X114189463Y-67375506D01*
X114130498Y-67485820D01*
X114109607Y-67554687D01*
X114085134Y-67524866D01*
X113859014Y-67339294D01*
X113601034Y-67201401D01*
X113321111Y-67116487D01*
X113102950Y-67095000D01*
X112957050Y-67095000D01*
X112738889Y-67116487D01*
X112458966Y-67201401D01*
X112200986Y-67339294D01*
X111974866Y-67524866D01*
X111789294Y-67750986D01*
X111760000Y-67805791D01*
X111730706Y-67750986D01*
X111545134Y-67524866D01*
X111319014Y-67339294D01*
X111061034Y-67201401D01*
X110781111Y-67116487D01*
X110562950Y-67095000D01*
X110417050Y-67095000D01*
X110198889Y-67116487D01*
X109918966Y-67201401D01*
X109660986Y-67339294D01*
X109434866Y-67524866D01*
X109249294Y-67750986D01*
X109214799Y-67815523D01*
X109145178Y-67698645D01*
X108950269Y-67482412D01*
X108716920Y-67308359D01*
X108454099Y-67183175D01*
X108306890Y-67138524D01*
X108077000Y-67259845D01*
X107823000Y-67259845D01*
X107593110Y-67138524D01*
X107445901Y-67183175D01*
X107183080Y-67308359D01*
X106949731Y-67482412D01*
X106754822Y-67698645D01*
X106685201Y-67815523D01*
X106650706Y-67750986D01*
X106465134Y-67524866D01*
X106239014Y-67339294D01*
X105981034Y-67201401D01*
X105701111Y-67116487D01*
X105482950Y-67095000D01*
X105337050Y-67095000D01*
X105118889Y-67116487D01*
X104838966Y-67201401D01*
X104580986Y-67339294D01*
X104354866Y-67524866D01*
X104169294Y-67750986D01*
X104031401Y-68008966D01*
X103946487Y-68288889D01*
X103917815Y-68580000D01*
X101822185Y-68580000D01*
X101793513Y-68288889D01*
X101708599Y-68008966D01*
X101570706Y-67750986D01*
X101385134Y-67524866D01*
X101159014Y-67339294D01*
X100901034Y-67201401D01*
X100621111Y-67116487D01*
X100402950Y-67095000D01*
X100257050Y-67095000D01*
X100038889Y-67116487D01*
X99758966Y-67201401D01*
X99500986Y-67339294D01*
X99274866Y-67524866D01*
X99089294Y-67750986D01*
X99060000Y-67805791D01*
X99030706Y-67750986D01*
X98845134Y-67524866D01*
X98619014Y-67339294D01*
X98361034Y-67201401D01*
X98081111Y-67116487D01*
X97862950Y-67095000D01*
X97717050Y-67095000D01*
X97498889Y-67116487D01*
X97218966Y-67201401D01*
X96960986Y-67339294D01*
X96734866Y-67524866D01*
X96549294Y-67750986D01*
X96520000Y-67805791D01*
X96490706Y-67750986D01*
X96305134Y-67524866D01*
X96079014Y-67339294D01*
X95821034Y-67201401D01*
X95541111Y-67116487D01*
X95322950Y-67095000D01*
X95177050Y-67095000D01*
X94958889Y-67116487D01*
X94678966Y-67201401D01*
X94420986Y-67339294D01*
X94194866Y-67524866D01*
X94009294Y-67750986D01*
X93980000Y-67805791D01*
X93950706Y-67750986D01*
X93765134Y-67524866D01*
X93539014Y-67339294D01*
X93281034Y-67201401D01*
X93001111Y-67116487D01*
X92782950Y-67095000D01*
X92637050Y-67095000D01*
X92418889Y-67116487D01*
X92138966Y-67201401D01*
X91880986Y-67339294D01*
X91654866Y-67524866D01*
X91469294Y-67750986D01*
X91440000Y-67805791D01*
X91410706Y-67750986D01*
X91225134Y-67524866D01*
X90999014Y-67339294D01*
X90741034Y-67201401D01*
X90461111Y-67116487D01*
X90242950Y-67095000D01*
X90097050Y-67095000D01*
X89878889Y-67116487D01*
X89598966Y-67201401D01*
X89340986Y-67339294D01*
X89114866Y-67524866D01*
X88929294Y-67750986D01*
X88900000Y-67805791D01*
X88870706Y-67750986D01*
X88685134Y-67524866D01*
X88459014Y-67339294D01*
X88201034Y-67201401D01*
X87921111Y-67116487D01*
X87702950Y-67095000D01*
X87557050Y-67095000D01*
X87338889Y-67116487D01*
X87058966Y-67201401D01*
X86800986Y-67339294D01*
X86574866Y-67524866D01*
X86389294Y-67750986D01*
X86360000Y-67805791D01*
X86330706Y-67750986D01*
X86145134Y-67524866D01*
X85919014Y-67339294D01*
X85661034Y-67201401D01*
X85381111Y-67116487D01*
X85162950Y-67095000D01*
X85017050Y-67095000D01*
X84798889Y-67116487D01*
X84518966Y-67201401D01*
X84260986Y-67339294D01*
X84034866Y-67524866D01*
X83849294Y-67750986D01*
X83820000Y-67805791D01*
X83790706Y-67750986D01*
X83605134Y-67524866D01*
X83379014Y-67339294D01*
X83121034Y-67201401D01*
X82841111Y-67116487D01*
X82622950Y-67095000D01*
X82477050Y-67095000D01*
X82258889Y-67116487D01*
X81978966Y-67201401D01*
X81720986Y-67339294D01*
X81494866Y-67524866D01*
X81309294Y-67750986D01*
X81280000Y-67805791D01*
X81250706Y-67750986D01*
X81065134Y-67524866D01*
X80839014Y-67339294D01*
X80581034Y-67201401D01*
X80301111Y-67116487D01*
X80082950Y-67095000D01*
X79937050Y-67095000D01*
X79718889Y-67116487D01*
X79438966Y-67201401D01*
X79180986Y-67339294D01*
X78954866Y-67524866D01*
X78769294Y-67750986D01*
X78740000Y-67805791D01*
X78710706Y-67750986D01*
X78525134Y-67524866D01*
X78299014Y-67339294D01*
X78041034Y-67201401D01*
X77761111Y-67116487D01*
X77542950Y-67095000D01*
X77397050Y-67095000D01*
X77178889Y-67116487D01*
X76898966Y-67201401D01*
X76640986Y-67339294D01*
X76414866Y-67524866D01*
X76229294Y-67750986D01*
X76194799Y-67815523D01*
X76125178Y-67698645D01*
X75930269Y-67482412D01*
X75696920Y-67308359D01*
X75434099Y-67183175D01*
X75286890Y-67138524D01*
X75057000Y-67259845D01*
X75057000Y-68453000D01*
X75077000Y-68453000D01*
X75077000Y-68707000D01*
X75057000Y-68707000D01*
X75057000Y-69900155D01*
X75286890Y-70021476D01*
X75434099Y-69976825D01*
X75696920Y-69851641D01*
X75930269Y-69677588D01*
X76125178Y-69461355D01*
X76194799Y-69344477D01*
X76229294Y-69409014D01*
X76414866Y-69635134D01*
X76640986Y-69820706D01*
X76898966Y-69958599D01*
X77178889Y-70043513D01*
X77397050Y-70065000D01*
X77542950Y-70065000D01*
X77761111Y-70043513D01*
X78041034Y-69958599D01*
X78299014Y-69820706D01*
X78525134Y-69635134D01*
X78710706Y-69409014D01*
X78740000Y-69354209D01*
X78769294Y-69409014D01*
X78954866Y-69635134D01*
X79180986Y-69820706D01*
X79273400Y-69870102D01*
X79273401Y-80974889D01*
X76454000Y-83794291D01*
X76454000Y-83669899D01*
X76395434Y-83375466D01*
X76280551Y-83098115D01*
X76113768Y-82848507D01*
X75901493Y-82636232D01*
X75772438Y-82550000D01*
X75901493Y-82463768D01*
X76113768Y-82251493D01*
X76280551Y-82001885D01*
X76395434Y-81724534D01*
X76454000Y-81430101D01*
X76454000Y-81129899D01*
X76395434Y-80835466D01*
X76280551Y-80558115D01*
X76113768Y-80308507D01*
X75901493Y-80096232D01*
X75772438Y-80010000D01*
X75901493Y-79923768D01*
X76113768Y-79711493D01*
X76280551Y-79461885D01*
X76395434Y-79184534D01*
X76454000Y-78890101D01*
X76454000Y-78589899D01*
X76395434Y-78295466D01*
X76280551Y-78018115D01*
X76113768Y-77768507D01*
X75901493Y-77556232D01*
X75651885Y-77389449D01*
X75374534Y-77274566D01*
X75080101Y-77216000D01*
X74779899Y-77216000D01*
X74485466Y-77274566D01*
X74208115Y-77389449D01*
X73958507Y-77556232D01*
X73746232Y-77768507D01*
X73579449Y-78018115D01*
X73464566Y-78295466D01*
X73406000Y-78589899D01*
X73406000Y-78890101D01*
X73464566Y-79184534D01*
X73579449Y-79461885D01*
X73746232Y-79711493D01*
X73958507Y-79923768D01*
X74087562Y-80010000D01*
X73958507Y-80096232D01*
X73746232Y-80308507D01*
X73579449Y-80558115D01*
X73464566Y-80835466D01*
X73406000Y-81129899D01*
X73406000Y-81430101D01*
X73464566Y-81724534D01*
X73579449Y-82001885D01*
X73746232Y-82251493D01*
X73958507Y-82463768D01*
X74087562Y-82550000D01*
X73958507Y-82636232D01*
X73746232Y-82848507D01*
X73579449Y-83098115D01*
X73464566Y-83375466D01*
X73406000Y-83669899D01*
X73406000Y-83970101D01*
X73464566Y-84264534D01*
X73579449Y-84541885D01*
X73746232Y-84791493D01*
X73958507Y-85003768D01*
X74087562Y-85090000D01*
X73958507Y-85176232D01*
X73746232Y-85388507D01*
X73579449Y-85638115D01*
X73464566Y-85915466D01*
X73406000Y-86209899D01*
X73406000Y-86510101D01*
X73464566Y-86804534D01*
X73579449Y-87081885D01*
X73746232Y-87331493D01*
X73958507Y-87543768D01*
X74087562Y-87630000D01*
X73958507Y-87716232D01*
X73746232Y-87928507D01*
X73579449Y-88178115D01*
X73464566Y-88455466D01*
X73406000Y-88749899D01*
X73406000Y-89050101D01*
X73464566Y-89344534D01*
X73579449Y-89621885D01*
X73746232Y-89871493D01*
X73958507Y-90083768D01*
X74087562Y-90170000D01*
X73958507Y-90256232D01*
X73746232Y-90468507D01*
X73579449Y-90718115D01*
X73464566Y-90995466D01*
X73406000Y-91289899D01*
X73406000Y-91590101D01*
X73461113Y-91867177D01*
X72465901Y-92862390D01*
X68504100Y-92862390D01*
X67246709Y-91605000D01*
X67380492Y-91605000D01*
X67591309Y-91584236D01*
X67861808Y-91502182D01*
X68111101Y-91368932D01*
X68329608Y-91189608D01*
X68508932Y-90971101D01*
X68642182Y-90721808D01*
X68724236Y-90451309D01*
X68751943Y-90170000D01*
X68724236Y-89888691D01*
X68642182Y-89618192D01*
X68508932Y-89368899D01*
X68329608Y-89150392D01*
X68111101Y-88971068D01*
X67978142Y-88900000D01*
X68111101Y-88828932D01*
X68329608Y-88649608D01*
X68508932Y-88431101D01*
X68642182Y-88181808D01*
X68724236Y-87911309D01*
X68751943Y-87630000D01*
X68724236Y-87348691D01*
X68642182Y-87078192D01*
X68508932Y-86828899D01*
X68329608Y-86610392D01*
X68111101Y-86431068D01*
X67978142Y-86360000D01*
X68111101Y-86288932D01*
X68329608Y-86109608D01*
X68508932Y-85891101D01*
X68642182Y-85641808D01*
X68724236Y-85371309D01*
X68751943Y-85090000D01*
X68724236Y-84808691D01*
X68642182Y-84538192D01*
X68508932Y-84288899D01*
X68329608Y-84070392D01*
X68111101Y-83891068D01*
X67978142Y-83820000D01*
X68111101Y-83748932D01*
X68329608Y-83569608D01*
X68508932Y-83351101D01*
X68642182Y-83101808D01*
X68724236Y-82831309D01*
X68751943Y-82550000D01*
X68724236Y-82268691D01*
X68642182Y-81998192D01*
X68508932Y-81748899D01*
X68329608Y-81530392D01*
X68111101Y-81351068D01*
X67978142Y-81280000D01*
X68111101Y-81208932D01*
X68329608Y-81029608D01*
X68508932Y-80811101D01*
X68642182Y-80561808D01*
X68724236Y-80291309D01*
X68751943Y-80010000D01*
X68724236Y-79728691D01*
X68642182Y-79458192D01*
X68508932Y-79208899D01*
X68329608Y-78990392D01*
X68111101Y-78811068D01*
X67978142Y-78740000D01*
X68111101Y-78668932D01*
X68329608Y-78489608D01*
X68508932Y-78271101D01*
X68642182Y-78021808D01*
X68724236Y-77751309D01*
X68751943Y-77470000D01*
X68724236Y-77188691D01*
X68642182Y-76918192D01*
X68508932Y-76668899D01*
X68329608Y-76450392D01*
X68111101Y-76271068D01*
X67973318Y-76197421D01*
X68165131Y-76082385D01*
X68373519Y-75893414D01*
X68541037Y-75667420D01*
X68661246Y-75413087D01*
X68701904Y-75279039D01*
X68579915Y-75057000D01*
X67437000Y-75057000D01*
X67437000Y-75077000D01*
X67183000Y-75077000D01*
X67183000Y-75057000D01*
X66040085Y-75057000D01*
X65918096Y-75279039D01*
X65958754Y-75413087D01*
X66078963Y-75667420D01*
X66246481Y-75893414D01*
X66454869Y-76082385D01*
X66646682Y-76197421D01*
X66508899Y-76271068D01*
X66290392Y-76450392D01*
X66111068Y-76668899D01*
X65977818Y-76918192D01*
X65895764Y-77188691D01*
X65868057Y-77470000D01*
X65895764Y-77751309D01*
X65977818Y-78021808D01*
X66111068Y-78271101D01*
X66290392Y-78489608D01*
X66508899Y-78668932D01*
X66641858Y-78740000D01*
X66508899Y-78811068D01*
X66290392Y-78990392D01*
X66111068Y-79208899D01*
X65977818Y-79458192D01*
X65895764Y-79728691D01*
X65868057Y-80010000D01*
X65895764Y-80291309D01*
X65977818Y-80561808D01*
X66111068Y-80811101D01*
X66290392Y-81029608D01*
X66508899Y-81208932D01*
X66641858Y-81280000D01*
X66508899Y-81351068D01*
X66290392Y-81530392D01*
X66111068Y-81748899D01*
X65977818Y-81998192D01*
X65895764Y-82268691D01*
X65868057Y-82550000D01*
X65895764Y-82831309D01*
X65977818Y-83101808D01*
X66111068Y-83351101D01*
X66290392Y-83569608D01*
X66508899Y-83748932D01*
X66641858Y-83820000D01*
X66508899Y-83891068D01*
X66290392Y-84070392D01*
X66111068Y-84288899D01*
X65977818Y-84538192D01*
X65895764Y-84808691D01*
X65868057Y-85090000D01*
X65895764Y-85371309D01*
X65977818Y-85641808D01*
X66111068Y-85891101D01*
X66290392Y-86109608D01*
X66508899Y-86288932D01*
X66641858Y-86360000D01*
X66508899Y-86431068D01*
X66290392Y-86610392D01*
X66111068Y-86828899D01*
X65977818Y-87078192D01*
X65895764Y-87348691D01*
X65868057Y-87630000D01*
X65895764Y-87911309D01*
X65977818Y-88181808D01*
X66111068Y-88431101D01*
X66290392Y-88649608D01*
X66508899Y-88828932D01*
X66641858Y-88900000D01*
X66508899Y-88971068D01*
X66290392Y-89150392D01*
X66111068Y-89368899D01*
X65977818Y-89618192D01*
X65895764Y-89888691D01*
X65868057Y-90170000D01*
X65874213Y-90232504D01*
X65506600Y-89864891D01*
X65506600Y-82586186D01*
X65510164Y-82550000D01*
X65495942Y-82405601D01*
X65453822Y-82266751D01*
X65385424Y-82138787D01*
X65316442Y-82054732D01*
X65316437Y-82054727D01*
X65293374Y-82026625D01*
X65265273Y-82003564D01*
X61083006Y-77821297D01*
X61104236Y-77751309D01*
X61131943Y-77470000D01*
X61104236Y-77188691D01*
X61022182Y-76918192D01*
X60888932Y-76668899D01*
X60709608Y-76450392D01*
X60596518Y-76357581D01*
X60614482Y-76355812D01*
X60734180Y-76319502D01*
X60844494Y-76260537D01*
X60941185Y-76181185D01*
X61020537Y-76084494D01*
X61079502Y-75974180D01*
X61115812Y-75854482D01*
X61128072Y-75730000D01*
X61128072Y-74580961D01*
X65918096Y-74580961D01*
X66040085Y-74803000D01*
X67183000Y-74803000D01*
X67183000Y-73659376D01*
X67437000Y-73659376D01*
X67437000Y-74803000D01*
X68579915Y-74803000D01*
X68701904Y-74580961D01*
X68661246Y-74446913D01*
X68541037Y-74192580D01*
X68373519Y-73966586D01*
X68165131Y-73777615D01*
X67923881Y-73632930D01*
X67659040Y-73538091D01*
X67437000Y-73659376D01*
X67183000Y-73659376D01*
X66960960Y-73538091D01*
X66696119Y-73632930D01*
X66454869Y-73777615D01*
X66246481Y-73966586D01*
X66078963Y-74192580D01*
X65958754Y-74446913D01*
X65918096Y-74580961D01*
X61128072Y-74580961D01*
X61128072Y-74130000D01*
X61115812Y-74005518D01*
X61079502Y-73885820D01*
X61020537Y-73775506D01*
X60941185Y-73678815D01*
X60844494Y-73599463D01*
X60734180Y-73540498D01*
X60614482Y-73504188D01*
X60490000Y-73491928D01*
X58890000Y-73491928D01*
X58765518Y-73504188D01*
X58645820Y-73540498D01*
X58535506Y-73599463D01*
X58438815Y-73678815D01*
X58359463Y-73775506D01*
X58300498Y-73885820D01*
X58264188Y-74005518D01*
X58263357Y-74013961D01*
X58064759Y-73815363D01*
X57829727Y-73658320D01*
X57568574Y-73550147D01*
X57291335Y-73495000D01*
X57008665Y-73495000D01*
X56731426Y-73550147D01*
X56470273Y-73658320D01*
X56235241Y-73815363D01*
X56035363Y-74015241D01*
X55900000Y-74217827D01*
X55764637Y-74015241D01*
X55564759Y-73815363D01*
X55329727Y-73658320D01*
X55068574Y-73550147D01*
X54791335Y-73495000D01*
X54508665Y-73495000D01*
X54231426Y-73550147D01*
X53970273Y-73658320D01*
X53735241Y-73815363D01*
X53535363Y-74015241D01*
X53378320Y-74250273D01*
X53270147Y-74511426D01*
X53215000Y-74788665D01*
X53215000Y-75071335D01*
X53270147Y-75348574D01*
X53378320Y-75609727D01*
X53535363Y-75844759D01*
X53735241Y-76044637D01*
X53970273Y-76201680D01*
X54231426Y-76309853D01*
X54508665Y-76365000D01*
X54791335Y-76365000D01*
X55068574Y-76309853D01*
X55329727Y-76201680D01*
X55564759Y-76044637D01*
X55764637Y-75844759D01*
X55900000Y-75642173D01*
X56035363Y-75844759D01*
X56235241Y-76044637D01*
X56470273Y-76201680D01*
X56731426Y-76309853D01*
X57008665Y-76365000D01*
X57291335Y-76365000D01*
X57568574Y-76309853D01*
X57829727Y-76201680D01*
X58064759Y-76044637D01*
X58263357Y-75846039D01*
X58264188Y-75854482D01*
X58300498Y-75974180D01*
X58359463Y-76084494D01*
X58438815Y-76181185D01*
X58535506Y-76260537D01*
X58645820Y-76319502D01*
X58765518Y-76355812D01*
X58783482Y-76357581D01*
X58670392Y-76450392D01*
X58491068Y-76668899D01*
X58357818Y-76918192D01*
X58275764Y-77188691D01*
X58248057Y-77470000D01*
X58275764Y-77751309D01*
X58357818Y-78021808D01*
X58491068Y-78271101D01*
X58670392Y-78489608D01*
X58888899Y-78668932D01*
X59021858Y-78740000D01*
X58888899Y-78811068D01*
X58670392Y-78990392D01*
X58491068Y-79208899D01*
X58456591Y-79273400D01*
X58383679Y-79273400D01*
X58264637Y-79095241D01*
X58064759Y-78895363D01*
X57829727Y-78738320D01*
X57568574Y-78630147D01*
X57291335Y-78575000D01*
X57008665Y-78575000D01*
X56731426Y-78630147D01*
X56470273Y-78738320D01*
X56235241Y-78895363D01*
X56035363Y-79095241D01*
X55900000Y-79297827D01*
X55764637Y-79095241D01*
X55564759Y-78895363D01*
X55329727Y-78738320D01*
X55068574Y-78630147D01*
X54791335Y-78575000D01*
X54508665Y-78575000D01*
X54231426Y-78630147D01*
X53970273Y-78738320D01*
X53735241Y-78895363D01*
X53535363Y-79095241D01*
X53378320Y-79330273D01*
X53270147Y-79591426D01*
X53215000Y-79868665D01*
X53215000Y-80151335D01*
X53270147Y-80428574D01*
X53378320Y-80689727D01*
X53535363Y-80924759D01*
X53735241Y-81124637D01*
X53970273Y-81281680D01*
X54231426Y-81389853D01*
X54508665Y-81445000D01*
X54791335Y-81445000D01*
X55068574Y-81389853D01*
X55329727Y-81281680D01*
X55564759Y-81124637D01*
X55764637Y-80924759D01*
X55900000Y-80722173D01*
X56035363Y-80924759D01*
X56235241Y-81124637D01*
X56470273Y-81281680D01*
X56731426Y-81389853D01*
X57008665Y-81445000D01*
X57291335Y-81445000D01*
X57568574Y-81389853D01*
X57829727Y-81281680D01*
X58064759Y-81124637D01*
X58264637Y-80924759D01*
X58383679Y-80746600D01*
X58456591Y-80746600D01*
X58491068Y-80811101D01*
X58670392Y-81029608D01*
X58888899Y-81208932D01*
X59021858Y-81280000D01*
X58888899Y-81351068D01*
X58670392Y-81530392D01*
X58491068Y-81748899D01*
X58357818Y-81998192D01*
X58275764Y-82268691D01*
X58248057Y-82550000D01*
X58275764Y-82831309D01*
X58357818Y-83101808D01*
X58491068Y-83351101D01*
X58670392Y-83569608D01*
X58888899Y-83748932D01*
X59021858Y-83820000D01*
X58888899Y-83891068D01*
X58670392Y-84070392D01*
X58491068Y-84288899D01*
X58456591Y-84353400D01*
X58383679Y-84353400D01*
X58264637Y-84175241D01*
X58064759Y-83975363D01*
X57829727Y-83818320D01*
X57568574Y-83710147D01*
X57291335Y-83655000D01*
X57008665Y-83655000D01*
X56731426Y-83710147D01*
X56470273Y-83818320D01*
X56235241Y-83975363D01*
X56035363Y-84175241D01*
X55900000Y-84377827D01*
X55764637Y-84175241D01*
X55564759Y-83975363D01*
X55329727Y-83818320D01*
X55068574Y-83710147D01*
X54791335Y-83655000D01*
X54508665Y-83655000D01*
X54231426Y-83710147D01*
X53970273Y-83818320D01*
X53735241Y-83975363D01*
X53535363Y-84175241D01*
X53378320Y-84410273D01*
X53270147Y-84671426D01*
X53215000Y-84948665D01*
X53215000Y-85231335D01*
X53270147Y-85508574D01*
X53378320Y-85769727D01*
X53535363Y-86004759D01*
X53735241Y-86204637D01*
X53970273Y-86361680D01*
X54231426Y-86469853D01*
X54508665Y-86525000D01*
X54791335Y-86525000D01*
X55068574Y-86469853D01*
X55329727Y-86361680D01*
X55564759Y-86204637D01*
X55764637Y-86004759D01*
X55900000Y-85802173D01*
X56035363Y-86004759D01*
X56235241Y-86204637D01*
X56470273Y-86361680D01*
X56731426Y-86469853D01*
X57008665Y-86525000D01*
X57291335Y-86525000D01*
X57568574Y-86469853D01*
X57829727Y-86361680D01*
X58064759Y-86204637D01*
X58264637Y-86004759D01*
X58383679Y-85826600D01*
X58456591Y-85826600D01*
X58491068Y-85891101D01*
X58670392Y-86109608D01*
X58888899Y-86288932D01*
X59021858Y-86360000D01*
X58888899Y-86431068D01*
X58670392Y-86610392D01*
X58491068Y-86828899D01*
X58357818Y-87078192D01*
X58275764Y-87348691D01*
X58248057Y-87630000D01*
X58275764Y-87911309D01*
X58357818Y-88181808D01*
X58491068Y-88431101D01*
X58670392Y-88649608D01*
X58888899Y-88828932D01*
X59021858Y-88900000D01*
X58888899Y-88971068D01*
X58670392Y-89150392D01*
X58491068Y-89368899D01*
X58357818Y-89618192D01*
X58275764Y-89888691D01*
X58248057Y-90170000D01*
X58275764Y-90451309D01*
X58357818Y-90721808D01*
X58491068Y-90971101D01*
X58670392Y-91189608D01*
X58888899Y-91368932D01*
X59138192Y-91502182D01*
X59408691Y-91584236D01*
X59619508Y-91605000D01*
X59760492Y-91605000D01*
X59971309Y-91584236D01*
X60241808Y-91502182D01*
X60491101Y-91368932D01*
X60709608Y-91189608D01*
X60888932Y-90971101D01*
X61022182Y-90721808D01*
X61104236Y-90451309D01*
X61131943Y-90170000D01*
X61104236Y-89888691D01*
X61022182Y-89618192D01*
X60888932Y-89368899D01*
X60709608Y-89150392D01*
X60491101Y-88971068D01*
X60358142Y-88900000D01*
X60491101Y-88828932D01*
X60709608Y-88649608D01*
X60812511Y-88524220D01*
X67144567Y-94856277D01*
X67167635Y-94884385D01*
X67279797Y-94976434D01*
X67407761Y-95044832D01*
X67530049Y-95081928D01*
X67546611Y-95086952D01*
X67691010Y-95101174D01*
X67727196Y-95097610D01*
X72465901Y-95097610D01*
X73461114Y-96092823D01*
X73406000Y-96369899D01*
X73406000Y-96670101D01*
X73464566Y-96964534D01*
X73579449Y-97241885D01*
X73746232Y-97491493D01*
X73958507Y-97703768D01*
X74087562Y-97790000D01*
X73958507Y-97876232D01*
X73746232Y-98088507D01*
X73579449Y-98338115D01*
X73464566Y-98615466D01*
X73406000Y-98909899D01*
X73406000Y-99210101D01*
X73461113Y-99487177D01*
X70624732Y-102323559D01*
X70596625Y-102346626D01*
X70573559Y-102374732D01*
X70573558Y-102374733D01*
X70504577Y-102458787D01*
X70504576Y-102458788D01*
X70436178Y-102586752D01*
X70394058Y-102725602D01*
X70383400Y-102833814D01*
X70379836Y-102870000D01*
X70383400Y-102906184D01*
X70383400Y-103026590D01*
X70268987Y-103103038D01*
X70083038Y-103288987D01*
X69936939Y-103507641D01*
X69836304Y-103750595D01*
X69785000Y-104008514D01*
X69785000Y-104271486D01*
X69836304Y-104529405D01*
X69936939Y-104772359D01*
X70083038Y-104991013D01*
X70268987Y-105176962D01*
X70487641Y-105323061D01*
X70730595Y-105423696D01*
X70988514Y-105475000D01*
X71251486Y-105475000D01*
X71291188Y-105467103D01*
X70814891Y-105943400D01*
X68543409Y-105943400D01*
X68508932Y-105878899D01*
X68329608Y-105660392D01*
X68111101Y-105481068D01*
X67978142Y-105410000D01*
X68111101Y-105338932D01*
X68329608Y-105159608D01*
X68508932Y-104941101D01*
X68642182Y-104691808D01*
X68724236Y-104421309D01*
X68751943Y-104140000D01*
X68724236Y-103858691D01*
X68642182Y-103588192D01*
X68508932Y-103338899D01*
X68329608Y-103120392D01*
X68111101Y-102941068D01*
X67978142Y-102870000D01*
X68111101Y-102798932D01*
X68329608Y-102619608D01*
X68508932Y-102401101D01*
X68642182Y-102151808D01*
X68724236Y-101881309D01*
X68751943Y-101600000D01*
X68724236Y-101318691D01*
X68642182Y-101048192D01*
X68508932Y-100798899D01*
X68329608Y-100580392D01*
X68111101Y-100401068D01*
X67978142Y-100330000D01*
X68111101Y-100258932D01*
X68329608Y-100079608D01*
X68508932Y-99861101D01*
X68642182Y-99611808D01*
X68724236Y-99341309D01*
X68751943Y-99060000D01*
X68724236Y-98778691D01*
X68642182Y-98508192D01*
X68508932Y-98258899D01*
X68329608Y-98040392D01*
X68111101Y-97861068D01*
X67973318Y-97787421D01*
X68165131Y-97672385D01*
X68373519Y-97483414D01*
X68541037Y-97257420D01*
X68661246Y-97003087D01*
X68701904Y-96869039D01*
X68693274Y-96853330D01*
X69827278Y-96853330D01*
X69917147Y-97099123D01*
X70053241Y-97322660D01*
X70230330Y-97515351D01*
X70441608Y-97669792D01*
X70678956Y-97780047D01*
X70786671Y-97812716D01*
X70993000Y-97689374D01*
X70993000Y-96647000D01*
X71247000Y-96647000D01*
X71247000Y-97689374D01*
X71453329Y-97812716D01*
X71561044Y-97780047D01*
X71798392Y-97669792D01*
X72009670Y-97515351D01*
X72186759Y-97322660D01*
X72322853Y-97099123D01*
X72412722Y-96853330D01*
X72290201Y-96647000D01*
X71247000Y-96647000D01*
X70993000Y-96647000D01*
X69949799Y-96647000D01*
X69827278Y-96853330D01*
X68693274Y-96853330D01*
X68579915Y-96647000D01*
X67437000Y-96647000D01*
X67437000Y-96667000D01*
X67183000Y-96667000D01*
X67183000Y-96647000D01*
X66040085Y-96647000D01*
X66004138Y-96712429D01*
X65462670Y-96170961D01*
X65918096Y-96170961D01*
X66040085Y-96393000D01*
X67183000Y-96393000D01*
X67183000Y-95249376D01*
X67437000Y-95249376D01*
X67437000Y-96393000D01*
X68579915Y-96393000D01*
X68693273Y-96186670D01*
X69827278Y-96186670D01*
X69949799Y-96393000D01*
X70993000Y-96393000D01*
X70993000Y-95350626D01*
X71247000Y-95350626D01*
X71247000Y-96393000D01*
X72290201Y-96393000D01*
X72412722Y-96186670D01*
X72322853Y-95940877D01*
X72186759Y-95717340D01*
X72009670Y-95524649D01*
X71798392Y-95370208D01*
X71561044Y-95259953D01*
X71453329Y-95227284D01*
X71247000Y-95350626D01*
X70993000Y-95350626D01*
X70786671Y-95227284D01*
X70678956Y-95259953D01*
X70441608Y-95370208D01*
X70230330Y-95524649D01*
X70053241Y-95717340D01*
X69917147Y-95940877D01*
X69827278Y-96186670D01*
X68693273Y-96186670D01*
X68701904Y-96170961D01*
X68661246Y-96036913D01*
X68541037Y-95782580D01*
X68373519Y-95556586D01*
X68165131Y-95367615D01*
X67923881Y-95222930D01*
X67659040Y-95128091D01*
X67437000Y-95249376D01*
X67183000Y-95249376D01*
X66960960Y-95128091D01*
X66696119Y-95222930D01*
X66454869Y-95367615D01*
X66246481Y-95556586D01*
X66078963Y-95782580D01*
X65958754Y-96036913D01*
X65918096Y-96170961D01*
X65462670Y-96170961D01*
X64046446Y-94754737D01*
X64023375Y-94726625D01*
X63911213Y-94634576D01*
X63783249Y-94566178D01*
X63644399Y-94524058D01*
X63536186Y-94513400D01*
X63536183Y-94513400D01*
X63500000Y-94509836D01*
X63463817Y-94513400D01*
X55900102Y-94513400D01*
X55850706Y-94420986D01*
X55665134Y-94194866D01*
X55439014Y-94009294D01*
X55384209Y-93980000D01*
X55439014Y-93950706D01*
X55665134Y-93765134D01*
X55850706Y-93539014D01*
X55988599Y-93281034D01*
X56073513Y-93001111D01*
X56102185Y-92710000D01*
X56073513Y-92418889D01*
X55988599Y-92138966D01*
X55850706Y-91880986D01*
X55665134Y-91654866D01*
X55439014Y-91469294D01*
X55181034Y-91331401D01*
X54901111Y-91246487D01*
X54682950Y-91225000D01*
X54537050Y-91225000D01*
X54318889Y-91246487D01*
X54038966Y-91331401D01*
X53780986Y-91469294D01*
X53554866Y-91654866D01*
X53369294Y-91880986D01*
X53231401Y-92138966D01*
X53146487Y-92418889D01*
X53117815Y-92710000D01*
X52197000Y-92710000D01*
X52197000Y-67730000D01*
X70901928Y-67730000D01*
X70901928Y-69430000D01*
X70914188Y-69554482D01*
X70950498Y-69674180D01*
X71009463Y-69784494D01*
X71088815Y-69881185D01*
X71185506Y-69960537D01*
X71295820Y-70019502D01*
X71415518Y-70055812D01*
X71540000Y-70068072D01*
X73240000Y-70068072D01*
X73364482Y-70055812D01*
X73484180Y-70019502D01*
X73594494Y-69960537D01*
X73691185Y-69881185D01*
X73770537Y-69784494D01*
X73829502Y-69674180D01*
X73853966Y-69593534D01*
X73929731Y-69677588D01*
X74163080Y-69851641D01*
X74425901Y-69976825D01*
X74573110Y-70021476D01*
X74803000Y-69900155D01*
X74803000Y-68707000D01*
X74783000Y-68707000D01*
X74783000Y-68453000D01*
X74803000Y-68453000D01*
X74803000Y-67259845D01*
X74573110Y-67138524D01*
X74425901Y-67183175D01*
X74163080Y-67308359D01*
X73929731Y-67482412D01*
X73853966Y-67566466D01*
X73829502Y-67485820D01*
X73770537Y-67375506D01*
X73691185Y-67278815D01*
X73594494Y-67199463D01*
X73484180Y-67140498D01*
X73364482Y-67104188D01*
X73240000Y-67091928D01*
X71540000Y-67091928D01*
X71415518Y-67104188D01*
X71295820Y-67140498D01*
X71185506Y-67199463D01*
X71088815Y-67278815D01*
X71009463Y-67375506D01*
X70950498Y-67485820D01*
X70914188Y-67605518D01*
X70901928Y-67730000D01*
X52197000Y-67730000D01*
X52197000Y-66687700D01*
X130683000Y-66687700D01*
X130683000Y-122542300D01*
X130683000Y-122542300D01*
G37*
X130683000Y-122542300D02*
X52197000Y-122542300D01*
X52197000Y-120650000D01*
X53117815Y-120650000D01*
X53146487Y-120941111D01*
X53231401Y-121221034D01*
X53369294Y-121479014D01*
X53554866Y-121705134D01*
X53780986Y-121890706D01*
X54038966Y-122028599D01*
X54318889Y-122113513D01*
X54537050Y-122135000D01*
X54682950Y-122135000D01*
X54901111Y-122113513D01*
X55181034Y-122028599D01*
X55439014Y-121890706D01*
X55665134Y-121705134D01*
X55850706Y-121479014D01*
X55885201Y-121414477D01*
X55954822Y-121531355D01*
X56149731Y-121747588D01*
X56383080Y-121921641D01*
X56645901Y-122046825D01*
X56793110Y-122091476D01*
X57023000Y-121970155D01*
X57023000Y-120777000D01*
X57003000Y-120777000D01*
X57003000Y-120523000D01*
X57023000Y-120523000D01*
X57023000Y-119329845D01*
X56793110Y-119208524D01*
X56645901Y-119253175D01*
X56383080Y-119378359D01*
X56149731Y-119552412D01*
X55954822Y-119768645D01*
X55885201Y-119885523D01*
X55850706Y-119820986D01*
X55665134Y-119594866D01*
X55439014Y-119409294D01*
X55181034Y-119271401D01*
X54901111Y-119186487D01*
X54682950Y-119165000D01*
X54537050Y-119165000D01*
X54318889Y-119186487D01*
X54038966Y-119271401D01*
X53780986Y-119409294D01*
X53554866Y-119594866D01*
X53369294Y-119820986D01*
X53231401Y-120078966D01*
X53146487Y-120358889D01*
X53117815Y-120650000D01*
X52197000Y-120650000D01*
X52197000Y-92710000D01*
X53117815Y-92710000D01*
X53146487Y-93001111D01*
X53231401Y-93281034D01*
X53369294Y-93539014D01*
X53554866Y-93765134D01*
X53780986Y-93950706D01*
X53835791Y-93980000D01*
X53780986Y-94009294D01*
X53554866Y-94194866D01*
X53369294Y-94420986D01*
X53231401Y-94678966D01*
X53146487Y-94958889D01*
X53117815Y-95250000D01*
X53146487Y-95541111D01*
X53231401Y-95821034D01*
X53369294Y-96079014D01*
X53554866Y-96305134D01*
X53780986Y-96490706D01*
X53835791Y-96520000D01*
X53780986Y-96549294D01*
X53554866Y-96734866D01*
X53369294Y-96960986D01*
X53231401Y-97218966D01*
X53146487Y-97498889D01*
X53117815Y-97790000D01*
X53146487Y-98081111D01*
X53231401Y-98361034D01*
X53369294Y-98619014D01*
X53554866Y-98845134D01*
X53780986Y-99030706D01*
X53835791Y-99060000D01*
X53780986Y-99089294D01*
X53554866Y-99274866D01*
X53369294Y-99500986D01*
X53231401Y-99758966D01*
X53146487Y-100038889D01*
X53117815Y-100330000D01*
X53146487Y-100621111D01*
X53231401Y-100901034D01*
X53369294Y-101159014D01*
X53554866Y-101385134D01*
X53780986Y-101570706D01*
X53835791Y-101600000D01*
X53780986Y-101629294D01*
X53554866Y-101814866D01*
X53369294Y-102040986D01*
X53231401Y-102298966D01*
X53146487Y-102578889D01*
X53117815Y-102870000D01*
X53146487Y-103161111D01*
X53231401Y-103441034D01*
X53369294Y-103699014D01*
X53554866Y-103925134D01*
X53780986Y-104110706D01*
X53835791Y-104140000D01*
X53780986Y-104169294D01*
X53554866Y-104354866D01*
X53369294Y-104580986D01*
X53231401Y-104838966D01*
X53146487Y-105118889D01*
X53117815Y-105410000D01*
X53146487Y-105701111D01*
X53231401Y-105981034D01*
X53369294Y-106239014D01*
X53554866Y-106465134D01*
X53780986Y-106650706D01*
X53835791Y-106680000D01*
X53780986Y-106709294D01*
X53554866Y-106894866D01*
X53369294Y-107120986D01*
X53231401Y-107378966D01*
X53146487Y-107658889D01*
X53117815Y-107950000D01*
X53146487Y-108241111D01*
X53231401Y-108521034D01*
X53369294Y-108779014D01*
X53554866Y-109005134D01*
X53780986Y-109190706D01*
X53835791Y-109220000D01*
X53780986Y-109249294D01*
X53554866Y-109434866D01*
X53369294Y-109660986D01*
X53231401Y-109918966D01*
X53146487Y-110198889D01*
X53117815Y-110490000D01*
X53146487Y-110781111D01*
X53231401Y-111061034D01*
X53369294Y-111319014D01*
X53554866Y-111545134D01*
X53780986Y-111730706D01*
X53835791Y-111760000D01*
X53780986Y-111789294D01*
X53554866Y-111974866D01*
X53369294Y-112200986D01*
X53231401Y-112458966D01*
X53146487Y-112738889D01*
X53117815Y-113030000D01*
X53146487Y-113321111D01*
X53231401Y-113601034D01*
X53369294Y-113859014D01*
X53554866Y-114085134D01*
X53584687Y-114109607D01*
X53515820Y-114130498D01*
X53405506Y-114189463D01*
X53308815Y-114268815D01*
X53229463Y-114365506D01*
X53170498Y-114475820D01*
X53134188Y-114595518D01*
X53121928Y-114720000D01*
X53121928Y-116420000D01*
X53134188Y-116544482D01*
X53170498Y-116664180D01*
X53229463Y-116774494D01*
X53308815Y-116871185D01*
X53405506Y-116950537D01*
X53515820Y-117009502D01*
X53635518Y-117045812D01*
X53760000Y-117058072D01*
X55460000Y-117058072D01*
X55584482Y-117045812D01*
X55704180Y-117009502D01*
X55814494Y-116950537D01*
X55911185Y-116871185D01*
X55990537Y-116774494D01*
X56049502Y-116664180D01*
X56085812Y-116544482D01*
X56098072Y-116420000D01*
X56098072Y-114720000D01*
X56085812Y-114595518D01*
X56049502Y-114475820D01*
X55990537Y-114365506D01*
X55911185Y-114268815D01*
X55814494Y-114189463D01*
X55704180Y-114130498D01*
X55635313Y-114109607D01*
X55665134Y-114085134D01*
X55850706Y-113859014D01*
X55900102Y-113766600D01*
X58352234Y-113766600D01*
X58275764Y-114018691D01*
X58248057Y-114300000D01*
X58275764Y-114581309D01*
X58357818Y-114851808D01*
X58491068Y-115101101D01*
X58670392Y-115319608D01*
X58888899Y-115498932D01*
X59138192Y-115632182D01*
X59408691Y-115714236D01*
X59619508Y-115735000D01*
X59760492Y-115735000D01*
X59971309Y-115714236D01*
X60241808Y-115632182D01*
X60491101Y-115498932D01*
X60709608Y-115319608D01*
X60888932Y-115101101D01*
X61022182Y-114851808D01*
X61104236Y-114581309D01*
X61112391Y-114498516D01*
X61112391Y-118185899D01*
X60081386Y-119216905D01*
X59981111Y-119186487D01*
X59762950Y-119165000D01*
X59617050Y-119165000D01*
X59398889Y-119186487D01*
X59118966Y-119271401D01*
X58860986Y-119409294D01*
X58634866Y-119594866D01*
X58449294Y-119820986D01*
X58414799Y-119885523D01*
X58345178Y-119768645D01*
X58150269Y-119552412D01*
X57916920Y-119378359D01*
X57654099Y-119253175D01*
X57506890Y-119208524D01*
X57277000Y-119329845D01*
X57277000Y-120523000D01*
X57297000Y-120523000D01*
X57297000Y-120777000D01*
X57277000Y-120777000D01*
X57277000Y-121970155D01*
X57506890Y-122091476D01*
X57654099Y-122046825D01*
X57916920Y-121921641D01*
X58150269Y-121747588D01*
X58345178Y-121531355D01*
X58414799Y-121414477D01*
X58449294Y-121479014D01*
X58634866Y-121705134D01*
X58860986Y-121890706D01*
X59118966Y-122028599D01*
X59398889Y-122113513D01*
X59617050Y-122135000D01*
X59762950Y-122135000D01*
X59981111Y-122113513D01*
X60261034Y-122028599D01*
X60519014Y-121890706D01*
X60745134Y-121705134D01*
X60930706Y-121479014D01*
X60960000Y-121424209D01*
X60989294Y-121479014D01*
X61174866Y-121705134D01*
X61400986Y-121890706D01*
X61658966Y-122028599D01*
X61938889Y-122113513D01*
X62157050Y-122135000D01*
X62302950Y-122135000D01*
X62521111Y-122113513D01*
X62801034Y-122028599D01*
X63059014Y-121890706D01*
X63285134Y-121705134D01*
X63470706Y-121479014D01*
X63500000Y-121424209D01*
X63529294Y-121479014D01*
X63714866Y-121705134D01*
X63940986Y-121890706D01*
X64198966Y-122028599D01*
X64478889Y-122113513D01*
X64697050Y-122135000D01*
X64842950Y-122135000D01*
X65061111Y-122113513D01*
X65341034Y-122028599D01*
X65599014Y-121890706D01*
X65825134Y-121705134D01*
X66010706Y-121479014D01*
X66040000Y-121424209D01*
X66069294Y-121479014D01*
X66254866Y-121705134D01*
X66480986Y-121890706D01*
X66738966Y-122028599D01*
X67018889Y-122113513D01*
X67237050Y-122135000D01*
X67382950Y-122135000D01*
X67601111Y-122113513D01*
X67881034Y-122028599D01*
X68139014Y-121890706D01*
X68365134Y-121705134D01*
X68389607Y-121675313D01*
X68410498Y-121744180D01*
X68469463Y-121854494D01*
X68548815Y-121951185D01*
X68645506Y-122030537D01*
X68755820Y-122089502D01*
X68875518Y-122125812D01*
X69000000Y-122138072D01*
X70700000Y-122138072D01*
X70824482Y-122125812D01*
X70944180Y-122089502D01*
X71054494Y-122030537D01*
X71151185Y-121951185D01*
X71230537Y-121854494D01*
X71289502Y-121744180D01*
X71325812Y-121624482D01*
X71338072Y-121500000D01*
X71338072Y-119800000D01*
X71325812Y-119675518D01*
X71289502Y-119555820D01*
X71230537Y-119445506D01*
X71151185Y-119348815D01*
X71054494Y-119269463D01*
X70944180Y-119210498D01*
X70824482Y-119174188D01*
X70700000Y-119161928D01*
X69000000Y-119161928D01*
X68875518Y-119174188D01*
X68755820Y-119210498D01*
X68645506Y-119269463D01*
X68548815Y-119348815D01*
X68469463Y-119445506D01*
X68410498Y-119555820D01*
X68389607Y-119624687D01*
X68365134Y-119594866D01*
X68139014Y-119409294D01*
X68046600Y-119359898D01*
X68046600Y-118146175D01*
X68050163Y-118109999D01*
X68046600Y-118073823D01*
X68046600Y-118073814D01*
X68035942Y-117965601D01*
X67993822Y-117826751D01*
X67925424Y-117698787D01*
X67833375Y-117586625D01*
X67805269Y-117563559D01*
X67075000Y-116833291D01*
X67075000Y-116738061D01*
X67035226Y-116538102D01*
X66957205Y-116349744D01*
X66843937Y-116180226D01*
X66699774Y-116036063D01*
X66530256Y-115922795D01*
X66341898Y-115844774D01*
X66141939Y-115805000D01*
X65938061Y-115805000D01*
X65738102Y-115844774D01*
X65549744Y-115922795D01*
X65506600Y-115951623D01*
X65506600Y-115875109D01*
X66187489Y-115194221D01*
X66290392Y-115319608D01*
X66508899Y-115498932D01*
X66758192Y-115632182D01*
X67028691Y-115714236D01*
X67239508Y-115735000D01*
X67380492Y-115735000D01*
X67591309Y-115714236D01*
X67861808Y-115632182D01*
X68111101Y-115498932D01*
X68329608Y-115319608D01*
X68508932Y-115101101D01*
X68642182Y-114851808D01*
X68724236Y-114581309D01*
X68751943Y-114300000D01*
X68724236Y-114018691D01*
X68642182Y-113748192D01*
X68508932Y-113498899D01*
X68329608Y-113280392D01*
X68111101Y-113101068D01*
X67973318Y-113027421D01*
X68165131Y-112912385D01*
X68373519Y-112723414D01*
X68541037Y-112497420D01*
X68661246Y-112243087D01*
X68701904Y-112109039D01*
X68579915Y-111887000D01*
X67437000Y-111887000D01*
X67437000Y-111907000D01*
X67183000Y-111907000D01*
X67183000Y-111887000D01*
X66040085Y-111887000D01*
X65918096Y-112109039D01*
X65958754Y-112243087D01*
X66078963Y-112497420D01*
X66246481Y-112723414D01*
X66454869Y-112912385D01*
X66646682Y-113027421D01*
X66508899Y-113101068D01*
X66290392Y-113280392D01*
X66111068Y-113498899D01*
X66076591Y-113563400D01*
X66076175Y-113563400D01*
X66039999Y-113559837D01*
X66003823Y-113563400D01*
X66003814Y-113563400D01*
X65895601Y-113574058D01*
X65756751Y-113616178D01*
X65628787Y-113684576D01*
X65516625Y-113776625D01*
X65493559Y-113804731D01*
X64274732Y-115023559D01*
X64246625Y-115046626D01*
X64223559Y-115074732D01*
X64223558Y-115074733D01*
X64154577Y-115158787D01*
X64154576Y-115158788D01*
X64086178Y-115286752D01*
X64044058Y-115425602D01*
X64036836Y-115498932D01*
X64029836Y-115570000D01*
X64033400Y-115606183D01*
X64033401Y-119359897D01*
X63940986Y-119409294D01*
X63714866Y-119594866D01*
X63529294Y-119820986D01*
X63500000Y-119875791D01*
X63470706Y-119820986D01*
X63285134Y-119594866D01*
X63059014Y-119409294D01*
X62966600Y-119359898D01*
X62966600Y-114605109D01*
X66004138Y-111567571D01*
X66040085Y-111633000D01*
X67183000Y-111633000D01*
X67183000Y-111613000D01*
X67437000Y-111613000D01*
X67437000Y-111633000D01*
X68579915Y-111633000D01*
X68701904Y-111410961D01*
X68661246Y-111276913D01*
X68541037Y-111022580D01*
X68373519Y-110796586D01*
X68165131Y-110607615D01*
X67973318Y-110492579D01*
X68111101Y-110418932D01*
X68329608Y-110239608D01*
X68508932Y-110021101D01*
X68642182Y-109771808D01*
X68724236Y-109501309D01*
X68751943Y-109220000D01*
X68724236Y-108938691D01*
X68642182Y-108668192D01*
X68508932Y-108418899D01*
X68329608Y-108200392D01*
X68111101Y-108021068D01*
X67978142Y-107950000D01*
X68111101Y-107878932D01*
X68329608Y-107699608D01*
X68508932Y-107481101D01*
X68543409Y-107416600D01*
X71083817Y-107416600D01*
X71120000Y-107420164D01*
X71156183Y-107416600D01*
X71156186Y-107416600D01*
X71264399Y-107405942D01*
X71403249Y-107363822D01*
X71531213Y-107295424D01*
X71643375Y-107203375D01*
X71666445Y-107175264D01*
X72885269Y-105956441D01*
X72913375Y-105933375D01*
X73005424Y-105821213D01*
X73073822Y-105693249D01*
X73115942Y-105554399D01*
X73126600Y-105446186D01*
X73126600Y-105446177D01*
X73130163Y-105410001D01*
X73126600Y-105373825D01*
X73126600Y-104445109D01*
X73406000Y-104165709D01*
X73406000Y-104290101D01*
X73464566Y-104584534D01*
X73579449Y-104861885D01*
X73746232Y-105111493D01*
X73958507Y-105323768D01*
X74087562Y-105410000D01*
X73958507Y-105496232D01*
X73746232Y-105708507D01*
X73579449Y-105958115D01*
X73464566Y-106235466D01*
X73406000Y-106529899D01*
X73406000Y-106830101D01*
X73464566Y-107124534D01*
X73579449Y-107401885D01*
X73746232Y-107651493D01*
X73958507Y-107863768D01*
X74087562Y-107950000D01*
X73958507Y-108036232D01*
X73746232Y-108248507D01*
X73579449Y-108498115D01*
X73464566Y-108775466D01*
X73406000Y-109069899D01*
X73406000Y-109370101D01*
X73464566Y-109664534D01*
X73579449Y-109941885D01*
X73746232Y-110191493D01*
X73958507Y-110403768D01*
X74087562Y-110490000D01*
X73958507Y-110576232D01*
X73746232Y-110788507D01*
X73579449Y-111038115D01*
X73464566Y-111315466D01*
X73406000Y-111609899D01*
X73406000Y-111910101D01*
X73464566Y-112204534D01*
X73579449Y-112481885D01*
X73746232Y-112731493D01*
X73958507Y-112943768D01*
X74087562Y-113030000D01*
X73958507Y-113116232D01*
X73746232Y-113328507D01*
X73579449Y-113578115D01*
X73464566Y-113855466D01*
X73406000Y-114149899D01*
X73406000Y-114450101D01*
X73464566Y-114744534D01*
X73579449Y-115021885D01*
X73746232Y-115271493D01*
X73958507Y-115483768D01*
X74208115Y-115650551D01*
X74485466Y-115765434D01*
X74779899Y-115824000D01*
X75080101Y-115824000D01*
X75374534Y-115765434D01*
X75651885Y-115650551D01*
X75901493Y-115483768D01*
X76029030Y-115356231D01*
X99453374Y-115356231D01*
X99535727Y-115609289D01*
X99806418Y-115739086D01*
X100097230Y-115813580D01*
X100396988Y-115829908D01*
X100694171Y-115787443D01*
X100977359Y-115687816D01*
X101124273Y-115609289D01*
X101206626Y-115356231D01*
X100330000Y-114479605D01*
X99453374Y-115356231D01*
X76029030Y-115356231D01*
X76113768Y-115271493D01*
X76280551Y-115021885D01*
X76395434Y-114744534D01*
X76454000Y-114450101D01*
X76454000Y-114366988D01*
X98800092Y-114366988D01*
X98842557Y-114664171D01*
X98942184Y-114947359D01*
X99020711Y-115094273D01*
X99273769Y-115176626D01*
X100150395Y-114300000D01*
X100509605Y-114300000D01*
X101386231Y-115176626D01*
X101639289Y-115094273D01*
X101769086Y-114823582D01*
X101843580Y-114532770D01*
X101859908Y-114233012D01*
X101817443Y-113935829D01*
X101717816Y-113652641D01*
X101639289Y-113505727D01*
X101386231Y-113423374D01*
X100509605Y-114300000D01*
X100150395Y-114300000D01*
X99273769Y-113423374D01*
X99020711Y-113505727D01*
X98890914Y-113776418D01*
X98816420Y-114067230D01*
X98800092Y-114366988D01*
X76454000Y-114366988D01*
X76454000Y-114149899D01*
X76395434Y-113855466D01*
X76280551Y-113578115D01*
X76113768Y-113328507D01*
X75901493Y-113116232D01*
X75772438Y-113030000D01*
X75901493Y-112943768D01*
X76113768Y-112731493D01*
X76280551Y-112481885D01*
X76395434Y-112204534D01*
X76454000Y-111910101D01*
X76454000Y-111609899D01*
X76395434Y-111315466D01*
X76280551Y-111038115D01*
X76113768Y-110788507D01*
X75901493Y-110576232D01*
X75772438Y-110490000D01*
X75901493Y-110403768D01*
X76113768Y-110191493D01*
X76280551Y-109941885D01*
X76395434Y-109664534D01*
X76454000Y-109370101D01*
X76454000Y-109069899D01*
X76395434Y-108775466D01*
X76280551Y-108498115D01*
X76113768Y-108248507D01*
X75901493Y-108036232D01*
X75772438Y-107950000D01*
X75901493Y-107863768D01*
X76113768Y-107651493D01*
X76280551Y-107401885D01*
X76395434Y-107124534D01*
X76454000Y-106830101D01*
X76454000Y-106529899D01*
X76398886Y-106252823D01*
X85585269Y-97066441D01*
X85613375Y-97043375D01*
X85705424Y-96931213D01*
X85773822Y-96803249D01*
X85815942Y-96664399D01*
X85826600Y-96556186D01*
X85830164Y-96520000D01*
X85826600Y-96483814D01*
X85826600Y-69870102D01*
X85919014Y-69820706D01*
X86145134Y-69635134D01*
X86330706Y-69409014D01*
X86360000Y-69354209D01*
X86389294Y-69409014D01*
X86574866Y-69635134D01*
X86800986Y-69820706D01*
X86893400Y-69870102D01*
X86893401Y-96483807D01*
X86889836Y-96520000D01*
X86900533Y-96628599D01*
X86904059Y-96664399D01*
X86946179Y-96803249D01*
X87014577Y-96931213D01*
X87106626Y-97043375D01*
X87134732Y-97066441D01*
X98861113Y-108792823D01*
X98806000Y-109069899D01*
X98806000Y-109370101D01*
X98864566Y-109664534D01*
X98979449Y-109941885D01*
X99146232Y-110191493D01*
X99358507Y-110403768D01*
X99487562Y-110490000D01*
X99358507Y-110576232D01*
X99146232Y-110788507D01*
X98979449Y-111038115D01*
X98864566Y-111315466D01*
X98806000Y-111609899D01*
X98806000Y-111910101D01*
X98864566Y-112204534D01*
X98979449Y-112481885D01*
X99146232Y-112731493D01*
X99358507Y-112943768D01*
X99516622Y-113049417D01*
X99453374Y-113243769D01*
X100330000Y-114120395D01*
X101206626Y-113243769D01*
X101143378Y-113049417D01*
X101301493Y-112943768D01*
X101513768Y-112731493D01*
X101680551Y-112481885D01*
X101795434Y-112204534D01*
X101854000Y-111910101D01*
X101854000Y-111609899D01*
X101795434Y-111315466D01*
X101680551Y-111038115D01*
X101513768Y-110788507D01*
X101301493Y-110576232D01*
X101172438Y-110490000D01*
X101301493Y-110403768D01*
X101513768Y-110191493D01*
X101680551Y-109941885D01*
X101795434Y-109664534D01*
X101854000Y-109370101D01*
X101854000Y-109069899D01*
X101795434Y-108775466D01*
X101680551Y-108498115D01*
X101513768Y-108248507D01*
X101301493Y-108036232D01*
X101172438Y-107950000D01*
X101301493Y-107863768D01*
X101513768Y-107651493D01*
X101680551Y-107401885D01*
X101795434Y-107124534D01*
X101854000Y-106830101D01*
X101854000Y-106529899D01*
X101795434Y-106235466D01*
X101680551Y-105958115D01*
X101513768Y-105708507D01*
X101301493Y-105496232D01*
X101172438Y-105410000D01*
X101301493Y-105323768D01*
X101513768Y-105111493D01*
X101680551Y-104861885D01*
X101795434Y-104584534D01*
X101854000Y-104290101D01*
X101854000Y-103989899D01*
X101795434Y-103695466D01*
X101680551Y-103418115D01*
X101513768Y-103168507D01*
X101301493Y-102956232D01*
X101172438Y-102870000D01*
X101301493Y-102783768D01*
X101513768Y-102571493D01*
X101680551Y-102321885D01*
X101795434Y-102044534D01*
X101854000Y-101750101D01*
X101854000Y-101449899D01*
X101795434Y-101155466D01*
X101680551Y-100878115D01*
X101513768Y-100628507D01*
X101301493Y-100416232D01*
X101172438Y-100330000D01*
X101301493Y-100243768D01*
X101513768Y-100031493D01*
X101680551Y-99781885D01*
X101795434Y-99504534D01*
X101854000Y-99210101D01*
X101854000Y-98909899D01*
X101795434Y-98615466D01*
X101680551Y-98338115D01*
X101513768Y-98088507D01*
X101301493Y-97876232D01*
X101172438Y-97790000D01*
X101301493Y-97703768D01*
X101513768Y-97491493D01*
X101680551Y-97241885D01*
X101795434Y-96964534D01*
X101854000Y-96670101D01*
X101854000Y-96369899D01*
X101795434Y-96075466D01*
X101680551Y-95798115D01*
X101513768Y-95548507D01*
X101301493Y-95336232D01*
X101172438Y-95250000D01*
X101301493Y-95163768D01*
X101513768Y-94951493D01*
X101680551Y-94701885D01*
X101795434Y-94424534D01*
X101854000Y-94130101D01*
X101854000Y-93829899D01*
X101795434Y-93535466D01*
X101680551Y-93258115D01*
X101513768Y-93008507D01*
X101301493Y-92796232D01*
X101172438Y-92710000D01*
X101301493Y-92623768D01*
X101513768Y-92411493D01*
X101680551Y-92161885D01*
X101795434Y-91884534D01*
X101854000Y-91590101D01*
X101854000Y-91289899D01*
X101795434Y-90995466D01*
X101680551Y-90718115D01*
X101513768Y-90468507D01*
X101301493Y-90256232D01*
X101172438Y-90170000D01*
X101301493Y-90083768D01*
X101513768Y-89871493D01*
X101680551Y-89621885D01*
X101795434Y-89344534D01*
X101854000Y-89050101D01*
X101854000Y-88749899D01*
X101798886Y-88472823D01*
X104343511Y-85928199D01*
X110292033Y-85928199D01*
X110236000Y-86209899D01*
X110236000Y-86510101D01*
X110294566Y-86804534D01*
X110409449Y-87081885D01*
X110576232Y-87331493D01*
X110788507Y-87543768D01*
X111038115Y-87710551D01*
X111315466Y-87825434D01*
X111609899Y-87884000D01*
X111910101Y-87884000D01*
X112204534Y-87825434D01*
X112481885Y-87710551D01*
X112731493Y-87543768D01*
X112859030Y-87416231D01*
X113423374Y-87416231D01*
X113505727Y-87669289D01*
X113776418Y-87799086D01*
X114067230Y-87873580D01*
X114366988Y-87889908D01*
X114664171Y-87847443D01*
X114947359Y-87747816D01*
X115094273Y-87669289D01*
X115176626Y-87416231D01*
X114300000Y-86539605D01*
X113423374Y-87416231D01*
X112859030Y-87416231D01*
X112943768Y-87331493D01*
X113049417Y-87173378D01*
X113243769Y-87236626D01*
X114120395Y-86360000D01*
X114106253Y-86345858D01*
X114285858Y-86166253D01*
X114300000Y-86180395D01*
X114314143Y-86166253D01*
X114493748Y-86345858D01*
X114479605Y-86360000D01*
X115356231Y-87236626D01*
X115550583Y-87173378D01*
X115656232Y-87331493D01*
X115868507Y-87543768D01*
X116118115Y-87710551D01*
X116395466Y-87825434D01*
X116689899Y-87884000D01*
X116990101Y-87884000D01*
X117284534Y-87825434D01*
X117561885Y-87710551D01*
X117811493Y-87543768D01*
X117892324Y-87462937D01*
X117901498Y-87493180D01*
X117960463Y-87603494D01*
X118039815Y-87700185D01*
X118136506Y-87779537D01*
X118246820Y-87838502D01*
X118366518Y-87874812D01*
X118491000Y-87887072D01*
X120269000Y-87887072D01*
X120393482Y-87874812D01*
X120513180Y-87838502D01*
X120623494Y-87779537D01*
X120720185Y-87700185D01*
X120799537Y-87603494D01*
X120858502Y-87493180D01*
X120894812Y-87373482D01*
X120907072Y-87249000D01*
X120907072Y-85471000D01*
X120894812Y-85346518D01*
X120858502Y-85226820D01*
X120799537Y-85116506D01*
X120720185Y-85019815D01*
X120623494Y-84940463D01*
X120513180Y-84881498D01*
X120393482Y-84845188D01*
X120269000Y-84832928D01*
X119976008Y-84832928D01*
X119903375Y-84744425D01*
X119875263Y-84721354D01*
X118478646Y-83324737D01*
X118455575Y-83296625D01*
X118343413Y-83204576D01*
X118215449Y-83136178D01*
X118076599Y-83094058D01*
X117968386Y-83083400D01*
X117968383Y-83083400D01*
X117932200Y-83079836D01*
X117896017Y-83083400D01*
X103175109Y-83083400D01*
X101798886Y-81707177D01*
X101854000Y-81430101D01*
X101854000Y-81129899D01*
X101795434Y-80835466D01*
X101680551Y-80558115D01*
X101513768Y-80308507D01*
X101301493Y-80096232D01*
X101172438Y-80010000D01*
X101301493Y-79923768D01*
X101513768Y-79711493D01*
X101670719Y-79476600D01*
X102651928Y-79476600D01*
X102651928Y-79590000D01*
X102664188Y-79714482D01*
X102700498Y-79834180D01*
X102759463Y-79944494D01*
X102838815Y-80041185D01*
X102935506Y-80120537D01*
X103045820Y-80179502D01*
X103165518Y-80215812D01*
X103290000Y-80228072D01*
X104990000Y-80228072D01*
X105114482Y-80215812D01*
X105234180Y-80179502D01*
X105344494Y-80120537D01*
X105441185Y-80041185D01*
X105520537Y-79944494D01*
X105555804Y-79878514D01*
X109155000Y-79878514D01*
X109155000Y-80141486D01*
X109206304Y-80399405D01*
X109306939Y-80642359D01*
X109453038Y-80861013D01*
X109638987Y-81046962D01*
X109857641Y-81193061D01*
X110100595Y-81293696D01*
X110358514Y-81345000D01*
X110621486Y-81345000D01*
X110879405Y-81293696D01*
X111122359Y-81193061D01*
X111341013Y-81046962D01*
X111526962Y-80861013D01*
X111673061Y-80642359D01*
X111760000Y-80432470D01*
X111846939Y-80642359D01*
X111993038Y-80861013D01*
X112178987Y-81046962D01*
X112397641Y-81193061D01*
X112640595Y-81293696D01*
X112898514Y-81345000D01*
X113161486Y-81345000D01*
X113419405Y-81293696D01*
X113662359Y-81193061D01*
X113881013Y-81046962D01*
X114066962Y-80861013D01*
X114213061Y-80642359D01*
X114300000Y-80432470D01*
X114386939Y-80642359D01*
X114533038Y-80861013D01*
X114718987Y-81046962D01*
X114937641Y-81193061D01*
X115180595Y-81293696D01*
X115438514Y-81345000D01*
X115701486Y-81345000D01*
X115959405Y-81293696D01*
X116202359Y-81193061D01*
X116421013Y-81046962D01*
X116606962Y-80861013D01*
X116753061Y-80642359D01*
X116853696Y-80399405D01*
X116905000Y-80141486D01*
X116905000Y-79878514D01*
X116853696Y-79620595D01*
X116753061Y-79377641D01*
X116606962Y-79158987D01*
X116421013Y-78973038D01*
X116202359Y-78826939D01*
X115959405Y-78726304D01*
X115701486Y-78675000D01*
X115438514Y-78675000D01*
X115180595Y-78726304D01*
X114937641Y-78826939D01*
X114718987Y-78973038D01*
X114533038Y-79158987D01*
X114386939Y-79377641D01*
X114300000Y-79587530D01*
X114213061Y-79377641D01*
X114066962Y-79158987D01*
X113881013Y-78973038D01*
X113662359Y-78826939D01*
X113419405Y-78726304D01*
X113161486Y-78675000D01*
X112898514Y-78675000D01*
X112640595Y-78726304D01*
X112397641Y-78826939D01*
X112178987Y-78973038D01*
X111993038Y-79158987D01*
X111846939Y-79377641D01*
X111760000Y-79587530D01*
X111673061Y-79377641D01*
X111526962Y-79158987D01*
X111341013Y-78973038D01*
X111122359Y-78826939D01*
X110879405Y-78726304D01*
X110621486Y-78675000D01*
X110358514Y-78675000D01*
X110100595Y-78726304D01*
X109857641Y-78826939D01*
X109638987Y-78973038D01*
X109453038Y-79158987D01*
X109306939Y-79377641D01*
X109206304Y-79620595D01*
X109155000Y-79878514D01*
X105555804Y-79878514D01*
X105579502Y-79834180D01*
X105615812Y-79714482D01*
X105628072Y-79590000D01*
X105628072Y-77890000D01*
X105615812Y-77765518D01*
X105579502Y-77645820D01*
X105520537Y-77535506D01*
X105441185Y-77438815D01*
X105344494Y-77359463D01*
X105234180Y-77300498D01*
X105165313Y-77279607D01*
X105195134Y-77255134D01*
X105380706Y-77029014D01*
X105518599Y-76771034D01*
X105603513Y-76491111D01*
X105632185Y-76200000D01*
X105603513Y-75908889D01*
X105518599Y-75628966D01*
X105380706Y-75370986D01*
X105195134Y-75144866D01*
X104969014Y-74959294D01*
X104711034Y-74821401D01*
X104431111Y-74736487D01*
X104212950Y-74715000D01*
X104067050Y-74715000D01*
X103848889Y-74736487D01*
X103568966Y-74821401D01*
X103310986Y-74959294D01*
X103084866Y-75144866D01*
X102899294Y-75370986D01*
X102761401Y-75628966D01*
X102676487Y-75908889D01*
X102647815Y-76200000D01*
X102676487Y-76491111D01*
X102761401Y-76771034D01*
X102899294Y-77029014D01*
X103084866Y-77255134D01*
X103114687Y-77279607D01*
X103045820Y-77300498D01*
X102935506Y-77359463D01*
X102838815Y-77438815D01*
X102759463Y-77535506D01*
X102700498Y-77645820D01*
X102664188Y-77765518D01*
X102651928Y-77890000D01*
X102651928Y-78003400D01*
X101670719Y-78003400D01*
X101513768Y-77768507D01*
X101301493Y-77556232D01*
X101051885Y-77389449D01*
X100774534Y-77274566D01*
X100480101Y-77216000D01*
X100179899Y-77216000D01*
X99898199Y-77272033D01*
X99898199Y-76403510D01*
X100825269Y-75476441D01*
X100853375Y-75453375D01*
X100945424Y-75341213D01*
X101013822Y-75213249D01*
X101055942Y-75074399D01*
X101066600Y-74966186D01*
X101070164Y-74930000D01*
X101066600Y-74893814D01*
X101066600Y-72390000D01*
X109148541Y-72390000D01*
X109174317Y-72651706D01*
X109250653Y-72903354D01*
X109374618Y-73135275D01*
X109541445Y-73338555D01*
X109744725Y-73505382D01*
X109976646Y-73629347D01*
X110228294Y-73705683D01*
X110424421Y-73725000D01*
X110555579Y-73725000D01*
X110751706Y-73705683D01*
X111003354Y-73629347D01*
X111235275Y-73505382D01*
X111438555Y-73338555D01*
X111605382Y-73135275D01*
X111729347Y-72903354D01*
X111760000Y-72802304D01*
X111790653Y-72903354D01*
X111914618Y-73135275D01*
X112081445Y-73338555D01*
X112284725Y-73505382D01*
X112516646Y-73629347D01*
X112768294Y-73705683D01*
X112964421Y-73725000D01*
X113095579Y-73725000D01*
X113291706Y-73705683D01*
X113543354Y-73629347D01*
X113775275Y-73505382D01*
X113978555Y-73338555D01*
X114145382Y-73135275D01*
X114269347Y-72903354D01*
X114300000Y-72802304D01*
X114330653Y-72903354D01*
X114454618Y-73135275D01*
X114621445Y-73338555D01*
X114824725Y-73505382D01*
X115056646Y-73629347D01*
X115308294Y-73705683D01*
X115504421Y-73725000D01*
X115635579Y-73725000D01*
X115831706Y-73705683D01*
X115982303Y-73660000D01*
X119157815Y-73660000D01*
X119186487Y-73951111D01*
X119271401Y-74231034D01*
X119409294Y-74489014D01*
X119594866Y-74715134D01*
X119820986Y-74900706D01*
X120078966Y-75038599D01*
X120358889Y-75123513D01*
X120577050Y-75145000D01*
X120722950Y-75145000D01*
X120941111Y-75123513D01*
X121221034Y-75038599D01*
X121479014Y-74900706D01*
X121705134Y-74715134D01*
X121890706Y-74489014D01*
X121920000Y-74434209D01*
X121949294Y-74489014D01*
X122134866Y-74715134D01*
X122360986Y-74900706D01*
X122618966Y-75038599D01*
X122898889Y-75123513D01*
X123117050Y-75145000D01*
X123262950Y-75145000D01*
X123481111Y-75123513D01*
X123761034Y-75038599D01*
X124019014Y-74900706D01*
X124245134Y-74715134D01*
X124430706Y-74489014D01*
X124460000Y-74434209D01*
X124489294Y-74489014D01*
X124674866Y-74715134D01*
X124900986Y-74900706D01*
X125158966Y-75038599D01*
X125438889Y-75123513D01*
X125657050Y-75145000D01*
X125802950Y-75145000D01*
X126021111Y-75123513D01*
X126301034Y-75038599D01*
X126559014Y-74900706D01*
X126785134Y-74715134D01*
X126809607Y-74685313D01*
X126830498Y-74754180D01*
X126889463Y-74864494D01*
X126968815Y-74961185D01*
X127065506Y-75040537D01*
X127175820Y-75099502D01*
X127295518Y-75135812D01*
X127420000Y-75148072D01*
X127984250Y-75145000D01*
X128143000Y-74986250D01*
X128143000Y-73787000D01*
X128397000Y-73787000D01*
X128397000Y-74986250D01*
X128555750Y-75145000D01*
X129120000Y-75148072D01*
X129244482Y-75135812D01*
X129364180Y-75099502D01*
X129474494Y-75040537D01*
X129571185Y-74961185D01*
X129650537Y-74864494D01*
X129709502Y-74754180D01*
X129745812Y-74634482D01*
X129758072Y-74510000D01*
X129755000Y-73945750D01*
X129596250Y-73787000D01*
X128397000Y-73787000D01*
X128143000Y-73787000D01*
X128123000Y-73787000D01*
X128123000Y-73533000D01*
X128143000Y-73533000D01*
X128143000Y-72333750D01*
X128397000Y-72333750D01*
X128397000Y-73533000D01*
X129596250Y-73533000D01*
X129755000Y-73374250D01*
X129758072Y-72810000D01*
X129745812Y-72685518D01*
X129709502Y-72565820D01*
X129650537Y-72455506D01*
X129571185Y-72358815D01*
X129474494Y-72279463D01*
X129364180Y-72220498D01*
X129244482Y-72184188D01*
X129120000Y-72171928D01*
X128555750Y-72175000D01*
X128397000Y-72333750D01*
X128143000Y-72333750D01*
X127984250Y-72175000D01*
X127420000Y-72171928D01*
X127295518Y-72184188D01*
X127175820Y-72220498D01*
X127065506Y-72279463D01*
X126968815Y-72358815D01*
X126889463Y-72455506D01*
X126830498Y-72565820D01*
X126809607Y-72634687D01*
X126785134Y-72604866D01*
X126559014Y-72419294D01*
X126301034Y-72281401D01*
X126021111Y-72196487D01*
X125802950Y-72175000D01*
X125657050Y-72175000D01*
X125438889Y-72196487D01*
X125158966Y-72281401D01*
X124900986Y-72419294D01*
X124674866Y-72604866D01*
X124489294Y-72830986D01*
X124460000Y-72885791D01*
X124430706Y-72830986D01*
X124245134Y-72604866D01*
X124019014Y-72419294D01*
X123761034Y-72281401D01*
X123481111Y-72196487D01*
X123262950Y-72175000D01*
X123117050Y-72175000D01*
X122898889Y-72196487D01*
X122618966Y-72281401D01*
X122360986Y-72419294D01*
X122134866Y-72604866D01*
X121949294Y-72830986D01*
X121920000Y-72885791D01*
X121890706Y-72830986D01*
X121705134Y-72604866D01*
X121479014Y-72419294D01*
X121221034Y-72281401D01*
X120941111Y-72196487D01*
X120722950Y-72175000D01*
X120577050Y-72175000D01*
X120358889Y-72196487D01*
X120078966Y-72281401D01*
X119820986Y-72419294D01*
X119594866Y-72604866D01*
X119409294Y-72830986D01*
X119271401Y-73088966D01*
X119186487Y-73368889D01*
X119157815Y-73660000D01*
X115982303Y-73660000D01*
X116083354Y-73629347D01*
X116315275Y-73505382D01*
X116518555Y-73338555D01*
X116685382Y-73135275D01*
X116809347Y-72903354D01*
X116885683Y-72651706D01*
X116911459Y-72390000D01*
X116885683Y-72128294D01*
X116809347Y-71876646D01*
X116685382Y-71644725D01*
X116518555Y-71441445D01*
X116315275Y-71274618D01*
X116083354Y-71150653D01*
X115831706Y-71074317D01*
X115635579Y-71055000D01*
X115504421Y-71055000D01*
X115308294Y-71074317D01*
X115056646Y-71150653D01*
X114824725Y-71274618D01*
X114621445Y-71441445D01*
X114454618Y-71644725D01*
X114330653Y-71876646D01*
X114300000Y-71977696D01*
X114269347Y-71876646D01*
X114145382Y-71644725D01*
X113978555Y-71441445D01*
X113775275Y-71274618D01*
X113543354Y-71150653D01*
X113291706Y-71074317D01*
X113095579Y-71055000D01*
X112964421Y-71055000D01*
X112768294Y-71074317D01*
X112516646Y-71150653D01*
X112284725Y-71274618D01*
X112081445Y-71441445D01*
X111914618Y-71644725D01*
X111790653Y-71876646D01*
X111760000Y-71977696D01*
X111729347Y-71876646D01*
X111605382Y-71644725D01*
X111438555Y-71441445D01*
X111235275Y-71274618D01*
X111003354Y-71150653D01*
X110751706Y-71074317D01*
X110555579Y-71055000D01*
X110424421Y-71055000D01*
X110228294Y-71074317D01*
X109976646Y-71150653D01*
X109744725Y-71274618D01*
X109541445Y-71441445D01*
X109374618Y-71644725D01*
X109250653Y-71876646D01*
X109174317Y-72128294D01*
X109148541Y-72390000D01*
X101066600Y-72390000D01*
X101066600Y-69870102D01*
X101159014Y-69820706D01*
X101385134Y-69635134D01*
X101570706Y-69409014D01*
X101708599Y-69151034D01*
X101793513Y-68871111D01*
X101822185Y-68580000D01*
X103917815Y-68580000D01*
X103946487Y-68871111D01*
X104031401Y-69151034D01*
X104169294Y-69409014D01*
X104354866Y-69635134D01*
X104580986Y-69820706D01*
X104838966Y-69958599D01*
X105118889Y-70043513D01*
X105337050Y-70065000D01*
X105482950Y-70065000D01*
X105701111Y-70043513D01*
X105981034Y-69958599D01*
X106239014Y-69820706D01*
X106465134Y-69635134D01*
X106650706Y-69409014D01*
X106685201Y-69344477D01*
X106754822Y-69461355D01*
X106949731Y-69677588D01*
X107183080Y-69851641D01*
X107445901Y-69976825D01*
X107593110Y-70021476D01*
X107823000Y-69900155D01*
X107823000Y-68707000D01*
X107803000Y-68707000D01*
X107803000Y-68453000D01*
X107823000Y-68453000D01*
X107823000Y-67259845D01*
X108077000Y-67259845D01*
X108077000Y-68453000D01*
X108097000Y-68453000D01*
X108097000Y-68707000D01*
X108077000Y-68707000D01*
X108077000Y-69900155D01*
X108306890Y-70021476D01*
X108454099Y-69976825D01*
X108716920Y-69851641D01*
X108950269Y-69677588D01*
X109145178Y-69461355D01*
X109214799Y-69344477D01*
X109249294Y-69409014D01*
X109434866Y-69635134D01*
X109660986Y-69820706D01*
X109918966Y-69958599D01*
X110198889Y-70043513D01*
X110417050Y-70065000D01*
X110562950Y-70065000D01*
X110781111Y-70043513D01*
X111061034Y-69958599D01*
X111319014Y-69820706D01*
X111545134Y-69635134D01*
X111730706Y-69409014D01*
X111760000Y-69354209D01*
X111789294Y-69409014D01*
X111974866Y-69635134D01*
X112200986Y-69820706D01*
X112458966Y-69958599D01*
X112738889Y-70043513D01*
X112957050Y-70065000D01*
X113102950Y-70065000D01*
X113321111Y-70043513D01*
X113601034Y-69958599D01*
X113859014Y-69820706D01*
X114085134Y-69635134D01*
X114109607Y-69605313D01*
X114130498Y-69674180D01*
X114189463Y-69784494D01*
X114268815Y-69881185D01*
X114365506Y-69960537D01*
X114475820Y-70019502D01*
X114595518Y-70055812D01*
X114720000Y-70068072D01*
X116420000Y-70068072D01*
X116544482Y-70055812D01*
X116664180Y-70019502D01*
X116774494Y-69960537D01*
X116871185Y-69881185D01*
X116950537Y-69784494D01*
X117009502Y-69674180D01*
X117045812Y-69554482D01*
X117058072Y-69430000D01*
X117058072Y-68580000D01*
X119157815Y-68580000D01*
X119186487Y-68871111D01*
X119271401Y-69151034D01*
X119409294Y-69409014D01*
X119594866Y-69635134D01*
X119820986Y-69820706D01*
X120078966Y-69958599D01*
X120358889Y-70043513D01*
X120577050Y-70065000D01*
X120722950Y-70065000D01*
X120941111Y-70043513D01*
X121221034Y-69958599D01*
X121479014Y-69820706D01*
X121705134Y-69635134D01*
X121890706Y-69409014D01*
X121920000Y-69354209D01*
X121949294Y-69409014D01*
X122134866Y-69635134D01*
X122360986Y-69820706D01*
X122618966Y-69958599D01*
X122898889Y-70043513D01*
X123117050Y-70065000D01*
X123262950Y-70065000D01*
X123481111Y-70043513D01*
X123761034Y-69958599D01*
X124019014Y-69820706D01*
X124245134Y-69635134D01*
X124430706Y-69409014D01*
X124460000Y-69354209D01*
X124489294Y-69409014D01*
X124674866Y-69635134D01*
X124900986Y-69820706D01*
X125158966Y-69958599D01*
X125438889Y-70043513D01*
X125657050Y-70065000D01*
X125802950Y-70065000D01*
X126021111Y-70043513D01*
X126301034Y-69958599D01*
X126559014Y-69820706D01*
X126785134Y-69635134D01*
X126809607Y-69605313D01*
X126830498Y-69674180D01*
X126889463Y-69784494D01*
X126968815Y-69881185D01*
X127065506Y-69960537D01*
X127175820Y-70019502D01*
X127295518Y-70055812D01*
X127420000Y-70068072D01*
X127984250Y-70065000D01*
X128143000Y-69906250D01*
X128143000Y-68707000D01*
X128397000Y-68707000D01*
X128397000Y-69906250D01*
X128555750Y-70065000D01*
X129120000Y-70068072D01*
X129244482Y-70055812D01*
X129364180Y-70019502D01*
X129474494Y-69960537D01*
X129571185Y-69881185D01*
X129650537Y-69784494D01*
X129709502Y-69674180D01*
X129745812Y-69554482D01*
X129758072Y-69430000D01*
X129755000Y-68865750D01*
X129596250Y-68707000D01*
X128397000Y-68707000D01*
X128143000Y-68707000D01*
X128123000Y-68707000D01*
X128123000Y-68453000D01*
X128143000Y-68453000D01*
X128143000Y-67253750D01*
X128397000Y-67253750D01*
X128397000Y-68453000D01*
X129596250Y-68453000D01*
X129755000Y-68294250D01*
X129758072Y-67730000D01*
X129745812Y-67605518D01*
X129709502Y-67485820D01*
X129650537Y-67375506D01*
X129571185Y-67278815D01*
X129474494Y-67199463D01*
X129364180Y-67140498D01*
X129244482Y-67104188D01*
X129120000Y-67091928D01*
X128555750Y-67095000D01*
X128397000Y-67253750D01*
X128143000Y-67253750D01*
X127984250Y-67095000D01*
X127420000Y-67091928D01*
X127295518Y-67104188D01*
X127175820Y-67140498D01*
X127065506Y-67199463D01*
X126968815Y-67278815D01*
X126889463Y-67375506D01*
X126830498Y-67485820D01*
X126809607Y-67554687D01*
X126785134Y-67524866D01*
X126559014Y-67339294D01*
X126301034Y-67201401D01*
X126021111Y-67116487D01*
X125802950Y-67095000D01*
X125657050Y-67095000D01*
X125438889Y-67116487D01*
X125158966Y-67201401D01*
X124900986Y-67339294D01*
X124674866Y-67524866D01*
X124489294Y-67750986D01*
X124460000Y-67805791D01*
X124430706Y-67750986D01*
X124245134Y-67524866D01*
X124019014Y-67339294D01*
X123761034Y-67201401D01*
X123481111Y-67116487D01*
X123262950Y-67095000D01*
X123117050Y-67095000D01*
X122898889Y-67116487D01*
X122618966Y-67201401D01*
X122360986Y-67339294D01*
X122134866Y-67524866D01*
X121949294Y-67750986D01*
X121920000Y-67805791D01*
X121890706Y-67750986D01*
X121705134Y-67524866D01*
X121479014Y-67339294D01*
X121221034Y-67201401D01*
X120941111Y-67116487D01*
X120722950Y-67095000D01*
X120577050Y-67095000D01*
X120358889Y-67116487D01*
X120078966Y-67201401D01*
X119820986Y-67339294D01*
X119594866Y-67524866D01*
X119409294Y-67750986D01*
X119271401Y-68008966D01*
X119186487Y-68288889D01*
X119157815Y-68580000D01*
X117058072Y-68580000D01*
X117058072Y-67730000D01*
X117045812Y-67605518D01*
X117009502Y-67485820D01*
X116950537Y-67375506D01*
X116871185Y-67278815D01*
X116774494Y-67199463D01*
X116664180Y-67140498D01*
X116544482Y-67104188D01*
X116420000Y-67091928D01*
X114720000Y-67091928D01*
X114595518Y-67104188D01*
X114475820Y-67140498D01*
X114365506Y-67199463D01*
X114268815Y-67278815D01*
X114189463Y-67375506D01*
X114130498Y-67485820D01*
X114109607Y-67554687D01*
X114085134Y-67524866D01*
X113859014Y-67339294D01*
X113601034Y-67201401D01*
X113321111Y-67116487D01*
X113102950Y-67095000D01*
X112957050Y-67095000D01*
X112738889Y-67116487D01*
X112458966Y-67201401D01*
X112200986Y-67339294D01*
X111974866Y-67524866D01*
X111789294Y-67750986D01*
X111760000Y-67805791D01*
X111730706Y-67750986D01*
X111545134Y-67524866D01*
X111319014Y-67339294D01*
X111061034Y-67201401D01*
X110781111Y-67116487D01*
X110562950Y-67095000D01*
X110417050Y-67095000D01*
X110198889Y-67116487D01*
X109918966Y-67201401D01*
X109660986Y-67339294D01*
X109434866Y-67524866D01*
X109249294Y-67750986D01*
X109214799Y-67815523D01*
X109145178Y-67698645D01*
X108950269Y-67482412D01*
X108716920Y-67308359D01*
X108454099Y-67183175D01*
X108306890Y-67138524D01*
X108077000Y-67259845D01*
X107823000Y-67259845D01*
X107593110Y-67138524D01*
X107445901Y-67183175D01*
X107183080Y-67308359D01*
X106949731Y-67482412D01*
X106754822Y-67698645D01*
X106685201Y-67815523D01*
X106650706Y-67750986D01*
X106465134Y-67524866D01*
X106239014Y-67339294D01*
X105981034Y-67201401D01*
X105701111Y-67116487D01*
X105482950Y-67095000D01*
X105337050Y-67095000D01*
X105118889Y-67116487D01*
X104838966Y-67201401D01*
X104580986Y-67339294D01*
X104354866Y-67524866D01*
X104169294Y-67750986D01*
X104031401Y-68008966D01*
X103946487Y-68288889D01*
X103917815Y-68580000D01*
X101822185Y-68580000D01*
X101793513Y-68288889D01*
X101708599Y-68008966D01*
X101570706Y-67750986D01*
X101385134Y-67524866D01*
X101159014Y-67339294D01*
X100901034Y-67201401D01*
X100621111Y-67116487D01*
X100402950Y-67095000D01*
X100257050Y-67095000D01*
X100038889Y-67116487D01*
X99758966Y-67201401D01*
X99500986Y-67339294D01*
X99274866Y-67524866D01*
X99089294Y-67750986D01*
X99060000Y-67805791D01*
X99030706Y-67750986D01*
X98845134Y-67524866D01*
X98619014Y-67339294D01*
X98361034Y-67201401D01*
X98081111Y-67116487D01*
X97862950Y-67095000D01*
X97717050Y-67095000D01*
X97498889Y-67116487D01*
X97218966Y-67201401D01*
X96960986Y-67339294D01*
X96734866Y-67524866D01*
X96549294Y-67750986D01*
X96520000Y-67805791D01*
X96490706Y-67750986D01*
X96305134Y-67524866D01*
X96079014Y-67339294D01*
X95821034Y-67201401D01*
X95541111Y-67116487D01*
X95322950Y-67095000D01*
X95177050Y-67095000D01*
X94958889Y-67116487D01*
X94678966Y-67201401D01*
X94420986Y-67339294D01*
X94194866Y-67524866D01*
X94009294Y-67750986D01*
X93980000Y-67805791D01*
X93950706Y-67750986D01*
X93765134Y-67524866D01*
X93539014Y-67339294D01*
X93281034Y-67201401D01*
X93001111Y-67116487D01*
X92782950Y-67095000D01*
X92637050Y-67095000D01*
X92418889Y-67116487D01*
X92138966Y-67201401D01*
X91880986Y-67339294D01*
X91654866Y-67524866D01*
X91469294Y-67750986D01*
X91440000Y-67805791D01*
X91410706Y-67750986D01*
X91225134Y-67524866D01*
X90999014Y-67339294D01*
X90741034Y-67201401D01*
X90461111Y-67116487D01*
X90242950Y-67095000D01*
X90097050Y-67095000D01*
X89878889Y-67116487D01*
X89598966Y-67201401D01*
X89340986Y-67339294D01*
X89114866Y-67524866D01*
X88929294Y-67750986D01*
X88900000Y-67805791D01*
X88870706Y-67750986D01*
X88685134Y-67524866D01*
X88459014Y-67339294D01*
X88201034Y-67201401D01*
X87921111Y-67116487D01*
X87702950Y-67095000D01*
X87557050Y-67095000D01*
X87338889Y-67116487D01*
X87058966Y-67201401D01*
X86800986Y-67339294D01*
X86574866Y-67524866D01*
X86389294Y-67750986D01*
X86360000Y-67805791D01*
X86330706Y-67750986D01*
X86145134Y-67524866D01*
X85919014Y-67339294D01*
X85661034Y-67201401D01*
X85381111Y-67116487D01*
X85162950Y-67095000D01*
X85017050Y-67095000D01*
X84798889Y-67116487D01*
X84518966Y-67201401D01*
X84260986Y-67339294D01*
X84034866Y-67524866D01*
X83849294Y-67750986D01*
X83820000Y-67805791D01*
X83790706Y-67750986D01*
X83605134Y-67524866D01*
X83379014Y-67339294D01*
X83121034Y-67201401D01*
X82841111Y-67116487D01*
X82622950Y-67095000D01*
X82477050Y-67095000D01*
X82258889Y-67116487D01*
X81978966Y-67201401D01*
X81720986Y-67339294D01*
X81494866Y-67524866D01*
X81309294Y-67750986D01*
X81280000Y-67805791D01*
X81250706Y-67750986D01*
X81065134Y-67524866D01*
X80839014Y-67339294D01*
X80581034Y-67201401D01*
X80301111Y-67116487D01*
X80082950Y-67095000D01*
X79937050Y-67095000D01*
X79718889Y-67116487D01*
X79438966Y-67201401D01*
X79180986Y-67339294D01*
X78954866Y-67524866D01*
X78769294Y-67750986D01*
X78740000Y-67805791D01*
X78710706Y-67750986D01*
X78525134Y-67524866D01*
X78299014Y-67339294D01*
X78041034Y-67201401D01*
X77761111Y-67116487D01*
X77542950Y-67095000D01*
X77397050Y-67095000D01*
X77178889Y-67116487D01*
X76898966Y-67201401D01*
X76640986Y-67339294D01*
X76414866Y-67524866D01*
X76229294Y-67750986D01*
X76194799Y-67815523D01*
X76125178Y-67698645D01*
X75930269Y-67482412D01*
X75696920Y-67308359D01*
X75434099Y-67183175D01*
X75286890Y-67138524D01*
X75057000Y-67259845D01*
X75057000Y-68453000D01*
X75077000Y-68453000D01*
X75077000Y-68707000D01*
X75057000Y-68707000D01*
X75057000Y-69900155D01*
X75286890Y-70021476D01*
X75434099Y-69976825D01*
X75696920Y-69851641D01*
X75930269Y-69677588D01*
X76125178Y-69461355D01*
X76194799Y-69344477D01*
X76229294Y-69409014D01*
X76414866Y-69635134D01*
X76640986Y-69820706D01*
X76898966Y-69958599D01*
X77178889Y-70043513D01*
X77397050Y-70065000D01*
X77542950Y-70065000D01*
X77761111Y-70043513D01*
X78041034Y-69958599D01*
X78299014Y-69820706D01*
X78525134Y-69635134D01*
X78710706Y-69409014D01*
X78740000Y-69354209D01*
X78769294Y-69409014D01*
X78954866Y-69635134D01*
X79180986Y-69820706D01*
X79273400Y-69870102D01*
X79273401Y-80974889D01*
X76454000Y-83794291D01*
X76454000Y-83669899D01*
X76395434Y-83375466D01*
X76280551Y-83098115D01*
X76113768Y-82848507D01*
X75901493Y-82636232D01*
X75772438Y-82550000D01*
X75901493Y-82463768D01*
X76113768Y-82251493D01*
X76280551Y-82001885D01*
X76395434Y-81724534D01*
X76454000Y-81430101D01*
X76454000Y-81129899D01*
X76395434Y-80835466D01*
X76280551Y-80558115D01*
X76113768Y-80308507D01*
X75901493Y-80096232D01*
X75772438Y-80010000D01*
X75901493Y-79923768D01*
X76113768Y-79711493D01*
X76280551Y-79461885D01*
X76395434Y-79184534D01*
X76454000Y-78890101D01*
X76454000Y-78589899D01*
X76395434Y-78295466D01*
X76280551Y-78018115D01*
X76113768Y-77768507D01*
X75901493Y-77556232D01*
X75651885Y-77389449D01*
X75374534Y-77274566D01*
X75080101Y-77216000D01*
X74779899Y-77216000D01*
X74485466Y-77274566D01*
X74208115Y-77389449D01*
X73958507Y-77556232D01*
X73746232Y-77768507D01*
X73579449Y-78018115D01*
X73464566Y-78295466D01*
X73406000Y-78589899D01*
X73406000Y-78890101D01*
X73464566Y-79184534D01*
X73579449Y-79461885D01*
X73746232Y-79711493D01*
X73958507Y-79923768D01*
X74087562Y-80010000D01*
X73958507Y-80096232D01*
X73746232Y-80308507D01*
X73579449Y-80558115D01*
X73464566Y-80835466D01*
X73406000Y-81129899D01*
X73406000Y-81430101D01*
X73464566Y-81724534D01*
X73579449Y-82001885D01*
X73746232Y-82251493D01*
X73958507Y-82463768D01*
X74087562Y-82550000D01*
X73958507Y-82636232D01*
X73746232Y-82848507D01*
X73579449Y-83098115D01*
X73464566Y-83375466D01*
X73406000Y-83669899D01*
X73406000Y-83970101D01*
X73464566Y-84264534D01*
X73579449Y-84541885D01*
X73746232Y-84791493D01*
X73958507Y-85003768D01*
X74087562Y-85090000D01*
X73958507Y-85176232D01*
X73746232Y-85388507D01*
X73579449Y-85638115D01*
X73464566Y-85915466D01*
X73406000Y-86209899D01*
X73406000Y-86510101D01*
X73464566Y-86804534D01*
X73579449Y-87081885D01*
X73746232Y-87331493D01*
X73958507Y-87543768D01*
X74087562Y-87630000D01*
X73958507Y-87716232D01*
X73746232Y-87928507D01*
X73579449Y-88178115D01*
X73464566Y-88455466D01*
X73406000Y-88749899D01*
X73406000Y-89050101D01*
X73464566Y-89344534D01*
X73579449Y-89621885D01*
X73746232Y-89871493D01*
X73958507Y-90083768D01*
X74087562Y-90170000D01*
X73958507Y-90256232D01*
X73746232Y-90468507D01*
X73579449Y-90718115D01*
X73464566Y-90995466D01*
X73406000Y-91289899D01*
X73406000Y-91590101D01*
X73461113Y-91867177D01*
X72465901Y-92862390D01*
X68504100Y-92862390D01*
X67246709Y-91605000D01*
X67380492Y-91605000D01*
X67591309Y-91584236D01*
X67861808Y-91502182D01*
X68111101Y-91368932D01*
X68329608Y-91189608D01*
X68508932Y-90971101D01*
X68642182Y-90721808D01*
X68724236Y-90451309D01*
X68751943Y-90170000D01*
X68724236Y-89888691D01*
X68642182Y-89618192D01*
X68508932Y-89368899D01*
X68329608Y-89150392D01*
X68111101Y-88971068D01*
X67978142Y-88900000D01*
X68111101Y-88828932D01*
X68329608Y-88649608D01*
X68508932Y-88431101D01*
X68642182Y-88181808D01*
X68724236Y-87911309D01*
X68751943Y-87630000D01*
X68724236Y-87348691D01*
X68642182Y-87078192D01*
X68508932Y-86828899D01*
X68329608Y-86610392D01*
X68111101Y-86431068D01*
X67978142Y-86360000D01*
X68111101Y-86288932D01*
X68329608Y-86109608D01*
X68508932Y-85891101D01*
X68642182Y-85641808D01*
X68724236Y-85371309D01*
X68751943Y-85090000D01*
X68724236Y-84808691D01*
X68642182Y-84538192D01*
X68508932Y-84288899D01*
X68329608Y-84070392D01*
X68111101Y-83891068D01*
X67978142Y-83820000D01*
X68111101Y-83748932D01*
X68329608Y-83569608D01*
X68508932Y-83351101D01*
X68642182Y-83101808D01*
X68724236Y-82831309D01*
X68751943Y-82550000D01*
X68724236Y-82268691D01*
X68642182Y-81998192D01*
X68508932Y-81748899D01*
X68329608Y-81530392D01*
X68111101Y-81351068D01*
X67978142Y-81280000D01*
X68111101Y-81208932D01*
X68329608Y-81029608D01*
X68508932Y-80811101D01*
X68642182Y-80561808D01*
X68724236Y-80291309D01*
X68751943Y-80010000D01*
X68724236Y-79728691D01*
X68642182Y-79458192D01*
X68508932Y-79208899D01*
X68329608Y-78990392D01*
X68111101Y-78811068D01*
X67978142Y-78740000D01*
X68111101Y-78668932D01*
X68329608Y-78489608D01*
X68508932Y-78271101D01*
X68642182Y-78021808D01*
X68724236Y-77751309D01*
X68751943Y-77470000D01*
X68724236Y-77188691D01*
X68642182Y-76918192D01*
X68508932Y-76668899D01*
X68329608Y-76450392D01*
X68111101Y-76271068D01*
X67973318Y-76197421D01*
X68165131Y-76082385D01*
X68373519Y-75893414D01*
X68541037Y-75667420D01*
X68661246Y-75413087D01*
X68701904Y-75279039D01*
X68579915Y-75057000D01*
X67437000Y-75057000D01*
X67437000Y-75077000D01*
X67183000Y-75077000D01*
X67183000Y-75057000D01*
X66040085Y-75057000D01*
X65918096Y-75279039D01*
X65958754Y-75413087D01*
X66078963Y-75667420D01*
X66246481Y-75893414D01*
X66454869Y-76082385D01*
X66646682Y-76197421D01*
X66508899Y-76271068D01*
X66290392Y-76450392D01*
X66111068Y-76668899D01*
X65977818Y-76918192D01*
X65895764Y-77188691D01*
X65868057Y-77470000D01*
X65895764Y-77751309D01*
X65977818Y-78021808D01*
X66111068Y-78271101D01*
X66290392Y-78489608D01*
X66508899Y-78668932D01*
X66641858Y-78740000D01*
X66508899Y-78811068D01*
X66290392Y-78990392D01*
X66111068Y-79208899D01*
X65977818Y-79458192D01*
X65895764Y-79728691D01*
X65868057Y-80010000D01*
X65895764Y-80291309D01*
X65977818Y-80561808D01*
X66111068Y-80811101D01*
X66290392Y-81029608D01*
X66508899Y-81208932D01*
X66641858Y-81280000D01*
X66508899Y-81351068D01*
X66290392Y-81530392D01*
X66111068Y-81748899D01*
X65977818Y-81998192D01*
X65895764Y-82268691D01*
X65868057Y-82550000D01*
X65895764Y-82831309D01*
X65977818Y-83101808D01*
X66111068Y-83351101D01*
X66290392Y-83569608D01*
X66508899Y-83748932D01*
X66641858Y-83820000D01*
X66508899Y-83891068D01*
X66290392Y-84070392D01*
X66111068Y-84288899D01*
X65977818Y-84538192D01*
X65895764Y-84808691D01*
X65868057Y-85090000D01*
X65895764Y-85371309D01*
X65977818Y-85641808D01*
X66111068Y-85891101D01*
X66290392Y-86109608D01*
X66508899Y-86288932D01*
X66641858Y-86360000D01*
X66508899Y-86431068D01*
X66290392Y-86610392D01*
X66111068Y-86828899D01*
X65977818Y-87078192D01*
X65895764Y-87348691D01*
X65868057Y-87630000D01*
X65895764Y-87911309D01*
X65977818Y-88181808D01*
X66111068Y-88431101D01*
X66290392Y-88649608D01*
X66508899Y-88828932D01*
X66641858Y-88900000D01*
X66508899Y-88971068D01*
X66290392Y-89150392D01*
X66111068Y-89368899D01*
X65977818Y-89618192D01*
X65895764Y-89888691D01*
X65868057Y-90170000D01*
X65874213Y-90232504D01*
X65506600Y-89864891D01*
X65506600Y-82586186D01*
X65510164Y-82550000D01*
X65495942Y-82405601D01*
X65453822Y-82266751D01*
X65385424Y-82138787D01*
X65316442Y-82054732D01*
X65316437Y-82054727D01*
X65293374Y-82026625D01*
X65265273Y-82003564D01*
X61083006Y-77821297D01*
X61104236Y-77751309D01*
X61131943Y-77470000D01*
X61104236Y-77188691D01*
X61022182Y-76918192D01*
X60888932Y-76668899D01*
X60709608Y-76450392D01*
X60596518Y-76357581D01*
X60614482Y-76355812D01*
X60734180Y-76319502D01*
X60844494Y-76260537D01*
X60941185Y-76181185D01*
X61020537Y-76084494D01*
X61079502Y-75974180D01*
X61115812Y-75854482D01*
X61128072Y-75730000D01*
X61128072Y-74580961D01*
X65918096Y-74580961D01*
X66040085Y-74803000D01*
X67183000Y-74803000D01*
X67183000Y-73659376D01*
X67437000Y-73659376D01*
X67437000Y-74803000D01*
X68579915Y-74803000D01*
X68701904Y-74580961D01*
X68661246Y-74446913D01*
X68541037Y-74192580D01*
X68373519Y-73966586D01*
X68165131Y-73777615D01*
X67923881Y-73632930D01*
X67659040Y-73538091D01*
X67437000Y-73659376D01*
X67183000Y-73659376D01*
X66960960Y-73538091D01*
X66696119Y-73632930D01*
X66454869Y-73777615D01*
X66246481Y-73966586D01*
X66078963Y-74192580D01*
X65958754Y-74446913D01*
X65918096Y-74580961D01*
X61128072Y-74580961D01*
X61128072Y-74130000D01*
X61115812Y-74005518D01*
X61079502Y-73885820D01*
X61020537Y-73775506D01*
X60941185Y-73678815D01*
X60844494Y-73599463D01*
X60734180Y-73540498D01*
X60614482Y-73504188D01*
X60490000Y-73491928D01*
X58890000Y-73491928D01*
X58765518Y-73504188D01*
X58645820Y-73540498D01*
X58535506Y-73599463D01*
X58438815Y-73678815D01*
X58359463Y-73775506D01*
X58300498Y-73885820D01*
X58264188Y-74005518D01*
X58263357Y-74013961D01*
X58064759Y-73815363D01*
X57829727Y-73658320D01*
X57568574Y-73550147D01*
X57291335Y-73495000D01*
X57008665Y-73495000D01*
X56731426Y-73550147D01*
X56470273Y-73658320D01*
X56235241Y-73815363D01*
X56035363Y-74015241D01*
X55900000Y-74217827D01*
X55764637Y-74015241D01*
X55564759Y-73815363D01*
X55329727Y-73658320D01*
X55068574Y-73550147D01*
X54791335Y-73495000D01*
X54508665Y-73495000D01*
X54231426Y-73550147D01*
X53970273Y-73658320D01*
X53735241Y-73815363D01*
X53535363Y-74015241D01*
X53378320Y-74250273D01*
X53270147Y-74511426D01*
X53215000Y-74788665D01*
X53215000Y-75071335D01*
X53270147Y-75348574D01*
X53378320Y-75609727D01*
X53535363Y-75844759D01*
X53735241Y-76044637D01*
X53970273Y-76201680D01*
X54231426Y-76309853D01*
X54508665Y-76365000D01*
X54791335Y-76365000D01*
X55068574Y-76309853D01*
X55329727Y-76201680D01*
X55564759Y-76044637D01*
X55764637Y-75844759D01*
X55900000Y-75642173D01*
X56035363Y-75844759D01*
X56235241Y-76044637D01*
X56470273Y-76201680D01*
X56731426Y-76309853D01*
X57008665Y-76365000D01*
X57291335Y-76365000D01*
X57568574Y-76309853D01*
X57829727Y-76201680D01*
X58064759Y-76044637D01*
X58263357Y-75846039D01*
X58264188Y-75854482D01*
X58300498Y-75974180D01*
X58359463Y-76084494D01*
X58438815Y-76181185D01*
X58535506Y-76260537D01*
X58645820Y-76319502D01*
X58765518Y-76355812D01*
X58783482Y-76357581D01*
X58670392Y-76450392D01*
X58491068Y-76668899D01*
X58357818Y-76918192D01*
X58275764Y-77188691D01*
X58248057Y-77470000D01*
X58275764Y-77751309D01*
X58357818Y-78021808D01*
X58491068Y-78271101D01*
X58670392Y-78489608D01*
X58888899Y-78668932D01*
X59021858Y-78740000D01*
X58888899Y-78811068D01*
X58670392Y-78990392D01*
X58491068Y-79208899D01*
X58456591Y-79273400D01*
X58383679Y-79273400D01*
X58264637Y-79095241D01*
X58064759Y-78895363D01*
X57829727Y-78738320D01*
X57568574Y-78630147D01*
X57291335Y-78575000D01*
X57008665Y-78575000D01*
X56731426Y-78630147D01*
X56470273Y-78738320D01*
X56235241Y-78895363D01*
X56035363Y-79095241D01*
X55900000Y-79297827D01*
X55764637Y-79095241D01*
X55564759Y-78895363D01*
X55329727Y-78738320D01*
X55068574Y-78630147D01*
X54791335Y-78575000D01*
X54508665Y-78575000D01*
X54231426Y-78630147D01*
X53970273Y-78738320D01*
X53735241Y-78895363D01*
X53535363Y-79095241D01*
X53378320Y-79330273D01*
X53270147Y-79591426D01*
X53215000Y-79868665D01*
X53215000Y-80151335D01*
X53270147Y-80428574D01*
X53378320Y-80689727D01*
X53535363Y-80924759D01*
X53735241Y-81124637D01*
X53970273Y-81281680D01*
X54231426Y-81389853D01*
X54508665Y-81445000D01*
X54791335Y-81445000D01*
X55068574Y-81389853D01*
X55329727Y-81281680D01*
X55564759Y-81124637D01*
X55764637Y-80924759D01*
X55900000Y-80722173D01*
X56035363Y-80924759D01*
X56235241Y-81124637D01*
X56470273Y-81281680D01*
X56731426Y-81389853D01*
X57008665Y-81445000D01*
X57291335Y-81445000D01*
X57568574Y-81389853D01*
X57829727Y-81281680D01*
X58064759Y-81124637D01*
X58264637Y-80924759D01*
X58383679Y-80746600D01*
X58456591Y-80746600D01*
X58491068Y-80811101D01*
X58670392Y-81029608D01*
X58888899Y-81208932D01*
X59021858Y-81280000D01*
X58888899Y-81351068D01*
X58670392Y-81530392D01*
X58491068Y-81748899D01*
X58357818Y-81998192D01*
X58275764Y-82268691D01*
X58248057Y-82550000D01*
X58275764Y-82831309D01*
X58357818Y-83101808D01*
X58491068Y-83351101D01*
X58670392Y-83569608D01*
X58888899Y-83748932D01*
X59021858Y-83820000D01*
X58888899Y-83891068D01*
X58670392Y-84070392D01*
X58491068Y-84288899D01*
X58456591Y-84353400D01*
X58383679Y-84353400D01*
X58264637Y-84175241D01*
X58064759Y-83975363D01*
X57829727Y-83818320D01*
X57568574Y-83710147D01*
X57291335Y-83655000D01*
X57008665Y-83655000D01*
X56731426Y-83710147D01*
X56470273Y-83818320D01*
X56235241Y-83975363D01*
X56035363Y-84175241D01*
X55900000Y-84377827D01*
X55764637Y-84175241D01*
X55564759Y-83975363D01*
X55329727Y-83818320D01*
X55068574Y-83710147D01*
X54791335Y-83655000D01*
X54508665Y-83655000D01*
X54231426Y-83710147D01*
X53970273Y-83818320D01*
X53735241Y-83975363D01*
X53535363Y-84175241D01*
X53378320Y-84410273D01*
X53270147Y-84671426D01*
X53215000Y-84948665D01*
X53215000Y-85231335D01*
X53270147Y-85508574D01*
X53378320Y-85769727D01*
X53535363Y-86004759D01*
X53735241Y-86204637D01*
X53970273Y-86361680D01*
X54231426Y-86469853D01*
X54508665Y-86525000D01*
X54791335Y-86525000D01*
X55068574Y-86469853D01*
X55329727Y-86361680D01*
X55564759Y-86204637D01*
X55764637Y-86004759D01*
X55900000Y-85802173D01*
X56035363Y-86004759D01*
X56235241Y-86204637D01*
X56470273Y-86361680D01*
X56731426Y-86469853D01*
X57008665Y-86525000D01*
X57291335Y-86525000D01*
X57568574Y-86469853D01*
X57829727Y-86361680D01*
X58064759Y-86204637D01*
X58264637Y-86004759D01*
X58383679Y-85826600D01*
X58456591Y-85826600D01*
X58491068Y-85891101D01*
X58670392Y-86109608D01*
X58888899Y-86288932D01*
X59021858Y-86360000D01*
X58888899Y-86431068D01*
X58670392Y-86610392D01*
X58491068Y-86828899D01*
X58357818Y-87078192D01*
X58275764Y-87348691D01*
X58248057Y-87630000D01*
X58275764Y-87911309D01*
X58357818Y-88181808D01*
X58491068Y-88431101D01*
X58670392Y-88649608D01*
X58888899Y-88828932D01*
X59021858Y-88900000D01*
X58888899Y-88971068D01*
X58670392Y-89150392D01*
X58491068Y-89368899D01*
X58357818Y-89618192D01*
X58275764Y-89888691D01*
X58248057Y-90170000D01*
X58275764Y-90451309D01*
X58357818Y-90721808D01*
X58491068Y-90971101D01*
X58670392Y-91189608D01*
X58888899Y-91368932D01*
X59138192Y-91502182D01*
X59408691Y-91584236D01*
X59619508Y-91605000D01*
X59760492Y-91605000D01*
X59971309Y-91584236D01*
X60241808Y-91502182D01*
X60491101Y-91368932D01*
X60709608Y-91189608D01*
X60888932Y-90971101D01*
X61022182Y-90721808D01*
X61104236Y-90451309D01*
X61131943Y-90170000D01*
X61104236Y-89888691D01*
X61022182Y-89618192D01*
X60888932Y-89368899D01*
X60709608Y-89150392D01*
X60491101Y-88971068D01*
X60358142Y-88900000D01*
X60491101Y-88828932D01*
X60709608Y-88649608D01*
X60812511Y-88524220D01*
X67144567Y-94856277D01*
X67167635Y-94884385D01*
X67279797Y-94976434D01*
X67407761Y-95044832D01*
X67530049Y-95081928D01*
X67546611Y-95086952D01*
X67691010Y-95101174D01*
X67727196Y-95097610D01*
X72465901Y-95097610D01*
X73461114Y-96092823D01*
X73406000Y-96369899D01*
X73406000Y-96670101D01*
X73464566Y-96964534D01*
X73579449Y-97241885D01*
X73746232Y-97491493D01*
X73958507Y-97703768D01*
X74087562Y-97790000D01*
X73958507Y-97876232D01*
X73746232Y-98088507D01*
X73579449Y-98338115D01*
X73464566Y-98615466D01*
X73406000Y-98909899D01*
X73406000Y-99210101D01*
X73461113Y-99487177D01*
X70624732Y-102323559D01*
X70596625Y-102346626D01*
X70573559Y-102374732D01*
X70573558Y-102374733D01*
X70504577Y-102458787D01*
X70504576Y-102458788D01*
X70436178Y-102586752D01*
X70394058Y-102725602D01*
X70383400Y-102833814D01*
X70379836Y-102870000D01*
X70383400Y-102906184D01*
X70383400Y-103026590D01*
X70268987Y-103103038D01*
X70083038Y-103288987D01*
X69936939Y-103507641D01*
X69836304Y-103750595D01*
X69785000Y-104008514D01*
X69785000Y-104271486D01*
X69836304Y-104529405D01*
X69936939Y-104772359D01*
X70083038Y-104991013D01*
X70268987Y-105176962D01*
X70487641Y-105323061D01*
X70730595Y-105423696D01*
X70988514Y-105475000D01*
X71251486Y-105475000D01*
X71291188Y-105467103D01*
X70814891Y-105943400D01*
X68543409Y-105943400D01*
X68508932Y-105878899D01*
X68329608Y-105660392D01*
X68111101Y-105481068D01*
X67978142Y-105410000D01*
X68111101Y-105338932D01*
X68329608Y-105159608D01*
X68508932Y-104941101D01*
X68642182Y-104691808D01*
X68724236Y-104421309D01*
X68751943Y-104140000D01*
X68724236Y-103858691D01*
X68642182Y-103588192D01*
X68508932Y-103338899D01*
X68329608Y-103120392D01*
X68111101Y-102941068D01*
X67978142Y-102870000D01*
X68111101Y-102798932D01*
X68329608Y-102619608D01*
X68508932Y-102401101D01*
X68642182Y-102151808D01*
X68724236Y-101881309D01*
X68751943Y-101600000D01*
X68724236Y-101318691D01*
X68642182Y-101048192D01*
X68508932Y-100798899D01*
X68329608Y-100580392D01*
X68111101Y-100401068D01*
X67978142Y-100330000D01*
X68111101Y-100258932D01*
X68329608Y-100079608D01*
X68508932Y-99861101D01*
X68642182Y-99611808D01*
X68724236Y-99341309D01*
X68751943Y-99060000D01*
X68724236Y-98778691D01*
X68642182Y-98508192D01*
X68508932Y-98258899D01*
X68329608Y-98040392D01*
X68111101Y-97861068D01*
X67973318Y-97787421D01*
X68165131Y-97672385D01*
X68373519Y-97483414D01*
X68541037Y-97257420D01*
X68661246Y-97003087D01*
X68701904Y-96869039D01*
X68693274Y-96853330D01*
X69827278Y-96853330D01*
X69917147Y-97099123D01*
X70053241Y-97322660D01*
X70230330Y-97515351D01*
X70441608Y-97669792D01*
X70678956Y-97780047D01*
X70786671Y-97812716D01*
X70993000Y-97689374D01*
X70993000Y-96647000D01*
X71247000Y-96647000D01*
X71247000Y-97689374D01*
X71453329Y-97812716D01*
X71561044Y-97780047D01*
X71798392Y-97669792D01*
X72009670Y-97515351D01*
X72186759Y-97322660D01*
X72322853Y-97099123D01*
X72412722Y-96853330D01*
X72290201Y-96647000D01*
X71247000Y-96647000D01*
X70993000Y-96647000D01*
X69949799Y-96647000D01*
X69827278Y-96853330D01*
X68693274Y-96853330D01*
X68579915Y-96647000D01*
X67437000Y-96647000D01*
X67437000Y-96667000D01*
X67183000Y-96667000D01*
X67183000Y-96647000D01*
X66040085Y-96647000D01*
X66004138Y-96712429D01*
X65462670Y-96170961D01*
X65918096Y-96170961D01*
X66040085Y-96393000D01*
X67183000Y-96393000D01*
X67183000Y-95249376D01*
X67437000Y-95249376D01*
X67437000Y-96393000D01*
X68579915Y-96393000D01*
X68693273Y-96186670D01*
X69827278Y-96186670D01*
X69949799Y-96393000D01*
X70993000Y-96393000D01*
X70993000Y-95350626D01*
X71247000Y-95350626D01*
X71247000Y-96393000D01*
X72290201Y-96393000D01*
X72412722Y-96186670D01*
X72322853Y-95940877D01*
X72186759Y-95717340D01*
X72009670Y-95524649D01*
X71798392Y-95370208D01*
X71561044Y-95259953D01*
X71453329Y-95227284D01*
X71247000Y-95350626D01*
X70993000Y-95350626D01*
X70786671Y-95227284D01*
X70678956Y-95259953D01*
X70441608Y-95370208D01*
X70230330Y-95524649D01*
X70053241Y-95717340D01*
X69917147Y-95940877D01*
X69827278Y-96186670D01*
X68693273Y-96186670D01*
X68701904Y-96170961D01*
X68661246Y-96036913D01*
X68541037Y-95782580D01*
X68373519Y-95556586D01*
X68165131Y-95367615D01*
X67923881Y-95222930D01*
X67659040Y-95128091D01*
X67437000Y-95249376D01*
X67183000Y-95249376D01*
X66960960Y-95128091D01*
X66696119Y-95222930D01*
X66454869Y-95367615D01*
X66246481Y-95556586D01*
X66078963Y-95782580D01*
X65958754Y-96036913D01*
X65918096Y-96170961D01*
X65462670Y-96170961D01*
X64046446Y-94754737D01*
X64023375Y-94726625D01*
X63911213Y-94634576D01*
X63783249Y-94566178D01*
X63644399Y-94524058D01*
X63536186Y-94513400D01*
X63536183Y-94513400D01*
X63500000Y-94509836D01*
X63463817Y-94513400D01*
X55900102Y-94513400D01*
X55850706Y-94420986D01*
X55665134Y-94194866D01*
X55439014Y-94009294D01*
X55384209Y-93980000D01*
X55439014Y-93950706D01*
X55665134Y-93765134D01*
X55850706Y-93539014D01*
X55988599Y-93281034D01*
X56073513Y-93001111D01*
X56102185Y-92710000D01*
X56073513Y-92418889D01*
X55988599Y-92138966D01*
X55850706Y-91880986D01*
X55665134Y-91654866D01*
X55439014Y-91469294D01*
X55181034Y-91331401D01*
X54901111Y-91246487D01*
X54682950Y-91225000D01*
X54537050Y-91225000D01*
X54318889Y-91246487D01*
X54038966Y-91331401D01*
X53780986Y-91469294D01*
X53554866Y-91654866D01*
X53369294Y-91880986D01*
X53231401Y-92138966D01*
X53146487Y-92418889D01*
X53117815Y-92710000D01*
X52197000Y-92710000D01*
X52197000Y-67730000D01*
X70901928Y-67730000D01*
X70901928Y-69430000D01*
X70914188Y-69554482D01*
X70950498Y-69674180D01*
X71009463Y-69784494D01*
X71088815Y-69881185D01*
X71185506Y-69960537D01*
X71295820Y-70019502D01*
X71415518Y-70055812D01*
X71540000Y-70068072D01*
X73240000Y-70068072D01*
X73364482Y-70055812D01*
X73484180Y-70019502D01*
X73594494Y-69960537D01*
X73691185Y-69881185D01*
X73770537Y-69784494D01*
X73829502Y-69674180D01*
X73853966Y-69593534D01*
X73929731Y-69677588D01*
X74163080Y-69851641D01*
X74425901Y-69976825D01*
X74573110Y-70021476D01*
X74803000Y-69900155D01*
X74803000Y-68707000D01*
X74783000Y-68707000D01*
X74783000Y-68453000D01*
X74803000Y-68453000D01*
X74803000Y-67259845D01*
X74573110Y-67138524D01*
X74425901Y-67183175D01*
X74163080Y-67308359D01*
X73929731Y-67482412D01*
X73853966Y-67566466D01*
X73829502Y-67485820D01*
X73770537Y-67375506D01*
X73691185Y-67278815D01*
X73594494Y-67199463D01*
X73484180Y-67140498D01*
X73364482Y-67104188D01*
X73240000Y-67091928D01*
X71540000Y-67091928D01*
X71415518Y-67104188D01*
X71295820Y-67140498D01*
X71185506Y-67199463D01*
X71088815Y-67278815D01*
X71009463Y-67375506D01*
X70950498Y-67485820D01*
X70914188Y-67605518D01*
X70901928Y-67730000D01*
X52197000Y-67730000D01*
X52197000Y-66687700D01*
X130683000Y-66687700D01*
X130683000Y-122542300D01*
M02*
