G04 #@! TF.GenerationSoftware,KiCad,Pcbnew,(5.1.4)-1*
G04 #@! TF.CreationDate,2019-10-22T17:15:33+13:00*
G04 #@! TF.ProjectId,SprinklerPCB,53707269-6e6b-46c6-9572-5043422e6b69,rev?*
G04 #@! TF.SameCoordinates,Original*
G04 #@! TF.FileFunction,Legend,Top*
G04 #@! TF.FilePolarity,Positive*
%FSLAX46Y46*%
G04 Gerber Fmt 4.6, Leading zero omitted, Abs format (unit mm)*
G04 Created by KiCad (PCBNEW (5.1.4)-1) date 2019-10-22 17:15:33*
%MOMM*%
%LPD*%
G04 APERTURE LIST*
%ADD10C,0.300000*%
%ADD11C,0.025400*%
%ADD12C,0.120000*%
%ADD13C,0.100000*%
%ADD14C,0.150000*%
G04 APERTURE END LIST*
D10*
X167465714Y-117090000D02*
X168180000Y-117090000D01*
X167322857Y-117518571D02*
X167822857Y-116018571D01*
X168322857Y-117518571D01*
X169680000Y-117375714D02*
X169608571Y-117447142D01*
X169394285Y-117518571D01*
X169251428Y-117518571D01*
X169037142Y-117447142D01*
X168894285Y-117304285D01*
X168822857Y-117161428D01*
X168751428Y-116875714D01*
X168751428Y-116661428D01*
X168822857Y-116375714D01*
X168894285Y-116232857D01*
X169037142Y-116090000D01*
X169251428Y-116018571D01*
X169394285Y-116018571D01*
X169608571Y-116090000D01*
X169680000Y-116161428D01*
X171465714Y-117518571D02*
X171465714Y-116018571D01*
X172180000Y-116518571D02*
X172180000Y-117518571D01*
X172180000Y-116661428D02*
X172251428Y-116590000D01*
X172394285Y-116518571D01*
X172608571Y-116518571D01*
X172751428Y-116590000D01*
X172822857Y-116732857D01*
X172822857Y-117518571D01*
X46882857Y-114035714D02*
X46882857Y-113535714D01*
X47668571Y-113321428D02*
X47668571Y-114035714D01*
X46168571Y-114035714D01*
X46168571Y-113321428D01*
X47597142Y-112750000D02*
X47668571Y-112535714D01*
X47668571Y-112178571D01*
X47597142Y-112035714D01*
X47525714Y-111964285D01*
X47382857Y-111892857D01*
X47240000Y-111892857D01*
X47097142Y-111964285D01*
X47025714Y-112035714D01*
X46954285Y-112178571D01*
X46882857Y-112464285D01*
X46811428Y-112607142D01*
X46740000Y-112678571D01*
X46597142Y-112750000D01*
X46454285Y-112750000D01*
X46311428Y-112678571D01*
X46240000Y-112607142D01*
X46168571Y-112464285D01*
X46168571Y-112107142D01*
X46240000Y-111892857D01*
X46668571Y-111250000D02*
X48168571Y-111250000D01*
X46740000Y-111250000D02*
X46668571Y-111107142D01*
X46668571Y-110821428D01*
X46740000Y-110678571D01*
X46811428Y-110607142D01*
X46954285Y-110535714D01*
X47382857Y-110535714D01*
X47525714Y-110607142D01*
X47597142Y-110678571D01*
X47668571Y-110821428D01*
X47668571Y-111107142D01*
X47597142Y-111250000D01*
X47668571Y-109892857D02*
X46668571Y-109892857D01*
X46954285Y-109892857D02*
X46811428Y-109821428D01*
X46740000Y-109750000D01*
X46668571Y-109607142D01*
X46668571Y-109464285D01*
X47668571Y-108964285D02*
X46668571Y-108964285D01*
X46168571Y-108964285D02*
X46240000Y-109035714D01*
X46311428Y-108964285D01*
X46240000Y-108892857D01*
X46168571Y-108964285D01*
X46311428Y-108964285D01*
X46668571Y-108250000D02*
X47668571Y-108250000D01*
X46811428Y-108250000D02*
X46740000Y-108178571D01*
X46668571Y-108035714D01*
X46668571Y-107821428D01*
X46740000Y-107678571D01*
X46882857Y-107607142D01*
X47668571Y-107607142D01*
X47668571Y-106892857D02*
X46168571Y-106892857D01*
X47097142Y-106750000D02*
X47668571Y-106321428D01*
X46668571Y-106321428D02*
X47240000Y-106892857D01*
X47668571Y-105464285D02*
X47597142Y-105607142D01*
X47454285Y-105678571D01*
X46168571Y-105678571D01*
X47597142Y-104321428D02*
X47668571Y-104464285D01*
X47668571Y-104750000D01*
X47597142Y-104892857D01*
X47454285Y-104964285D01*
X46882857Y-104964285D01*
X46740000Y-104892857D01*
X46668571Y-104750000D01*
X46668571Y-104464285D01*
X46740000Y-104321428D01*
X46882857Y-104250000D01*
X47025714Y-104250000D01*
X47168571Y-104964285D01*
X47668571Y-103607142D02*
X46668571Y-103607142D01*
X46954285Y-103607142D02*
X46811428Y-103535714D01*
X46740000Y-103464285D01*
X46668571Y-103321428D01*
X46668571Y-103178571D01*
X46168571Y-101750000D02*
X47668571Y-101250000D01*
X46168571Y-100750000D01*
X47668571Y-99464285D02*
X47668571Y-100321428D01*
X47668571Y-99892857D02*
X46168571Y-99892857D01*
X46382857Y-100035714D01*
X46525714Y-100178571D01*
X46597142Y-100321428D01*
X46168571Y-97250000D02*
X47240000Y-97250000D01*
X47454285Y-97321428D01*
X47597142Y-97464285D01*
X47668571Y-97678571D01*
X47668571Y-97821428D01*
X47668571Y-96321428D02*
X47597142Y-96464285D01*
X47525714Y-96535714D01*
X47382857Y-96607142D01*
X46954285Y-96607142D01*
X46811428Y-96535714D01*
X46740000Y-96464285D01*
X46668571Y-96321428D01*
X46668571Y-96107142D01*
X46740000Y-95964285D01*
X46811428Y-95892857D01*
X46954285Y-95821428D01*
X47382857Y-95821428D01*
X47525714Y-95892857D01*
X47597142Y-95964285D01*
X47668571Y-96107142D01*
X47668571Y-96321428D01*
X47597142Y-94607142D02*
X47668571Y-94750000D01*
X47668571Y-95035714D01*
X47597142Y-95178571D01*
X47454285Y-95250000D01*
X46882857Y-95250000D01*
X46740000Y-95178571D01*
X46668571Y-95035714D01*
X46668571Y-94750000D01*
X46740000Y-94607142D01*
X46882857Y-94535714D01*
X47025714Y-94535714D01*
X47168571Y-95250000D01*
X47668571Y-93678571D02*
X47597142Y-93821428D01*
X47454285Y-93892857D01*
X46168571Y-93892857D01*
X47668571Y-91964285D02*
X46168571Y-91964285D01*
X47240000Y-91464285D01*
X46168571Y-90964285D01*
X47668571Y-90964285D01*
X47597142Y-89607142D02*
X47668571Y-89750000D01*
X47668571Y-90035714D01*
X47597142Y-90178571D01*
X47525714Y-90250000D01*
X47382857Y-90321428D01*
X46954285Y-90321428D01*
X46811428Y-90250000D01*
X46740000Y-90178571D01*
X46668571Y-90035714D01*
X46668571Y-89750000D01*
X46740000Y-89607142D01*
X46882857Y-88464285D02*
X46954285Y-88250000D01*
X47025714Y-88178571D01*
X47168571Y-88107142D01*
X47382857Y-88107142D01*
X47525714Y-88178571D01*
X47597142Y-88250000D01*
X47668571Y-88392857D01*
X47668571Y-88964285D01*
X46168571Y-88964285D01*
X46168571Y-88464285D01*
X46240000Y-88321428D01*
X46311428Y-88250000D01*
X46454285Y-88178571D01*
X46597142Y-88178571D01*
X46740000Y-88250000D01*
X46811428Y-88321428D01*
X46882857Y-88464285D01*
X46882857Y-88964285D01*
X47668571Y-87464285D02*
X46668571Y-87464285D01*
X46954285Y-87464285D02*
X46811428Y-87392857D01*
X46740000Y-87321428D01*
X46668571Y-87178571D01*
X46668571Y-87035714D01*
X47597142Y-85964285D02*
X47668571Y-86107142D01*
X47668571Y-86392857D01*
X47597142Y-86535714D01*
X47454285Y-86607142D01*
X46882857Y-86607142D01*
X46740000Y-86535714D01*
X46668571Y-86392857D01*
X46668571Y-86107142D01*
X46740000Y-85964285D01*
X46882857Y-85892857D01*
X47025714Y-85892857D01*
X47168571Y-86607142D01*
X47597142Y-84678571D02*
X47668571Y-84821428D01*
X47668571Y-85107142D01*
X47597142Y-85250000D01*
X47454285Y-85321428D01*
X46882857Y-85321428D01*
X46740000Y-85250000D01*
X46668571Y-85107142D01*
X46668571Y-84821428D01*
X46740000Y-84678571D01*
X46882857Y-84607142D01*
X47025714Y-84607142D01*
X47168571Y-85321428D01*
X46668571Y-83964285D02*
X47668571Y-83964285D01*
X46811428Y-83964285D02*
X46740000Y-83892857D01*
X46668571Y-83750000D01*
X46668571Y-83535714D01*
X46740000Y-83392857D01*
X46882857Y-83321428D01*
X47668571Y-83321428D01*
X46311428Y-81535714D02*
X46240000Y-81464285D01*
X46168571Y-81321428D01*
X46168571Y-80964285D01*
X46240000Y-80821428D01*
X46311428Y-80750000D01*
X46454285Y-80678571D01*
X46597142Y-80678571D01*
X46811428Y-80750000D01*
X47668571Y-81607142D01*
X47668571Y-80678571D01*
X46168571Y-79750000D02*
X46168571Y-79607142D01*
X46240000Y-79464285D01*
X46311428Y-79392857D01*
X46454285Y-79321428D01*
X46740000Y-79250000D01*
X47097142Y-79250000D01*
X47382857Y-79321428D01*
X47525714Y-79392857D01*
X47597142Y-79464285D01*
X47668571Y-79607142D01*
X47668571Y-79750000D01*
X47597142Y-79892857D01*
X47525714Y-79964285D01*
X47382857Y-80035714D01*
X47097142Y-80107142D01*
X46740000Y-80107142D01*
X46454285Y-80035714D01*
X46311428Y-79964285D01*
X46240000Y-79892857D01*
X46168571Y-79750000D01*
X47668571Y-77821428D02*
X47668571Y-78678571D01*
X47668571Y-78250000D02*
X46168571Y-78250000D01*
X46382857Y-78392857D01*
X46525714Y-78535714D01*
X46597142Y-78678571D01*
X47668571Y-77107142D02*
X47668571Y-76821428D01*
X47597142Y-76678571D01*
X47525714Y-76607142D01*
X47311428Y-76464285D01*
X47025714Y-76392857D01*
X46454285Y-76392857D01*
X46311428Y-76464285D01*
X46240000Y-76535714D01*
X46168571Y-76678571D01*
X46168571Y-76964285D01*
X46240000Y-77107142D01*
X46311428Y-77178571D01*
X46454285Y-77250000D01*
X46811428Y-77250000D01*
X46954285Y-77178571D01*
X47025714Y-77107142D01*
X47097142Y-76964285D01*
X47097142Y-76678571D01*
X47025714Y-76535714D01*
X46954285Y-76464285D01*
X46811428Y-76392857D01*
D11*
X44450000Y-66040000D02*
X44450000Y-123190000D01*
X184150000Y-66040000D02*
X44450000Y-66040000D01*
X184150000Y-123190000D02*
X184150000Y-66040000D01*
X44450000Y-123190000D02*
X184150000Y-123190000D01*
D12*
X127000000Y-123190000D02*
X104140000Y-123190000D01*
X127000000Y-85090000D02*
X127000000Y-123190000D01*
X104140000Y-85090000D02*
X127000000Y-85090000D01*
X104140000Y-123190000D02*
X104140000Y-85090000D01*
X66150000Y-73600000D02*
X64500000Y-73600000D01*
X66150000Y-91500000D02*
X66150000Y-73600000D01*
X60850000Y-91500000D02*
X66150000Y-91500000D01*
X60850000Y-73600000D02*
X60850000Y-91500000D01*
X62500000Y-73600000D02*
X60850000Y-73600000D01*
X64500000Y-73600000D02*
G75*
G02X62500000Y-73600000I-1000000J0D01*
G01*
X110490000Y-73330000D02*
X110490000Y-74280000D01*
X110490000Y-79070000D02*
X110490000Y-78120000D01*
X109570000Y-74280000D02*
X109570000Y-78120000D01*
X111410000Y-74280000D02*
X109570000Y-74280000D01*
X111410000Y-78120000D02*
X111410000Y-74280000D01*
X109570000Y-78120000D02*
X111410000Y-78120000D01*
X71060000Y-69910000D02*
X71060000Y-68580000D01*
X72390000Y-69910000D02*
X71060000Y-69910000D01*
X73660000Y-69910000D02*
X73660000Y-67250000D01*
X73660000Y-67250000D02*
X101660000Y-67250000D01*
X73660000Y-69910000D02*
X101660000Y-69910000D01*
X101660000Y-69910000D02*
X101660000Y-67250000D01*
X71180000Y-119320000D02*
X71180000Y-120650000D01*
X69850000Y-119320000D02*
X71180000Y-119320000D01*
X68580000Y-119320000D02*
X68580000Y-121980000D01*
X68580000Y-121980000D02*
X53280000Y-121980000D01*
X68580000Y-119320000D02*
X53280000Y-119320000D01*
X53280000Y-119320000D02*
X53280000Y-121980000D01*
X129600000Y-67250000D02*
X129600000Y-68580000D01*
X128270000Y-67250000D02*
X129600000Y-67250000D01*
X127000000Y-67250000D02*
X127000000Y-69910000D01*
X127000000Y-69910000D02*
X119320000Y-69910000D01*
X127000000Y-67250000D02*
X119320000Y-67250000D01*
X119320000Y-67250000D02*
X119320000Y-69910000D01*
X129600000Y-72330000D02*
X129600000Y-73660000D01*
X128270000Y-72330000D02*
X129600000Y-72330000D01*
X127000000Y-72330000D02*
X127000000Y-74990000D01*
X127000000Y-74990000D02*
X119320000Y-74990000D01*
X127000000Y-72330000D02*
X119320000Y-72330000D01*
X119320000Y-72330000D02*
X119320000Y-74990000D01*
X116900000Y-67250000D02*
X116900000Y-68580000D01*
X115570000Y-67250000D02*
X116900000Y-67250000D01*
X114300000Y-67250000D02*
X114300000Y-69910000D01*
X114300000Y-69910000D02*
X104080000Y-69910000D01*
X114300000Y-67250000D02*
X104080000Y-67250000D01*
X104080000Y-67250000D02*
X104080000Y-69910000D01*
X105470000Y-80070000D02*
X104140000Y-80070000D01*
X105470000Y-78740000D02*
X105470000Y-80070000D01*
X105470000Y-77470000D02*
X102810000Y-77470000D01*
X102810000Y-77470000D02*
X102810000Y-74870000D01*
X105470000Y-77470000D02*
X105470000Y-74870000D01*
X105470000Y-74870000D02*
X102810000Y-74870000D01*
X55940000Y-116900000D02*
X54610000Y-116900000D01*
X55940000Y-115570000D02*
X55940000Y-116900000D01*
X55940000Y-114300000D02*
X53280000Y-114300000D01*
X53280000Y-114300000D02*
X53280000Y-91380000D01*
X55940000Y-114300000D02*
X55940000Y-91380000D01*
X55940000Y-91380000D02*
X53280000Y-91380000D01*
D13*
X180450000Y-114390000D02*
X179950000Y-114390000D01*
X180450000Y-114390000D02*
X180450000Y-113890000D01*
X180450000Y-107090000D02*
X180450000Y-106590000D01*
X180450000Y-106590000D02*
X179950000Y-106590000D01*
X160420000Y-107090000D02*
X160420000Y-106590000D01*
X160420000Y-106590000D02*
X160920000Y-106590000D01*
X160410000Y-114400000D02*
X160410000Y-113900000D01*
X160410000Y-114400000D02*
X160910000Y-114400000D01*
D12*
X157480000Y-67370001D02*
X157480000Y-74990001D01*
X157480000Y-67370001D02*
X149860000Y-67370001D01*
X132080000Y-67370001D02*
X132080000Y-74990001D01*
X132080000Y-67370001D02*
X139700000Y-67370001D01*
X132080000Y-120710001D02*
X132080000Y-113090001D01*
X139700000Y-120710001D02*
X132080000Y-120710001D01*
X157480000Y-113090001D02*
X157480000Y-120710001D01*
X157480000Y-120710001D02*
X149860000Y-120710001D01*
X172362000Y-104385000D02*
X172362000Y-98815000D01*
X172122000Y-104385000D02*
X172122000Y-98815000D01*
X172242000Y-104385000D02*
X172242000Y-98815000D01*
X162730000Y-101600000D02*
X164030000Y-101600000D01*
X175090000Y-101600000D02*
X173790000Y-101600000D01*
X164030000Y-104385000D02*
X173790000Y-104385000D01*
X164030000Y-98815000D02*
X164030000Y-104385000D01*
X173790000Y-98815000D02*
X164030000Y-98815000D01*
X173790000Y-104385000D02*
X173790000Y-98815000D01*
X165458000Y-73415000D02*
X165458000Y-78985000D01*
X165698000Y-73415000D02*
X165698000Y-78985000D01*
X165578000Y-73415000D02*
X165578000Y-78985000D01*
X175090000Y-76200000D02*
X173790000Y-76200000D01*
X162730000Y-76200000D02*
X164030000Y-76200000D01*
X173790000Y-73415000D02*
X164030000Y-73415000D01*
X173790000Y-78985000D02*
X173790000Y-73415000D01*
X164030000Y-78985000D02*
X173790000Y-78985000D01*
X164030000Y-73415000D02*
X164030000Y-78985000D01*
X172362000Y-95495000D02*
X172362000Y-89925000D01*
X172122000Y-95495000D02*
X172122000Y-89925000D01*
X172242000Y-95495000D02*
X172242000Y-89925000D01*
X162730000Y-92710000D02*
X164030000Y-92710000D01*
X175090000Y-92710000D02*
X173790000Y-92710000D01*
X164030000Y-95495000D02*
X173790000Y-95495000D01*
X164030000Y-89925000D02*
X164030000Y-95495000D01*
X173790000Y-89925000D02*
X164030000Y-89925000D01*
X173790000Y-95495000D02*
X173790000Y-89925000D01*
X165458000Y-82305000D02*
X165458000Y-87875000D01*
X165698000Y-82305000D02*
X165698000Y-87875000D01*
X165578000Y-82305000D02*
X165578000Y-87875000D01*
X175090000Y-85090000D02*
X173790000Y-85090000D01*
X162730000Y-85090000D02*
X164030000Y-85090000D01*
X173790000Y-82305000D02*
X164030000Y-82305000D01*
X173790000Y-87875000D02*
X173790000Y-82305000D01*
X164030000Y-87875000D02*
X173790000Y-87875000D01*
X164030000Y-82305000D02*
X164030000Y-87875000D01*
X90170000Y-123190000D02*
X90170000Y-124460000D01*
X90170000Y-124460000D02*
X85090000Y-124460000D01*
X85090000Y-124460000D02*
X85090000Y-123190000D01*
X101600000Y-72390000D02*
X101600000Y-123190000D01*
X101600000Y-123190000D02*
X73660000Y-123190000D01*
X73660000Y-123190000D02*
X73660000Y-72390000D01*
X73660000Y-72390000D02*
X101600000Y-72390000D01*
X66150000Y-95190000D02*
X64500000Y-95190000D01*
X66150000Y-115630000D02*
X66150000Y-95190000D01*
X60850000Y-115630000D02*
X66150000Y-115630000D01*
X60850000Y-95190000D02*
X60850000Y-115630000D01*
X62500000Y-95190000D02*
X60850000Y-95190000D01*
X64500000Y-95190000D02*
G75*
G02X62500000Y-95190000I-1000000J0D01*
G01*
X115570000Y-73330000D02*
X115570000Y-74280000D01*
X115570000Y-79070000D02*
X115570000Y-78120000D01*
X114650000Y-74280000D02*
X114650000Y-78120000D01*
X116490000Y-74280000D02*
X114650000Y-74280000D01*
X116490000Y-78120000D02*
X116490000Y-74280000D01*
X114650000Y-78120000D02*
X116490000Y-78120000D01*
X113030000Y-73330000D02*
X113030000Y-74280000D01*
X113030000Y-79070000D02*
X113030000Y-78120000D01*
X112110000Y-74280000D02*
X112110000Y-78120000D01*
X113950000Y-74280000D02*
X112110000Y-74280000D01*
X113950000Y-78120000D02*
X113950000Y-74280000D01*
X112110000Y-78120000D02*
X113950000Y-78120000D01*
X71120000Y-97460000D02*
X71120000Y-98410000D01*
X71120000Y-103200000D02*
X71120000Y-102250000D01*
X70200000Y-98410000D02*
X70200000Y-102250000D01*
X72040000Y-98410000D02*
X70200000Y-98410000D01*
X72040000Y-102250000D02*
X72040000Y-98410000D01*
X70200000Y-102250000D02*
X72040000Y-102250000D01*
X54280000Y-84035000D02*
X54280000Y-83970000D01*
X54280000Y-86210000D02*
X54280000Y-86145000D01*
X57520000Y-84035000D02*
X57520000Y-83970000D01*
X57520000Y-86210000D02*
X57520000Y-86145000D01*
X57520000Y-83970000D02*
X54280000Y-83970000D01*
X57520000Y-86210000D02*
X54280000Y-86210000D01*
X54280000Y-78955000D02*
X54280000Y-78890000D01*
X54280000Y-81130000D02*
X54280000Y-81065000D01*
X57520000Y-78955000D02*
X57520000Y-78890000D01*
X57520000Y-81130000D02*
X57520000Y-81065000D01*
X57520000Y-78890000D02*
X54280000Y-78890000D01*
X57520000Y-81130000D02*
X54280000Y-81130000D01*
X54280000Y-73875000D02*
X54280000Y-73810000D01*
X54280000Y-76050000D02*
X54280000Y-75985000D01*
X57520000Y-73875000D02*
X57520000Y-73810000D01*
X57520000Y-76050000D02*
X57520000Y-75985000D01*
X57520000Y-73810000D02*
X54280000Y-73810000D01*
X57520000Y-76050000D02*
X54280000Y-76050000D01*
D14*
X127722380Y-104901904D02*
X128531904Y-104901904D01*
X128627142Y-104854285D01*
X128674761Y-104806666D01*
X128722380Y-104711428D01*
X128722380Y-104520952D01*
X128674761Y-104425714D01*
X128627142Y-104378095D01*
X128531904Y-104330476D01*
X127722380Y-104330476D01*
X128055714Y-103425714D02*
X128722380Y-103425714D01*
X127674761Y-103663809D02*
X128389047Y-103901904D01*
X128389047Y-103282857D01*
X62738095Y-72052380D02*
X62738095Y-72861904D01*
X62785714Y-72957142D01*
X62833333Y-73004761D01*
X62928571Y-73052380D01*
X63119047Y-73052380D01*
X63214285Y-73004761D01*
X63261904Y-72957142D01*
X63309523Y-72861904D01*
X63309523Y-72052380D01*
X63690476Y-72052380D02*
X64309523Y-72052380D01*
X63976190Y-72433333D01*
X64119047Y-72433333D01*
X64214285Y-72480952D01*
X64261904Y-72528571D01*
X64309523Y-72623809D01*
X64309523Y-72861904D01*
X64261904Y-72957142D01*
X64214285Y-73004761D01*
X64119047Y-73052380D01*
X63833333Y-73052380D01*
X63738095Y-73004761D01*
X63690476Y-72957142D01*
X110323333Y-83002380D02*
X109990000Y-82526190D01*
X109751904Y-83002380D02*
X109751904Y-82002380D01*
X110132857Y-82002380D01*
X110228095Y-82050000D01*
X110275714Y-82097619D01*
X110323333Y-82192857D01*
X110323333Y-82335714D01*
X110275714Y-82430952D01*
X110228095Y-82478571D01*
X110132857Y-82526190D01*
X109751904Y-82526190D01*
X110704285Y-82097619D02*
X110751904Y-82050000D01*
X110847142Y-82002380D01*
X111085238Y-82002380D01*
X111180476Y-82050000D01*
X111228095Y-82097619D01*
X111275714Y-82192857D01*
X111275714Y-82288095D01*
X111228095Y-82430952D01*
X110656666Y-83002380D01*
X111275714Y-83002380D01*
X69512380Y-68913333D02*
X70226666Y-68913333D01*
X70369523Y-68960952D01*
X70464761Y-69056190D01*
X70512380Y-69199047D01*
X70512380Y-69294285D01*
X69940952Y-68294285D02*
X69893333Y-68389523D01*
X69845714Y-68437142D01*
X69750476Y-68484761D01*
X69702857Y-68484761D01*
X69607619Y-68437142D01*
X69560000Y-68389523D01*
X69512380Y-68294285D01*
X69512380Y-68103809D01*
X69560000Y-68008571D01*
X69607619Y-67960952D01*
X69702857Y-67913333D01*
X69750476Y-67913333D01*
X69845714Y-67960952D01*
X69893333Y-68008571D01*
X69940952Y-68103809D01*
X69940952Y-68294285D01*
X69988571Y-68389523D01*
X70036190Y-68437142D01*
X70131428Y-68484761D01*
X70321904Y-68484761D01*
X70417142Y-68437142D01*
X70464761Y-68389523D01*
X70512380Y-68294285D01*
X70512380Y-68103809D01*
X70464761Y-68008571D01*
X70417142Y-67960952D01*
X70321904Y-67913333D01*
X70131428Y-67913333D01*
X70036190Y-67960952D01*
X69988571Y-68008571D01*
X69940952Y-68103809D01*
X71632380Y-120983333D02*
X72346666Y-120983333D01*
X72489523Y-121030952D01*
X72584761Y-121126190D01*
X72632380Y-121269047D01*
X72632380Y-121364285D01*
X71727619Y-120554761D02*
X71680000Y-120507142D01*
X71632380Y-120411904D01*
X71632380Y-120173809D01*
X71680000Y-120078571D01*
X71727619Y-120030952D01*
X71822857Y-119983333D01*
X71918095Y-119983333D01*
X72060952Y-120030952D01*
X72632380Y-120602380D01*
X72632380Y-119983333D01*
X130052380Y-68913333D02*
X130766666Y-68913333D01*
X130909523Y-68960952D01*
X131004761Y-69056190D01*
X131052380Y-69199047D01*
X131052380Y-69294285D01*
X130052380Y-68008571D02*
X130052380Y-68199047D01*
X130100000Y-68294285D01*
X130147619Y-68341904D01*
X130290476Y-68437142D01*
X130480952Y-68484761D01*
X130861904Y-68484761D01*
X130957142Y-68437142D01*
X131004761Y-68389523D01*
X131052380Y-68294285D01*
X131052380Y-68103809D01*
X131004761Y-68008571D01*
X130957142Y-67960952D01*
X130861904Y-67913333D01*
X130623809Y-67913333D01*
X130528571Y-67960952D01*
X130480952Y-68008571D01*
X130433333Y-68103809D01*
X130433333Y-68294285D01*
X130480952Y-68389523D01*
X130528571Y-68437142D01*
X130623809Y-68484761D01*
X130052380Y-73993333D02*
X130766666Y-73993333D01*
X130909523Y-74040952D01*
X131004761Y-74136190D01*
X131052380Y-74279047D01*
X131052380Y-74374285D01*
X130052380Y-73040952D02*
X130052380Y-73517142D01*
X130528571Y-73564761D01*
X130480952Y-73517142D01*
X130433333Y-73421904D01*
X130433333Y-73183809D01*
X130480952Y-73088571D01*
X130528571Y-73040952D01*
X130623809Y-72993333D01*
X130861904Y-72993333D01*
X130957142Y-73040952D01*
X131004761Y-73088571D01*
X131052380Y-73183809D01*
X131052380Y-73421904D01*
X131004761Y-73517142D01*
X130957142Y-73564761D01*
X106346666Y-70572380D02*
X106346666Y-71286666D01*
X106299047Y-71429523D01*
X106203809Y-71524761D01*
X106060952Y-71572380D01*
X105965714Y-71572380D01*
X106727619Y-70572380D02*
X107346666Y-70572380D01*
X107013333Y-70953333D01*
X107156190Y-70953333D01*
X107251428Y-71000952D01*
X107299047Y-71048571D01*
X107346666Y-71143809D01*
X107346666Y-71381904D01*
X107299047Y-71477142D01*
X107251428Y-71524761D01*
X107156190Y-71572380D01*
X106870476Y-71572380D01*
X106775238Y-71524761D01*
X106727619Y-71477142D01*
X106132380Y-77803333D02*
X106846666Y-77803333D01*
X106989523Y-77850952D01*
X107084761Y-77946190D01*
X107132380Y-78089047D01*
X107132380Y-78184285D01*
X106465714Y-76898571D02*
X107132380Y-76898571D01*
X106084761Y-77136666D02*
X106799047Y-77374761D01*
X106799047Y-76755714D01*
X54276666Y-117352380D02*
X54276666Y-118066666D01*
X54229047Y-118209523D01*
X54133809Y-118304761D01*
X53990952Y-118352380D01*
X53895714Y-118352380D01*
X55276666Y-118352380D02*
X54705238Y-118352380D01*
X54990952Y-118352380D02*
X54990952Y-117352380D01*
X54895714Y-117495238D01*
X54800476Y-117590476D01*
X54705238Y-117638095D01*
X181276666Y-109942380D02*
X181276666Y-110656666D01*
X181229047Y-110799523D01*
X181133809Y-110894761D01*
X180990952Y-110942380D01*
X180895714Y-110942380D01*
X181657619Y-109942380D02*
X182324285Y-109942380D01*
X181895714Y-110942380D01*
X144232380Y-94741904D02*
X145041904Y-94741904D01*
X145137142Y-94694285D01*
X145184761Y-94646666D01*
X145232380Y-94551428D01*
X145232380Y-94360952D01*
X145184761Y-94265714D01*
X145137142Y-94218095D01*
X145041904Y-94170476D01*
X144232380Y-94170476D01*
X144232380Y-93218095D02*
X144232380Y-93694285D01*
X144708571Y-93741904D01*
X144660952Y-93694285D01*
X144613333Y-93599047D01*
X144613333Y-93360952D01*
X144660952Y-93265714D01*
X144708571Y-93218095D01*
X144803809Y-93170476D01*
X145041904Y-93170476D01*
X145137142Y-93218095D01*
X145184761Y-93265714D01*
X145232380Y-93360952D01*
X145232380Y-93599047D01*
X145184761Y-93694285D01*
X145137142Y-93741904D01*
X133802380Y-72322858D02*
X132802380Y-72322858D01*
X133802380Y-71846667D02*
X132802380Y-71846667D01*
X133802380Y-71275239D01*
X132802380Y-71275239D01*
X133421428Y-70799048D02*
X133421428Y-70037143D01*
X132802380Y-117249048D02*
X132802380Y-117058572D01*
X132850000Y-116963334D01*
X132945238Y-116868096D01*
X133135714Y-116820477D01*
X133469047Y-116820477D01*
X133659523Y-116868096D01*
X133754761Y-116963334D01*
X133802380Y-117058572D01*
X133802380Y-117249048D01*
X133754761Y-117344286D01*
X133659523Y-117439524D01*
X133469047Y-117487143D01*
X133135714Y-117487143D01*
X132945238Y-117439524D01*
X132850000Y-117344286D01*
X132802380Y-117249048D01*
X132802380Y-116391905D02*
X133611904Y-116391905D01*
X133707142Y-116344286D01*
X133754761Y-116296667D01*
X133802380Y-116201429D01*
X133802380Y-116010953D01*
X133754761Y-115915715D01*
X133707142Y-115868096D01*
X133611904Y-115820477D01*
X132802380Y-115820477D01*
X132802380Y-115487143D02*
X132802380Y-114915715D01*
X133802380Y-115201429D02*
X132802380Y-115201429D01*
X133421428Y-114582381D02*
X133421428Y-113820477D01*
X155662380Y-117249048D02*
X155662380Y-117058572D01*
X155710000Y-116963334D01*
X155805238Y-116868096D01*
X155995714Y-116820477D01*
X156329047Y-116820477D01*
X156519523Y-116868096D01*
X156614761Y-116963334D01*
X156662380Y-117058572D01*
X156662380Y-117249048D01*
X156614761Y-117344286D01*
X156519523Y-117439524D01*
X156329047Y-117487143D01*
X155995714Y-117487143D01*
X155805238Y-117439524D01*
X155710000Y-117344286D01*
X155662380Y-117249048D01*
X155662380Y-116391905D02*
X156471904Y-116391905D01*
X156567142Y-116344286D01*
X156614761Y-116296667D01*
X156662380Y-116201429D01*
X156662380Y-116010953D01*
X156614761Y-115915715D01*
X156567142Y-115868096D01*
X156471904Y-115820477D01*
X155662380Y-115820477D01*
X155662380Y-115487143D02*
X155662380Y-114915715D01*
X156662380Y-115201429D02*
X155662380Y-115201429D01*
X156281428Y-114582381D02*
X156281428Y-113820477D01*
X156662380Y-114201429D02*
X155900476Y-114201429D01*
X156662380Y-72322858D02*
X155662380Y-72322858D01*
X156662380Y-71846667D02*
X155662380Y-71846667D01*
X156662380Y-71275239D01*
X155662380Y-71275239D01*
X156281428Y-70799048D02*
X156281428Y-70037143D01*
X156662380Y-70418096D02*
X155900476Y-70418096D01*
X168171904Y-105837380D02*
X168171904Y-104837380D01*
X168410000Y-104837380D01*
X168552857Y-104885000D01*
X168648095Y-104980238D01*
X168695714Y-105075476D01*
X168743333Y-105265952D01*
X168743333Y-105408809D01*
X168695714Y-105599285D01*
X168648095Y-105694523D01*
X168552857Y-105789761D01*
X168410000Y-105837380D01*
X168171904Y-105837380D01*
X169600476Y-105170714D02*
X169600476Y-105837380D01*
X169362380Y-104789761D02*
X169124285Y-105504047D01*
X169743333Y-105504047D01*
X176268095Y-104252380D02*
X176268095Y-103252380D01*
X176839523Y-104252380D02*
X176410952Y-103680952D01*
X176839523Y-103252380D02*
X176268095Y-103823809D01*
X168171904Y-72867380D02*
X168171904Y-71867380D01*
X168410000Y-71867380D01*
X168552857Y-71915000D01*
X168648095Y-72010238D01*
X168695714Y-72105476D01*
X168743333Y-72295952D01*
X168743333Y-72438809D01*
X168695714Y-72629285D01*
X168648095Y-72724523D01*
X168552857Y-72819761D01*
X168410000Y-72867380D01*
X168171904Y-72867380D01*
X169076666Y-71867380D02*
X169695714Y-71867380D01*
X169362380Y-72248333D01*
X169505238Y-72248333D01*
X169600476Y-72295952D01*
X169648095Y-72343571D01*
X169695714Y-72438809D01*
X169695714Y-72676904D01*
X169648095Y-72772142D01*
X169600476Y-72819761D01*
X169505238Y-72867380D01*
X169219523Y-72867380D01*
X169124285Y-72819761D01*
X169076666Y-72772142D01*
X161028095Y-74452380D02*
X161028095Y-73452380D01*
X161599523Y-74452380D02*
X161170952Y-73880952D01*
X161599523Y-73452380D02*
X161028095Y-74023809D01*
X168171904Y-96947380D02*
X168171904Y-95947380D01*
X168410000Y-95947380D01*
X168552857Y-95995000D01*
X168648095Y-96090238D01*
X168695714Y-96185476D01*
X168743333Y-96375952D01*
X168743333Y-96518809D01*
X168695714Y-96709285D01*
X168648095Y-96804523D01*
X168552857Y-96899761D01*
X168410000Y-96947380D01*
X168171904Y-96947380D01*
X169124285Y-96042619D02*
X169171904Y-95995000D01*
X169267142Y-95947380D01*
X169505238Y-95947380D01*
X169600476Y-95995000D01*
X169648095Y-96042619D01*
X169695714Y-96137857D01*
X169695714Y-96233095D01*
X169648095Y-96375952D01*
X169076666Y-96947380D01*
X169695714Y-96947380D01*
X176268095Y-95362380D02*
X176268095Y-94362380D01*
X176839523Y-95362380D02*
X176410952Y-94790952D01*
X176839523Y-94362380D02*
X176268095Y-94933809D01*
X168171904Y-81757380D02*
X168171904Y-80757380D01*
X168410000Y-80757380D01*
X168552857Y-80805000D01*
X168648095Y-80900238D01*
X168695714Y-80995476D01*
X168743333Y-81185952D01*
X168743333Y-81328809D01*
X168695714Y-81519285D01*
X168648095Y-81614523D01*
X168552857Y-81709761D01*
X168410000Y-81757380D01*
X168171904Y-81757380D01*
X169695714Y-81757380D02*
X169124285Y-81757380D01*
X169410000Y-81757380D02*
X169410000Y-80757380D01*
X169314761Y-80900238D01*
X169219523Y-80995476D01*
X169124285Y-81043095D01*
X161028095Y-83342380D02*
X161028095Y-82342380D01*
X161599523Y-83342380D02*
X161170952Y-82770952D01*
X161599523Y-82342380D02*
X161028095Y-82913809D01*
X102322380Y-98551904D02*
X103131904Y-98551904D01*
X103227142Y-98504285D01*
X103274761Y-98456666D01*
X103322380Y-98361428D01*
X103322380Y-98170952D01*
X103274761Y-98075714D01*
X103227142Y-98028095D01*
X103131904Y-97980476D01*
X102322380Y-97980476D01*
X103322380Y-96980476D02*
X103322380Y-97551904D01*
X103322380Y-97266190D02*
X102322380Y-97266190D01*
X102465238Y-97361428D01*
X102560476Y-97456666D01*
X102608095Y-97551904D01*
X62738095Y-93642380D02*
X62738095Y-94451904D01*
X62785714Y-94547142D01*
X62833333Y-94594761D01*
X62928571Y-94642380D01*
X63119047Y-94642380D01*
X63214285Y-94594761D01*
X63261904Y-94547142D01*
X63309523Y-94451904D01*
X63309523Y-93642380D01*
X63738095Y-93737619D02*
X63785714Y-93690000D01*
X63880952Y-93642380D01*
X64119047Y-93642380D01*
X64214285Y-93690000D01*
X64261904Y-93737619D01*
X64309523Y-93832857D01*
X64309523Y-93928095D01*
X64261904Y-94070952D01*
X63690476Y-94642380D01*
X64309523Y-94642380D01*
X115403333Y-83002380D02*
X115070000Y-82526190D01*
X114831904Y-83002380D02*
X114831904Y-82002380D01*
X115212857Y-82002380D01*
X115308095Y-82050000D01*
X115355714Y-82097619D01*
X115403333Y-82192857D01*
X115403333Y-82335714D01*
X115355714Y-82430952D01*
X115308095Y-82478571D01*
X115212857Y-82526190D01*
X114831904Y-82526190D01*
X116260476Y-82335714D02*
X116260476Y-83002380D01*
X116022380Y-81954761D02*
X115784285Y-82669047D01*
X116403333Y-82669047D01*
X112863333Y-83002380D02*
X112530000Y-82526190D01*
X112291904Y-83002380D02*
X112291904Y-82002380D01*
X112672857Y-82002380D01*
X112768095Y-82050000D01*
X112815714Y-82097619D01*
X112863333Y-82192857D01*
X112863333Y-82335714D01*
X112815714Y-82430952D01*
X112768095Y-82478571D01*
X112672857Y-82526190D01*
X112291904Y-82526190D01*
X113196666Y-82002380D02*
X113815714Y-82002380D01*
X113482380Y-82383333D01*
X113625238Y-82383333D01*
X113720476Y-82430952D01*
X113768095Y-82478571D01*
X113815714Y-82573809D01*
X113815714Y-82811904D01*
X113768095Y-82907142D01*
X113720476Y-82954761D01*
X113625238Y-83002380D01*
X113339523Y-83002380D01*
X113244285Y-82954761D01*
X113196666Y-82907142D01*
X69652380Y-100496666D02*
X69176190Y-100830000D01*
X69652380Y-101068095D02*
X68652380Y-101068095D01*
X68652380Y-100687142D01*
X68700000Y-100591904D01*
X68747619Y-100544285D01*
X68842857Y-100496666D01*
X68985714Y-100496666D01*
X69080952Y-100544285D01*
X69128571Y-100591904D01*
X69176190Y-100687142D01*
X69176190Y-101068095D01*
X69652380Y-99544285D02*
X69652380Y-100115714D01*
X69652380Y-99830000D02*
X68652380Y-99830000D01*
X68795238Y-99925238D01*
X68890476Y-100020476D01*
X68938095Y-100115714D01*
X55733333Y-87697142D02*
X55685714Y-87744761D01*
X55542857Y-87792380D01*
X55447619Y-87792380D01*
X55304761Y-87744761D01*
X55209523Y-87649523D01*
X55161904Y-87554285D01*
X55114285Y-87363809D01*
X55114285Y-87220952D01*
X55161904Y-87030476D01*
X55209523Y-86935238D01*
X55304761Y-86840000D01*
X55447619Y-86792380D01*
X55542857Y-86792380D01*
X55685714Y-86840000D01*
X55733333Y-86887619D01*
X56066666Y-86792380D02*
X56685714Y-86792380D01*
X56352380Y-87173333D01*
X56495238Y-87173333D01*
X56590476Y-87220952D01*
X56638095Y-87268571D01*
X56685714Y-87363809D01*
X56685714Y-87601904D01*
X56638095Y-87697142D01*
X56590476Y-87744761D01*
X56495238Y-87792380D01*
X56209523Y-87792380D01*
X56114285Y-87744761D01*
X56066666Y-87697142D01*
X55733333Y-82617142D02*
X55685714Y-82664761D01*
X55542857Y-82712380D01*
X55447619Y-82712380D01*
X55304761Y-82664761D01*
X55209523Y-82569523D01*
X55161904Y-82474285D01*
X55114285Y-82283809D01*
X55114285Y-82140952D01*
X55161904Y-81950476D01*
X55209523Y-81855238D01*
X55304761Y-81760000D01*
X55447619Y-81712380D01*
X55542857Y-81712380D01*
X55685714Y-81760000D01*
X55733333Y-81807619D01*
X56114285Y-81807619D02*
X56161904Y-81760000D01*
X56257142Y-81712380D01*
X56495238Y-81712380D01*
X56590476Y-81760000D01*
X56638095Y-81807619D01*
X56685714Y-81902857D01*
X56685714Y-81998095D01*
X56638095Y-82140952D01*
X56066666Y-82712380D01*
X56685714Y-82712380D01*
X55733333Y-77537142D02*
X55685714Y-77584761D01*
X55542857Y-77632380D01*
X55447619Y-77632380D01*
X55304761Y-77584761D01*
X55209523Y-77489523D01*
X55161904Y-77394285D01*
X55114285Y-77203809D01*
X55114285Y-77060952D01*
X55161904Y-76870476D01*
X55209523Y-76775238D01*
X55304761Y-76680000D01*
X55447619Y-76632380D01*
X55542857Y-76632380D01*
X55685714Y-76680000D01*
X55733333Y-76727619D01*
X56685714Y-77632380D02*
X56114285Y-77632380D01*
X56400000Y-77632380D02*
X56400000Y-76632380D01*
X56304761Y-76775238D01*
X56209523Y-76870476D01*
X56114285Y-76918095D01*
M02*
