M48
; DRILL file {KiCad (5.1.4)-1} date 22/10/2019 5:17:08 PM
; FORMAT={-:-/ absolute / inch / decimal}
; #@! TF.CreationDate,2019-10-22T17:17:08+13:00
; #@! TF.GenerationSoftware,Kicad,Pcbnew,(5.1.4)-1
; #@! TF.FileFunction,Plated,1,2,PTH
FMAT,2
INCH
T1C0.0157
T2C0.0276
T3C0.0315
T4C0.0394
T5C0.0400
T6C0.0472
T7C0.0512
T8C0.1200
%
G90
G05
T1
X2.6Y-4.6
T2
X2.8Y-3.8
X2.8Y-4.1
X4.45Y-2.85
X4.45Y-3.15
X4.55Y-2.85
X4.55Y-3.15
X4.35Y-2.85
X4.35Y-3.15
T3
X2.1516Y-3.15
X2.25Y-3.15
X2.1516Y-3.35
X2.25Y-3.35
X2.1516Y-2.95
X2.25Y-2.95
X2.35Y-2.95
X2.35Y-3.05
X2.35Y-3.15
X2.35Y-3.25
X2.35Y-3.35
X2.35Y-3.45
X2.35Y-3.55
X2.65Y-2.95
X2.65Y-3.05
X2.65Y-3.15
X2.65Y-3.25
X2.65Y-3.35
X2.65Y-3.45
X2.65Y-3.55
X2.35Y-3.8
X2.35Y-3.9
X2.35Y-4.0
X2.35Y-4.1
X2.35Y-4.2
X2.35Y-4.3
X2.35Y-4.4
X2.35Y-4.5
X2.65Y-3.8
X2.65Y-3.9
X2.65Y-4.0
X2.65Y-4.1
X2.65Y-4.2
X2.65Y-4.3
X2.65Y-4.4
X2.65Y-4.5
T4
X4.75Y-2.7
X4.85Y-2.7
X4.95Y-2.7
X5.05Y-2.7
X2.15Y-4.75
X2.25Y-4.75
X2.35Y-4.75
X2.45Y-4.75
X2.55Y-4.75
X2.65Y-4.75
X2.75Y-4.75
X4.75Y-2.9
X4.85Y-2.9
X4.95Y-2.9
X5.05Y-2.9
X4.15Y-2.7
X4.25Y-2.7
X4.35Y-2.7
X4.45Y-2.7
X4.55Y-2.7
X4.1Y-3.0
X4.1Y-3.1
X2.15Y-3.65
X2.15Y-3.75
X2.15Y-3.85
X2.15Y-3.95
X2.15Y-4.05
X2.15Y-4.15
X2.15Y-4.25
X2.15Y-4.35
X2.15Y-4.45
X2.15Y-4.55
X2.85Y-2.7
X2.95Y-2.7
X3.05Y-2.7
X3.15Y-2.7
X3.25Y-2.7
X3.35Y-2.7
X3.45Y-2.7
X3.55Y-2.7
X3.65Y-2.7
X3.75Y-2.7
X3.85Y-2.7
X3.95Y-2.7
T5
X5.25Y-2.7024
X5.25Y-4.7024
X6.15Y-2.7024
X6.15Y-4.7024
X4.4Y-3.4
X4.5Y-3.4
X4.6Y-3.4
X4.7Y-3.4
X2.95Y-3.1
X2.95Y-3.2
X2.95Y-3.3
X2.95Y-3.4
X2.95Y-3.5
X2.95Y-3.6
X2.95Y-3.7
X2.95Y-3.8
X2.95Y-3.9
X2.95Y-4.0
X2.95Y-4.1
X2.95Y-4.2
X2.95Y-4.3
X2.95Y-4.4
X2.95Y-4.5
X3.95Y-3.1
X3.95Y-3.2
X3.95Y-3.3
X3.95Y-3.4
X3.95Y-3.5
X3.95Y-3.6
X3.95Y-3.7
X3.95Y-3.8
X3.95Y-3.9
X3.95Y-4.0
X3.95Y-4.1
X3.95Y-4.2
X3.95Y-4.3
X3.95Y-4.4
X3.95Y-4.5
T6
X6.35Y-4.0
X6.95Y-4.0
X6.35Y-3.65
X6.95Y-3.65
X6.35Y-3.35
X6.95Y-3.35
X6.35Y-3.0
X6.95Y-3.0
T7
X6.4Y-4.35
X6.6Y-4.35
X6.8Y-4.35
X7.0Y-4.35
T8
X1.9Y-2.75
X1.9Y-4.7
X7.1Y-2.75
X7.1Y-4.7
T0
M30
